<svg id="Group_229" data-name="Group 229" xmlns="http://www.w3.org/2000/svg" xmlns:xlink="http://www.w3.org/1999/xlink" width="16.826" height="16.826" viewBox="0 0 16.826 16.826">
  <defs>
    <linearGradient id="linear-gradient" x1="0.854" y1="0.146" x2="0.147" y2="0.854" gradientUnits="objectBoundingBox">
      <stop offset="0" stop-color="#0cf"/>
      <stop offset="1" stop-color="#0080ff"/>
    </linearGradient>
  </defs>
  <ellipse id="Ellipse_68" data-name="Ellipse 68" cx="8.413" cy="8.413" rx="8.413" ry="8.413" transform="translate(0)" fill="url(#linear-gradient)"/>
  <path id="Path_596" data-name="Path 596" d="M148.013,120.179a3.879,3.879,0,0,1-.927.263c.147-.026.366-.293.453-.405a1.625,1.625,0,0,0,.31-.56v-.047a.047.047,0,0,0-.047,0,4.776,4.776,0,0,1-1.1.431.082.082,0,0,1-.078,0,.523.523,0,0,0-.095-.1,2,2,0,0,0-.534-.328,1.832,1.832,0,0,0-.819-.129,1.974,1.974,0,0,0-.776.215,2.107,2.107,0,0,0-.625.513,1.883,1.883,0,0,0-.371.75,2.025,2.025,0,0,0-.022.789c0,.043,0,.052-.039.043a5.862,5.862,0,0,1-3.78-1.922c-.043-.052-.069-.052-.1,0a1.909,1.909,0,0,0,.323,2.263c.078.073.151.142.233.207a1.956,1.956,0,0,1-.728-.207c-.043-.026-.065,0-.069.039a.919.919,0,0,0,0,.216,1.935,1.935,0,0,0,1.194,1.547,1.2,1.2,0,0,0,.241.073,2.056,2.056,0,0,1-.715.022c-.052,0-.073,0-.052.069a2.017,2.017,0,0,0,1.5,1.259l.2.026h0a2.336,2.336,0,0,1-1.026.543,3.625,3.625,0,0,1-1.56.2h-.121c-.022,0,0,.034.022.056.108.069.215.129.328.19a5.039,5.039,0,0,0,1.039.431,5.556,5.556,0,0,0,5.392-1.259,5.666,5.666,0,0,0,1.491-4.129c0-.06.073-.09.112-.121a3.72,3.72,0,0,0,.733-.763.228.228,0,0,0,.052-.147h0C148.051,120.153,148.051,120.161,148.013,120.179Z" transform="translate(-134.949 -114.636)" fill="#fff"/>
</svg>
