<svg id="_1" data-name="1" xmlns="http://www.w3.org/2000/svg" width="51.756" height="51.756" viewBox="0 0 51.756 51.756">
  <path id="Path_226" data-name="Path 226" d="M57.721,59.756H8.035A1.035,1.035,0,0,1,7,58.721V9.035A1.035,1.035,0,0,1,8.035,8H57.721a1.035,1.035,0,0,1,1.035,1.035V58.721A1.035,1.035,0,0,1,57.721,59.756ZM9.07,57.686H56.686V10.07H9.07Z" transform="translate(-7 -8)" fill="#231f20"/>
  <path id="Path_227" data-name="Path 227" d="M57.721,16.07H8.035a1.035,1.035,0,1,1,0-2.07H57.721a1.035,1.035,0,0,1,0,2.07Z" transform="translate(-7 -7.789)" fill="#231f20"/>
  <circle id="Ellipse_34" data-name="Ellipse 34" cx="0.974" cy="0.974" r="0.974" transform="translate(4.452 3.154)" fill="#231f20"/>
  <circle id="Ellipse_35" data-name="Ellipse 35" cx="0.974" cy="0.974" r="0.974" transform="translate(7.049 3.154)" fill="#231f20"/>
  <circle id="Ellipse_36" data-name="Ellipse 36" cx="0.974" cy="0.974" r="0.974" transform="translate(10.296 3.154)" fill="#231f20"/>
  <path id="Path_228" data-name="Path 228" d="M38.422,33.457H27.035A1.035,1.035,0,0,1,26,32.422V21.035A1.035,1.035,0,0,1,27.035,20,12.435,12.435,0,0,1,39.457,32.422,1.035,1.035,0,0,1,38.422,33.457ZM28.07,31.386h9.264a10.37,10.37,0,0,0-9.264-9.264Z" transform="translate(-6.333 -7.578)" fill="#231f20"/>
  <path id="Path_229" data-name="Path 229" d="M23.422,48.843a12.422,12.422,0,0,1,0-24.843,1.035,1.035,0,0,1,1.035,1.035V35.386H34.808a1.035,1.035,0,0,1,1.035,1.035A12.435,12.435,0,0,1,23.422,48.843ZM22.386,26.122A10.351,10.351,0,1,0,33.721,37.457h-10.3a1.035,1.035,0,0,1-1.035-1.035Z" transform="translate(-6.859 -7.438)" fill="#231f20"/>
  <path id="Path_230" data-name="Path 230" d="M52.422,28.281H41.035A1.035,1.035,0,0,1,40,27.246V21.035A1.035,1.035,0,0,1,41.035,20H52.422a1.035,1.035,0,0,1,1.035,1.035v6.211A1.035,1.035,0,0,1,52.422,28.281ZM42.07,26.211h9.316V22.07H42.07Z" transform="translate(-5.841 -7.578)" fill="#231f20"/>
  <path id="Path_231" data-name="Path 231" d="M52.422,33.07H41.035a1.035,1.035,0,1,1,0-2.07H52.422a1.035,1.035,0,1,1,0,2.07Z" transform="translate(-5.841 -7.192)" fill="#231f20"/>
  <path id="Path_232" data-name="Path 232" d="M52.527,37.07H38.035a1.035,1.035,0,0,1,0-2.07H52.527a1.035,1.035,0,0,1,0,2.07Z" transform="translate(-5.946 -7.052)" fill="#231f20"/>
  <path id="Path_233" data-name="Path 233" d="M52.422,41.07H41.035a1.035,1.035,0,1,1,0-2.07H52.422a1.035,1.035,0,1,1,0,2.07Z" transform="translate(-5.841 -6.911)" fill="#231f20"/>
  <path id="Path_234" data-name="Path 234" d="M52.562,45.07H37.035a1.035,1.035,0,0,1,0-2.07H52.562a1.035,1.035,0,0,1,0,2.07Z" transform="translate(-5.981 -6.771)" fill="#231f20"/>
</svg>
