<svg xmlns="http://www.w3.org/2000/svg" width="85.215" height="86.241" viewBox="0 0 85.215 86.241">
  <g id="_16775106821600774621" data-name="16775106821600774621" transform="translate(0)">
    <g id="Layer_x0020_1" transform="translate(10.08 14.968)">
      <path id="Path_220" data-name="Path 220" d="M1264.235,1124A28.249,28.249,0,0,1,1291,1143.244h0a.872.872,0,0,1-.556,1.112.851.851,0,0,1-.3.05H1238.32a.879.879,0,0,1-.884-.884.852.852,0,0,1,.076-.354A28.25,28.25,0,0,1,1264.248,1124Zm15.415,6.722a26.465,26.465,0,0,0-30.831,0,26.628,26.628,0,0,0-9.249,11.915H1288.9A26.538,26.538,0,0,0,1279.651,1130.722Zm11.309,30.6a28.234,28.234,0,0,1-53.5-.076h0a.871.871,0,0,1,.556-1.112.85.85,0,0,1,.3-.051h51.819a.879.879,0,0,1,.885.884.85.85,0,0,1-.076.354Zm-11.309,12.446a26.625,26.625,0,0,0,9.249-11.915h-49.329a26.467,26.467,0,0,0,24.664,16.868A26.27,26.27,0,0,0,1279.651,1173.771Z" transform="translate(-1231.889 -1124)"/>
      <path id="Path_221" data-name="Path 221" d="M1658.276,4337.635a28.186,28.186,0,0,1-43.669-.05h0a.88.88,0,0,1,.126-1.238.986.986,0,0,1,.3-.164,56.835,56.835,0,0,1,42.936.037h0a.874.874,0,0,1,.48,1.15.61.61,0,0,1-.19.277Zm-10.487,6.027a26.292,26.292,0,0,0,8.377-6.279,54.731,54.731,0,0,0-9.085-2.6,55.266,55.266,0,0,0-30.338,2.6,26.479,26.479,0,0,0,31.046,6.279Z" transform="translate(-1604.12 -4291.465)"/>
      <path id="Path_222" data-name="Path 222" d="M1657.165,1135.576a26.642,26.642,0,0,0-8.377-6.28,26.4,26.4,0,0,0-31.046,6.28,54.72,54.72,0,0,0,9.085,2.6,55.279,55.279,0,0,0,30.338-2.6Zm-7.632-7.872a28.26,28.26,0,0,1,9.729,7.619,1.082,1.082,0,0,1,.19.278.884.884,0,0,1-.48,1.15h0a56.9,56.9,0,0,1-42.936.038.888.888,0,0,1-.43-1.4h0a28.316,28.316,0,0,1,9.78-7.67,28.215,28.215,0,0,1,24.159,0Z" transform="translate(-1605.107 -1124.987)"/>
      <path id="Path_223" data-name="Path 223" d="M2223.405,1124c3.437,0,6.571,2.034,9.11,5.484a33.894,33.894,0,0,1,5.421,13.886h0a.885.885,0,0,1-.72,1.024.725.725,0,0,1-.164.013h-27.305a.879.879,0,0,1-.885-.884.96.96,0,0,1,.026-.19,33.817,33.817,0,0,1,5.408-13.836c2.527-3.45,5.673-5.484,9.11-5.484Zm7.682,6.533c-2.2-2.995-4.852-4.764-7.682-4.764s-5.484,1.769-7.682,4.764a31.034,31.034,0,0,0-4.9,12.118H2236a31.317,31.317,0,0,0-4.9-12.118Zm6.836,30.641a33.893,33.893,0,0,1-5.408,13.836c-2.527,3.449-5.673,5.484-9.11,5.484s-6.571-2.034-9.11-5.484a33.89,33.89,0,0,1-5.421-13.886h0a.886.886,0,0,1,.72-1.023.72.72,0,0,1,.164-.013h27.306a.879.879,0,0,1,.885.884.952.952,0,0,1-.025.19Zm-6.836,12.8a31.049,31.049,0,0,0,4.9-12.118h-25.183a31.326,31.326,0,0,0,4.9,12.118c2.2,2.994,4.852,4.763,7.683,4.763s5.484-1.769,7.682-4.763Z" transform="translate(-2191.058 -1124)"/>
      <path id="Path_224" data-name="Path 224" d="M800.884,2599h63.81v19.219H800V2599Zm62.053,1.769H801.769v15.693h61.169Z" transform="translate(-800 -2580.362)"/>
      <path id="Path_225" data-name="Path 225" d="M1238.146,2962.285l-3.146-10.26h1.794l1.63,5.926.607,2.2q.038-.171.531-2.123l1.63-6.015h1.794l1.541,5.951.518,1.959.581-1.984,1.756-5.939h1.693l-3.209,10.26h-1.807l-1.63-6.154-.4-1.756-2.072,7.9h-1.82Zm19.8,0-3.146-10.26h1.794l1.63,5.926.607,2.2q.038-.171.531-2.123l1.63-6.015h1.794l1.542,5.951.518,1.959.581-1.984,1.756-5.939h1.693l-3.21,10.26h-1.807l-1.63-6.154-.4-1.756-2.072,7.9h-1.82Zm19.8,0-3.146-10.26h1.794l1.63,5.926.606,2.2q.038-.171.531-2.123l1.63-6.015h1.794l1.542,5.951.518,1.959.581-1.984,1.756-5.939h1.693l-3.209,10.26h-1.807l-1.63-6.154-.4-1.756-2.072,7.9h-1.82Z" transform="translate(-1229.504 -2928.902)"/>
    </g>
    <rect id="Rectangle_82" data-name="Rectangle 82" width="85.215" height="86.241" transform="translate(0 0)" fill="none"/>
  </g>
</svg>
