<svg id="_18293808771605806466" data-name="18293808771605806466" xmlns="http://www.w3.org/2000/svg" width="81.504" height="46.768" viewBox="0 0 81.504 46.768">
  <path id="Path_239" data-name="Path 239" d="M28.276,26.312a2.53,2.53,0,0,0,.093,1.28,3.96,3.96,0,0,0,.232.584,3.641,3.641,0,0,0,.338.577,4.022,4.022,0,0,0,.418.524,3.448,3.448,0,0,0,.464.424l.007.007a2.472,2.472,0,0,0,1.273.551,3.746,3.746,0,0,0,1.93-.75l.113-.073.013-.007c.2-.133.4-.252.59-.378a.509.509,0,0,1,.365-.06.453.453,0,0,1,.292.2.2.2,0,0,1,.04.073l.192.345.007.007c.252.458.5.9.763,1.34a13.049,13.049,0,0,0,.763,1.161l.007.007.033.04c.027.04.066.093.113.153l.007.007c.159.212.318.438.484.637a2.879,2.879,0,0,0,.478.471h0a.409.409,0,0,0,.325.086.79.79,0,0,0,.4-.338l.1-.159.1-.153.007-.007a3.682,3.682,0,0,0,.272-.464,1.117,1.117,0,0,0,.106-.358A1.669,1.669,0,0,0,38.4,32h-.007c-.531-.06-1.048-.126-1.22-1.147v-.007h0l-.02-.126c-.02-.133-.033-.232-.046-.292a.417.417,0,0,0-.02-.086v.013h0c-.046-.027-.1-.053-.166-.086l-.06-.027h-.007a1.1,1.1,0,0,1-.418-.358,1.572,1.572,0,0,1-.252-.544h0a3.218,3.218,0,0,1-.1-.623,3.88,3.88,0,0,1,.02-.69v-.007a.517.517,0,0,1,.086-.226l.007-.013a.506.506,0,0,1,.186-.146c.007,0,.013-.007.02-.007a14.21,14.21,0,0,1,6.215-1.36,17.832,17.832,0,0,1-4.232-4.245,18.811,18.811,0,0,1-2.859-5.452,16.413,16.413,0,0,1-1.645,3.509c-.962,1.506-5.359,5.154-5.6,6.228ZM12.005,2.845V41.017H69.333V2.845ZM70.732,0a1.447,1.447,0,0,1,1.439,1.439V42.005A1.437,1.437,0,0,1,71.09,43.4h8.729a1.685,1.685,0,1,1,0,3.369H1.685a1.685,1.685,0,0,1,0-3.369h8.351a1.451,1.451,0,0,1-1.081-1.393V1.439A1.447,1.447,0,0,1,10.394,0ZM38.384,44.035H43.12a.809.809,0,0,1,0,1.618H38.384a.809.809,0,1,1,0-1.618Zm2.56-31.366a.51.51,0,0,1,.511-.882A17.727,17.727,0,0,1,46,16.151a15.964,15.964,0,0,1,2.819,5.319.513.513,0,1,1-.995.252,15.007,15.007,0,0,0-2.64-4.955,16.631,16.631,0,0,0-4.238-4.1Zm8.848-1.121a.512.512,0,1,1,.756-.69c.385.418.763.856,1.134,1.32s.7.915,1.035,1.393a.511.511,0,1,1-.842.577c-.312-.451-.643-.9-.988-1.333-.365-.444-.73-.869-1.094-1.267Zm-4.3.5a.508.508,0,0,1,.67-.763A22.258,22.258,0,0,1,48.9,14.254a20.86,20.86,0,0,1,2.129,3.33.509.509,0,0,1-.909.458A20.144,20.144,0,0,0,48.1,14.877a21.037,21.037,0,0,0-2.613-2.832ZM37.94,19.693a2.993,2.993,0,0,1,1.459-.232,2.377,2.377,0,0,1,2.209,2.587,4.486,4.486,0,0,1-.557,1.725c.272.265.564.531.882.8a10.788,10.788,0,0,0,1.36,1.015,6.745,6.745,0,0,0,1.24.617.562.562,0,0,0,.113-.027.529.529,0,0,0,.106-.053.42.42,0,0,0,.086-.073,1.4,1.4,0,0,0,.133-.471,2.756,2.756,0,0,0-.013-.657,8.51,8.51,0,0,0-.862-2.527,21.406,21.406,0,0,0-1.95-3.137,23.828,23.828,0,0,0-2.388-2.786A11.452,11.452,0,0,0,37.548,14.7l-.007-.007a3.3,3.3,0,0,0-.683-.305l-.013-.007a1.117,1.117,0,0,0-.471-.053h0c-.033.007-.053.007-.073.013l-.007.007h0a.421.421,0,0,0-.046.08c-.007.013-.02.033-.033.06l-.02.04v.02a3.97,3.97,0,0,0,.159,1.545,12.881,12.881,0,0,0,.856,2.2c.252.511.491.975.73,1.406Zm-.869,10.666Zm5.936-3.1h-.013a13.833,13.833,0,0,0-5.976,1.167c0,.1,0,.206.007.312a1.442,1.442,0,0,0,.06.352h0a.941.941,0,0,0,.086.2.214.214,0,0,0,.086.086l.053.027h.007l.013.007h0a1.148,1.148,0,0,1,.57.431v.007a1.8,1.8,0,0,1,.192.7h0l.007.033v.007h0l.02.126v.007a.348.348,0,0,0,.371.332h0c.8.093,1.081.464,1.075.955a2.862,2.862,0,0,1-.557,1.406h0c-.033.053-.066.106-.093.146s-.06.093-.086.133l-.013.02c-.007.007-.007.013-.013.02a1.727,1.727,0,0,1-1.055.8,1.387,1.387,0,0,1-1.048-.285,5.644,5.644,0,0,1-1.141-1.254l-.053-.073-.053-.073h0l-.093-.126-.007-.013a13.882,13.882,0,0,1-.8-1.22c-.245-.411-.5-.862-.756-1.327l-.007.007c-.053.033-.1.066-.139.093h0l-.186.126-.013.007a3.584,3.584,0,0,1-2.481.856,3.467,3.467,0,0,1-1.764-.763,4.4,4.4,0,0,1-.577-.537,5.961,5.961,0,0,1-.511-.637,6.124,6.124,0,0,1-.4-.7,6.2,6.2,0,0,1-.292-.73v-.007a3.5,3.5,0,0,1-.106-1.8c.551-2.341,5.711-4.842,7.555-10.725v-.007c.086-.279.166-.531.252-.769h0a4.117,4.117,0,0,1,.259-.61l.007-.007a1.481,1.481,0,0,1,.133-.212.954.954,0,0,1,.186-.179,1.026,1.026,0,0,1,.239-.126,1.659,1.659,0,0,1,.285-.06,2.154,2.154,0,0,1,.856.08,4.333,4.333,0,0,1,.935.411l.007.007a12.418,12.418,0,0,1,2.381,1.9A25.03,25.03,0,0,1,42.921,18.7a22.753,22.753,0,0,1,2.063,3.336,9.422,9.422,0,0,1,.935,2.786,3.651,3.651,0,0,1,.007.968,2.06,2.06,0,0,1-.265.789l-.007.007c-.391.69-1.638.677-2.394.67-.093.007-.179,0-.252,0Z" fill="#fff" fill-rule="evenodd"/>
</svg>
