<svg id="_20067942981535701994" data-name="20067942981535701994" xmlns="http://www.w3.org/2000/svg" width="51.293" height="62.919" viewBox="0 0 51.293 62.919">
  <path id="Path_235" data-name="Path 235" d="M21.026,58.922h1.812L20.5,66.785a1.026,1.026,0,0,0,.691,1.275,1.014,1.014,0,0,0,.293.042,1.027,1.027,0,0,0,.983-.733l2.512-8.448h7.108L34.6,67.37a1.026,1.026,0,0,0,1.967-.585l-2.338-7.863h1.844a1.026,1.026,0,1,0,0-2.052H33.617L31.65,50.254a1.044,1.044,0,0,0-.072-.175,6.461,6.461,0,0,0-1.319-12.022v-4.78a1.026,1.026,0,1,0-2.052,0v4.591a6.465,6.465,0,0,0-2.666,12.125,1.008,1.008,0,0,0-.126.262L23.448,56.87H21.026a1.026,1.026,0,1,0,0,2.052Zm3.2-14.606a4.42,4.42,0,1,1,4.42,4.42A4.425,4.425,0,0,1,24.226,44.316Zm3.156,6.523a1,1,0,0,0,.033-.172,6.136,6.136,0,0,0,2.242.034.972.972,0,0,0,.026.137l1.794,6.031H25.589Z" transform="translate(-13.845 -13.101)" fill="#fff"/>
  <path id="Path_236" data-name="Path 236" d="M53.026,67.568H58.5a1.026,1.026,0,0,0,1.026-1.026V39.183a1.022,1.022,0,0,0-.077-.388l-2.736-6.681a1.026,1.026,0,0,0-1.9,0l-2.736,6.681a1.015,1.015,0,0,0-.077.412V66.542A1.026,1.026,0,0,0,53.026,67.568Zm1.026-2.052V63.465h3.42v2.052Zm1.71-30.307,1.71,4.176V61.413h-3.42V39.385Z" transform="translate(-23.96 -12.856)" fill="#fff"/>
  <path id="Path_237" data-name="Path 237" d="M53.06,16.25H12.026A1.025,1.025,0,0,0,11,17.276v52.66a1.026,1.026,0,0,0,1.026,1.026H53.06a1.026,1.026,0,0,0,1.026-1.026V17.276A1.026,1.026,0,0,0,53.06,16.25ZM52.034,68.91H13.052V18.3H52.034Z" transform="translate(-11 -8.043)" fill="#fff"/>
  <path id="Path_238" data-name="Path 238" d="M65.06,4.25H24.026A1.025,1.025,0,0,0,23,5.276v5.471a1.026,1.026,0,1,0,2.052,0V6.3H64.034V56.91H60.273a1.026,1.026,0,0,0,0,2.052H65.06a1.026,1.026,0,0,0,1.026-1.026V5.276A1.026,1.026,0,0,0,65.06,4.25Z" transform="translate(-14.793 -4.25)" fill="#fff"/>
</svg>
