<svg id="_29464321586787195" data-name="29464321586787195" xmlns="http://www.w3.org/2000/svg" width="51.942" height="51.942" viewBox="0 0 51.942 51.942">
  <rect id="Rectangle_83" data-name="Rectangle 83" width="2.053" height="2.053" transform="translate(24.816 37.164)" fill="#fff"/>
  <rect id="Rectangle_84" data-name="Rectangle 84" width="2.053" height="2.053" transform="translate(21.736 37.164)" fill="#fff"/>
  <rect id="Rectangle_85" data-name="Rectangle 85" width="1.027" height="2.053" transform="translate(28.923 37.164)" fill="#fff"/>
  <rect id="Rectangle_86" data-name="Rectangle 86" width="1.027" height="2.053" transform="translate(5.309 3.283)" fill="#fff"/>
  <rect id="Rectangle_87" data-name="Rectangle 87" width="1.027" height="2.053" transform="translate(8.389 3.283)" fill="#fff"/>
  <rect id="Rectangle_88" data-name="Rectangle 88" width="1.027" height="2.053" transform="translate(11.469 3.283)" fill="#fff"/>
  <path id="Path_240" data-name="Path 240" d="M9.681,28.232h6.493a.812.812,0,0,1,0,1.623H13.739a2.435,2.435,0,1,0,0,4.87H25.913a.811.811,0,0,0,.575-.239c.209-.209,5.106-5.18,5.106-9.5,0-4.066-2.124-6.493-5.681-6.493s-5.681,2.427-5.681,6.493c0,2.995,2.352,6.3,3.865,8.116H13.739a.812.812,0,0,1,0-1.623h2.435a2.435,2.435,0,1,0,0-4.87H11.5c1.513-1.817,3.865-5.121,3.865-8.116,0-4.066-2.124-6.493-5.681-6.493S4,14.427,4,18.493c0,4.319,4.9,9.29,5.106,9.5A.811.811,0,0,0,9.681,28.232Zm16.232-8.116c2.617,0,4.058,1.73,4.058,4.87,0,2.859-2.817,6.339-4.058,7.734-1.241-1.4-4.058-4.874-4.058-7.734C21.855,21.845,23.3,20.116,25.913,20.116ZM9.681,13.623c2.617,0,4.058,1.729,4.058,4.87,0,2.859-2.817,6.339-4.058,7.734-1.241-1.394-4.058-4.874-4.058-7.734C5.623,15.353,7.064,13.623,9.681,13.623Z" transform="translate(-0.754 -2.261)" fill="#fff"/>
  <path id="Path_241" data-name="Path 241" d="M12.87,18.435a2.435,2.435,0,1,0-2.435,2.435A2.438,2.438,0,0,0,12.87,18.435Zm-3.246,0a.812.812,0,1,1,.812.812A.812.812,0,0,1,9.623,18.435Z" transform="translate(-1.507 -3.015)" fill="#fff"/>
  <path id="Path_242" data-name="Path 242" d="M32.87,26.435a2.435,2.435,0,1,0-2.435,2.435A2.438,2.438,0,0,0,32.87,26.435Zm-3.246,0a.812.812,0,1,1,.812.812A.812.812,0,0,1,29.623,26.435Z" transform="translate(-5.275 -4.522)" fill="#fff"/>
  <path id="Path_243" data-name="Path 243" d="M47.884,0H4.058A4.151,4.151,0,0,0,0,4.159V38.145A4.063,4.063,0,0,0,4.058,42.2H18.307l-1.826,4.87H11.362a.811.811,0,0,0-.812.812,4.063,4.063,0,0,0,4.058,4.058H37.333a4.063,4.063,0,0,0,4.058-4.058.811.811,0,0,0-.812-.812H35.461L33.635,42.2H47.884a4.063,4.063,0,0,0,4.058-4.058V4.159A4.151,4.151,0,0,0,47.884,0ZM4.058,1.623H47.884a2.527,2.527,0,0,1,2.435,2.536V6.493H3.246V8.116H50.319V34.087H1.623V4.159A2.527,2.527,0,0,1,4.058,1.623Zm33.275,48.7H14.609a2.439,2.439,0,0,1-2.3-1.623H39.629A2.439,2.439,0,0,1,37.333,50.319Zm-3.606-3.246H18.215l1.826-4.87H31.9ZM47.884,40.58H4.058a2.438,2.438,0,0,1-2.435-2.435V35.71h48.7v2.435A2.438,2.438,0,0,1,47.884,40.58Z" fill="#fff"/>
  <path id="Path_244" data-name="Path 244" d="M40.812,22.87h5.681a.811.811,0,0,0,.812-.812V18.812A.811.811,0,0,0,46.493,18H40.812a.811.811,0,0,0-.812.812v3.246A.811.811,0,0,0,40.812,22.87Zm.812-3.246h4.058v1.623H41.623Z" transform="translate(-7.536 -3.391)" fill="#fff"/>
  <path id="Path_245" data-name="Path 245" d="M51.812,22.87h5.681a.811.811,0,0,0,.812-.812V18.812A.811.811,0,0,0,57.493,18H51.812a.811.811,0,0,0-.812.812v3.246A.811.811,0,0,0,51.812,22.87Zm.812-3.246h4.058v1.623H52.623Z" transform="translate(-9.609 -3.391)" fill="#fff"/>
  <rect id="Rectangle_89" data-name="Rectangle 89" width="16.427" height="1.027" transform="translate(32.003 21.763)" fill="#fff"/>
  <rect id="Rectangle_90" data-name="Rectangle 90" width="16.427" height="1.027" transform="translate(32.003 24.844)" fill="#fff"/>
  <rect id="Rectangle_91" data-name="Rectangle 91" width="16.427" height="1.027" transform="translate(32.003 27.924)" fill="#fff"/>
  <rect id="Rectangle_92" data-name="Rectangle 92" width="3.08" height="2.053" transform="translate(32.003 10.47)" fill="#fff"/>
  <rect id="Rectangle_93" data-name="Rectangle 93" width="3.08" height="2.053" transform="translate(36.109 10.47)" fill="#fff"/>
  <rect id="Rectangle_94" data-name="Rectangle 94" width="7.187" height="2.053" transform="translate(41.243 10.47)" fill="#fff"/>
</svg>
