<svg id="_30-Copywriting" data-name="30-Copywriting" xmlns="http://www.w3.org/2000/svg" width="58.437" height="58.434" viewBox="0 0 58.437 58.434">
  <path id="Path_246" data-name="Path 246" d="M59.145,26.662a4.423,4.423,0,0,0-6.247,0l-8.047,8.047V10.765a.973.973,0,0,0-.285-.689L36.775,2.285A.974.974,0,0,0,36.086,2H4.922A2.925,2.925,0,0,0,2,4.922v52.59a2.925,2.925,0,0,0,2.922,2.922H41.93a2.925,2.925,0,0,0,2.922-2.922V47.2L59.145,32.909A4.422,4.422,0,0,0,59.145,26.662Zm-24.525,22,2.529,2.529L33.609,52.2Zm4.388,1.633L37.95,49.234l16.64-16.64,1.058,1.058Zm-2.434-2.435L35.515,46.8l16.64-16.64,1.058,1.058ZM37.06,5.325l4.466,4.466H38.034a.975.975,0,0,1-.974-.974ZM42.9,57.512a.975.975,0,0,1-.974.974H4.922a.975.975,0,0,1-.974-.974V4.922a.975.975,0,0,1,.974-.974H35.112V8.817a2.925,2.925,0,0,0,2.922,2.922H42.9V36.657L33.45,46.11a.968.968,0,0,0-.248.421l-1.948,6.817a.974.974,0,0,0,.936,1.241.993.993,0,0,0,.268-.037l6.817-1.948a.978.978,0,0,0,.421-.248L42.9,49.15Zm14.864-25.98-.743.743-3.492-3.492.743-.743a2.469,2.469,0,1,1,3.492,3.492ZM14.661,10.765a.974.974,0,0,1,.974-.974H30.243a.974.974,0,1,1,0,1.948H15.634a.974.974,0,0,1-.974-.974ZM7.843,22.452a.974.974,0,0,1,.974-.974H38.034a.974.974,0,0,1,0,1.948H8.817A.974.974,0,0,1,7.843,22.452ZM39.008,28.3a.974.974,0,0,1-.974.974H16.608a.974.974,0,0,1,0-1.948H38.034a.974.974,0,0,1,.974.974ZM7.843,34.138a.974.974,0,0,1,.974-.974H38.034a.974.974,0,0,1,0,1.948H8.817A.974.974,0,0,1,7.843,34.138Zm0,5.843a.974.974,0,0,1,.974-.974h17.53a.974.974,0,1,1,0,1.948H8.817a.974.974,0,0,1-.974-.974Zm26.3.974h-3.9a.974.974,0,1,1,0-1.948h3.9a.974.974,0,1,1,0,1.948Zm-4.869,4.869a.974.974,0,0,1-.974.974H8.817a.974.974,0,1,1,0-1.948H28.3a.974.974,0,0,1,.974.974Zm-1.948,5.843a.974.974,0,0,1-.974.974H16.608a.974.974,0,0,1,0-1.948h9.739a.974.974,0,0,1,.974.974Zm-13.634,0a.974.974,0,0,1-.974.974h-3.9a.974.974,0,0,1,0-1.948h3.9A.974.974,0,0,1,13.687,51.669ZM7.843,28.3a.974.974,0,0,1,.974-.974h3.9a.974.974,0,0,1,0,1.948h-3.9a.974.974,0,0,1-.974-.974Zm0-11.687a.974.974,0,0,1,.974-.974H30.243a.974.974,0,0,1,0,1.948H8.817A.974.974,0,0,1,7.843,16.608Zm25.321,0a.974.974,0,0,1,.974-.974h3.9a.974.974,0,0,1,0,1.948h-3.9a.974.974,0,0,1-.974-.974Z" transform="translate(-2 -2)" fill="#fff"/>
</svg>
