<svg id="Group_232" data-name="Group 232" xmlns="http://www.w3.org/2000/svg" width="35" height="35" viewBox="0 0 35 35">
  <circle id="Ellipse_71" data-name="Ellipse 71" cx="17.5" cy="17.5" r="17.5" transform="translate(0 0)" fill="#fff"/>
  <path id="Icon_zocial-call" data-name="Icon zocial-call" d="M3.3,6.417a1.3,1.3,0,0,1,.331-.707l2.65-2.65q.309-.265.464.088L8.891,7.167a.578.578,0,0,1-.11.684l-.972.972a1.1,1.1,0,0,0-.309.684,3.371,3.371,0,0,0,.684,1.7,14.519,14.519,0,0,0,1.347,1.767l.684.706c.206.206.471.46.8.762a13.33,13.33,0,0,0,1.6,1.192,3.582,3.582,0,0,0,1.755.74.961.961,0,0,0,.707-.287l1.149-1.148a.485.485,0,0,1,.662-.088l3.865,2.274a.323.323,0,0,1,.177.232.282.282,0,0,1-.088.254l-2.65,2.65a1.3,1.3,0,0,1-.706.331,5.342,5.342,0,0,1-2.441-.3,11.042,11.042,0,0,1-2.516-1.2q-1.159-.75-2.153-1.523t-1.59-1.325l-.574-.553q-.22-.22-.585-.607T6.351,13.56a22.176,22.176,0,0,1-1.568-2.219A12.945,12.945,0,0,1,3.636,8.879,5.237,5.237,0,0,1,3.3,6.417Z" transform="translate(5.402 5.711)" fill="#81007f"/>
</svg>
