<svg xmlns="http://www.w3.org/2000/svg" xmlns:xlink="http://www.w3.org/1999/xlink" width="645" height="458.719" viewBox="0 0 645 458.719">
  <defs>
    <clipPath id="clip-path">
      <rect id="Rectangle_98" data-name="Rectangle 98" width="403.74" height="305.231"/>
    </clipPath>
  </defs>
  <g id="about_us" data-name="about us" transform="translate(0)">
    <g id="BACKGROUND" transform="translate(0)">
      <path id="Path_357" data-name="Path 357" d="M0,0H645V458.719H0Z" fill="#fff"/>
    </g>
    <g id="OBJECTS" transform="translate(47.835 34.679)">
      <g id="Group_39" data-name="Group 39">
        <g id="Group_27" data-name="Group 27" transform="translate(0 83.12)">
          <g id="Group_11" data-name="Group 11" transform="translate(61.92)">
            <g id="Group_10" data-name="Group 10">
              <line id="Line_1" data-name="Line 1" x2="422.92" transform="translate(0 30)" fill="none" stroke="#ded8d5" stroke-miterlimit="10" stroke-width="1.968"/>
              <path id="Path_247" data-name="Path 247" d="M541.514,411.888H129.606a5.737,5.737,0,0,1-5.506-5.963V134.363a5.737,5.737,0,0,1,5.506-5.963H541.514a5.737,5.737,0,0,1,5.506,5.963v271.47A5.821,5.821,0,0,1,541.514,411.888Z" transform="translate(-124.1 -128.4)" fill="none" stroke="#ded8d5" stroke-miterlimit="10" stroke-width="1.968"/>
              <g id="Group_9" data-name="Group 9" transform="translate(20.994 11.101)">
                <path id="Path_248" data-name="Path 248" d="M155.95,144.72a4.077,4.077,0,1,1-4.075-4.22A4.2,4.2,0,0,1,155.95,144.72Z" transform="translate(-147.8 -140.5)" fill="#ffb1a5"/>
                <path id="Path_249" data-name="Path 249" d="M173.65,144.72a4.077,4.077,0,1,1-4.075-4.22A4.139,4.139,0,0,1,173.65,144.72Z" transform="translate(-149.821 -140.5)" fill="#ead254"/>
                <path id="Path_250" data-name="Path 250" d="M191.45,144.72a4.139,4.139,0,0,1-4.075,4.22,4.083,4.083,0,0,1-4.075-4.22,4.077,4.077,0,1,1,8.15,0Z" transform="translate(-151.853 -140.5)" fill="#00857b"/>
              </g>
            </g>
          </g>
          <g id="Group_20" data-name="Group 20" transform="translate(433.019 20.642)">
            <g id="Group_14" data-name="Group 14">
              <g id="Group_13" data-name="Group 13">
                <g id="Group_12" data-name="Group 12">
                  <path id="Path_251" data-name="Path 251" d="M674.213,261.451h-104a5.428,5.428,0,0,1-5.315-5.5V156.4a5.428,5.428,0,0,1,5.315-5.5h104a5.428,5.428,0,0,1,5.315,5.5v99.542A5.428,5.428,0,0,1,674.213,261.451Z" transform="translate(-564.9 -150.9)" fill="#ededed"/>
                  <path id="Path_252" data-name="Path 252" d="M674.213,261.451h-104a5.428,5.428,0,0,1-5.315-5.5V156.4a5.428,5.428,0,0,1,5.315-5.5h104a5.428,5.428,0,0,1,5.315,5.5v99.542A5.428,5.428,0,0,1,674.213,261.451Z" transform="translate(-564.9 -150.9)" fill="none" stroke="#ded8d5" stroke-miterlimit="10" stroke-width="1.968"/>
                </g>
              </g>
            </g>
            <g id="Group_19" data-name="Group 19" transform="translate(25.158 24.863)">
              <g id="Group_17" data-name="Group 17">
                <g id="Group_16" data-name="Group 16">
                  <g id="Group_15" data-name="Group 15">
                    <path id="Path_253" data-name="Path 253" d="M598.615,234.881h54.036a5.428,5.428,0,0,0,5.315-5.5V183.5a5.428,5.428,0,0,0-5.315-5.5H598.615a5.428,5.428,0,0,0-5.315,5.5v45.872A5.428,5.428,0,0,0,598.615,234.881Z" transform="translate(-593.3 -178)" fill="#c98bd2"/>
                  </g>
                </g>
              </g>
              <g id="Group_18" data-name="Group 18" transform="translate(17.274 17.156)">
                <path id="Path_254" data-name="Path 254" d="M642.653,217.434H612.8V196.7h29.853v20.734Z" transform="translate(-612.8 -196.7)" fill="none" stroke="#fff" stroke-linecap="round" stroke-linejoin="round" stroke-miterlimit="10" stroke-width="1.647"/>
                <path id="Path_255" data-name="Path 255" d="M612.8,196.7l14.882,12.2,14.971-12.2" transform="translate(-612.8 -196.7)" fill="none" stroke="#fff" stroke-linecap="round" stroke-linejoin="round" stroke-miterlimit="10" stroke-width="1.647"/>
              </g>
            </g>
          </g>
          <g id="Group_26" data-name="Group 26" transform="translate(0 114.588)">
            <g id="Group_23" data-name="Group 23">
              <g id="Group_22" data-name="Group 22">
                <g id="Group_21" data-name="Group 21">
                  <path id="Path_256" data-name="Path 256" d="M158.375,353.3H59.249a5.14,5.14,0,0,1-5.049-5.229V258.529a5.139,5.139,0,0,1,5.049-5.229h99.125a5.14,5.14,0,0,1,5.049,5.229v89.542A5.083,5.083,0,0,1,158.375,353.3Z" transform="translate(-54.2 -253.3)" fill="#ededed"/>
                  <path id="Path_257" data-name="Path 257" d="M158.375,353.3H59.249a5.14,5.14,0,0,1-5.049-5.229V258.529a5.139,5.139,0,0,1,5.049-5.229h99.125a5.14,5.14,0,0,1,5.049,5.229v89.542A5.083,5.083,0,0,1,158.375,353.3Z" transform="translate(-54.2 -253.3)" fill="none" stroke="#ded8d5" stroke-miterlimit="10" stroke-width="1.968"/>
                </g>
              </g>
            </g>
            <g id="Group_25" data-name="Group 25" transform="translate(22.855 17.156)">
              <path id="Path_258" data-name="Path 258" d="M137.225,335.578H85.847A5.948,5.948,0,0,1,80,329.523V278.055A5.947,5.947,0,0,1,85.847,272h51.379a5.948,5.948,0,0,1,5.847,6.055v51.468A5.892,5.892,0,0,1,137.225,335.578Z" transform="translate(-80 -272)" fill="#ffb1a5"/>
              <g id="Group_24" data-name="Group 24" transform="translate(14.129 13.899)">
                <path id="Path_259" data-name="Path 259" d="M101.132,292.517a19.082,19.082,0,0,0,0,26.147,17.528,17.528,0,0,0,25.246,0,19.082,19.082,0,0,0,0-26.147A17.528,17.528,0,0,0,101.132,292.517Zm25.158,2.661h-5.669a40.857,40.857,0,0,0-2.215-5.6A16.033,16.033,0,0,1,126.29,295.178Zm-19.134,9.358a28.276,28.276,0,0,1,.886-7.156h11.427a32.954,32.954,0,0,1,.886,7.156Zm13.022,2.11a33.669,33.669,0,0,1-1.24,7.156H108.4a40.367,40.367,0,0,1-1.24-7.156Zm-6.467-17.707a21.041,21.041,0,0,1,2.48.184,35.431,35.431,0,0,1,2.569,6.055H108.573a35.43,35.43,0,0,1,2.569-6.055A12.533,12.533,0,0,1,113.711,288.939Zm-4.695.642a33.31,33.31,0,0,0-2.215,5.6h-5.669A16.866,16.866,0,0,1,109.016,289.581Zm-9.3,7.8h6.555a32.954,32.954,0,0,0-.886,7.156H97.677A15.941,15.941,0,0,1,99.715,297.379Zm0,16.514a16.286,16.286,0,0,1-2.037-7.156h7.707a33.279,33.279,0,0,0,1.063,7.156Zm1.417,2.11h5.935a48.9,48.9,0,0,0,2.215,5.6A15.632,15.632,0,0,1,101.132,316Zm12.579,6.239a16.614,16.614,0,0,1-2.126-.184,44.623,44.623,0,0,1-2.48-6.147h9.213a59.464,59.464,0,0,1-2.48,6.147A8.336,8.336,0,0,1,113.711,322.242Zm4.518-.642a48.9,48.9,0,0,0,2.215-5.6h5.935A16.362,16.362,0,0,1,118.229,321.6Zm9.478-7.707h-6.732a33.281,33.281,0,0,0,1.063-7.156h7.707A15.5,15.5,0,0,1,127.707,313.893Zm2.126-9.358h-7.707a32.954,32.954,0,0,0-.886-7.156H127.8A17.154,17.154,0,0,1,129.833,304.535Z" transform="translate(-95.95 -287.15)" fill="#fff"/>
              </g>
            </g>
          </g>
        </g>
        <g id="Group_38" data-name="Group 38" transform="translate(5.138)">
          <path id="Path_260" data-name="Path 260" d="M153.19,99.273H63.366A3.426,3.426,0,0,1,60,95.786h0A3.426,3.426,0,0,1,63.366,92.3H153.19a3.426,3.426,0,0,1,3.366,3.486h0A3.426,3.426,0,0,1,153.19,99.273Z" transform="translate(-60 -42.3)" fill="#c98bd2"/>
          <path id="Path_261" data-name="Path 261" d="M686.35,346.973H642.766a3.426,3.426,0,0,1-3.366-3.486h0A3.426,3.426,0,0,1,642.766,340H686.35a3.426,3.426,0,0,1,3.366,3.486h0A3.426,3.426,0,0,1,686.35,346.973Z" transform="translate(-145.524 -62.75)" fill="#56dfed"/>
          <path id="Path_262" data-name="Path 262" d="M656.984,390.459h-5.315A2.618,2.618,0,0,1,649.1,387.8v-5.138A2.618,2.618,0,0,1,651.669,380h5.315a2.618,2.618,0,0,1,2.569,2.661V387.8A2.616,2.616,0,0,1,656.984,390.459Z" transform="translate(-146.632 -66.053)" fill="#c98bd2"/>
          <path id="Path_263" data-name="Path 263" d="M86.884,416.759H81.569A2.618,2.618,0,0,1,79,414.1v-5.138a2.618,2.618,0,0,1,2.569-2.661h5.315a2.618,2.618,0,0,1,2.569,2.661V414.1A2.618,2.618,0,0,1,86.884,416.759Z" transform="translate(-62.169 -68.224)" fill="#ffb1a5"/>
          <g id="Group_30" data-name="Group 30" transform="translate(327.058 25.413)">
            <g id="Group_29" data-name="Group 29">
              <path id="Path_264" data-name="Path 264" d="M536.43,93.482H447.758A2.658,2.658,0,0,1,445.1,90.73V68.252a2.658,2.658,0,0,1,2.658-2.752H536.43a2.658,2.658,0,0,1,2.658,2.752V90.73A2.714,2.714,0,0,1,536.43,93.482Z" transform="translate(-445.1 -65.5)" fill="#ffb1a5"/>
              <g id="Group_28" data-name="Group 28" transform="translate(12.845 10)">
                <line id="Line_2" data-name="Line 2" x2="62.983" fill="none" stroke="#fff" stroke-miterlimit="10" stroke-width="1.18"/>
                <line id="Line_3" data-name="Line 3" x2="25.601" transform="translate(0 6.697)" fill="none" stroke="#fff" stroke-miterlimit="10" stroke-width="1.18"/>
              </g>
            </g>
            <path id="Path_265" data-name="Path 265" d="M456.7,92.5v10.918L469.9,92.5Z" transform="translate(-446.424 -67.729)" fill="#ffb1a5"/>
          </g>
          <g id="Group_37" data-name="Group 37" transform="translate(157.961)">
            <g id="Group_35" data-name="Group 35">
              <g id="Group_34" data-name="Group 34">
                <g id="Group_33" data-name="Group 33">
                  <g id="Group_32" data-name="Group 32">
                    <g id="Group_31" data-name="Group 31">
                      <path id="Path_266" data-name="Path 266" d="M295.8,92.846H252.93a7.661,7.661,0,0,1-7.53-7.8V43.763a5.852,5.852,0,0,1,5.758-5.963h44.735a5.852,5.852,0,0,1,5.758,5.963V86.975A5.965,5.965,0,0,1,295.8,92.846Z" transform="translate(-245.4 -37.8)" fill="#56dfed"/>
                    </g>
                  </g>
                </g>
              </g>
            </g>
            <g id="Group_36" data-name="Group 36" transform="translate(16.022 12.294)">
              <path id="Path_267" data-name="Path 267" d="M288.656,70.466l-3.189-3.3a2.753,2.753,0,0,0-2.037-1.009,3,3,0,0,0-2.037.917L279.532,69c-.089-.092-.266-.092-.354-.183a1.426,1.426,0,0,1-.532-.275,19.953,19.953,0,0,1-4.784-4.5,11.517,11.517,0,0,1-1.506-2.385l1.24-1.284.531-.55a3.132,3.132,0,0,0,.974-2.2,3.3,3.3,0,0,0-.974-2.2l-1.594-1.651-.532-.55-1.063-1.1A3,3,0,0,0,268.9,51.2a2.783,2.783,0,0,0-2.037.917l-2.037,2.11a4.726,4.726,0,0,0-1.329,2.936,12.834,12.834,0,0,0,.709,4.5,22.759,22.759,0,0,0,4.429,7.706,28.948,28.948,0,0,0,9.124,7.431,14.94,14.94,0,0,0,5.138,1.56h.443A4.693,4.693,0,0,0,286.8,76.8l.089-.092a6.126,6.126,0,0,1,1.063-1.1l.709-.734A3.238,3.238,0,0,0,288.656,70.466Zm-1.329,3.119-.709.734a14.382,14.382,0,0,0-1.152,1.193,2.838,2.838,0,0,1-2.037.917h-.266a12.1,12.1,0,0,1-4.429-1.376,25.93,25.93,0,0,1-8.5-6.881,24.98,24.98,0,0,1-4.163-7.156,8.419,8.419,0,0,1-.709-3.67,2.646,2.646,0,0,1,.8-1.743l1.949-2.018a1.184,1.184,0,0,1,.8-.459c.354,0,.532.183.8.459l1.063,1.1c.177.183.354.459.531.55l1.595,1.651a1.5,1.5,0,0,1,.443.826,1.246,1.246,0,0,1-.443.826l-.531.55-1.417,1.468-.089.092a1.433,1.433,0,0,0-.354,1.468v-.092a17.612,17.612,0,0,0,1.86,3.211,20.642,20.642,0,0,0,5.226,4.954,4.924,4.924,0,0,1,.709.459,1.426,1.426,0,0,1,.531.275l.089.092a1.32,1.32,0,0,0,1.594-.275l2.037-2.11a1.184,1.184,0,0,1,.8-.459c.266,0,.532.275.709.459l3.189,3.3C287.859,72.393,287.859,72.943,287.328,73.585Z" transform="translate(-263.487 -51.2)" fill="#fff"/>
            </g>
          </g>
        </g>
      </g>
      <g id="Group_99" data-name="Group 99" transform="translate(66.438 84.221)">
        <g id="Group_98" data-name="Group 98" clip-path="url(#clip-path)">
          <g id="Group_60" data-name="Group 60" transform="translate(228.812 15.392)">
            <g id="Group_40" data-name="Group 40" transform="translate(4.932 182.958)">
              <path id="Path_268" data-name="Path 268" d="M462.875,350.3l-32.085-4.5.264,3.3-27.426,3.853s-17.669,46.331-2.11,148.166h22.327l8-103.212h2.813l7.736,103.212h22.327C480.367,399.287,462.875,350.3,462.875,350.3Z" transform="translate(-395.111 -345.8)" fill="#8e716c"/>
              <line id="Line_4" data-name="Line 4" x2="23.294" transform="translate(26.537 52.11)" fill="none" stroke="#282828" stroke-linecap="round" stroke-linejoin="round" stroke-miterlimit="10" stroke-width="1.233"/>
            </g>
            <g id="Group_49" data-name="Group 49" transform="translate(0 93.141)">
              <g id="Group_46" data-name="Group 46" transform="translate(71.188 27.889)">
                <g id="Group_42" data-name="Group 42" transform="translate(0 13.114)">
                  <g id="Group_41" data-name="Group 41">
                    <path id="Path_269" data-name="Path 269" d="M490.716,297.095c-2.725-4.587-18.2-4.4-18.987-4.5-4.132-.55,2.637,34.129,11.339,64.4a9.6,9.6,0,0,0,13.1,6.422c.088,0,.088-.092.176-.092a10.34,10.34,0,0,0,5.8-11.284C498.012,329.205,493.88,302.324,490.716,297.095Z" transform="translate(-470.485 -292.593)" fill="#ffb1a5"/>
                  </g>
                  <path id="Path_270" data-name="Path 270" d="M494.736,310.464l-19.69,7.982-1.846-9.725,20.394-5.321Z" transform="translate(-470.813 -293.485)" fill="#f3978e"/>
                  <path id="Path_271" data-name="Path 271" d="M500.676,331.624s-9.318,13.028-8.878,12.477c.44-.642,7.3-21.1,7.3-21.1Z" transform="translate(-473.061 -295.103)" fill="#f3978e"/>
                </g>
                <g id="Group_45" data-name="Group 45" transform="translate(12.208)">
                  <path id="Path_272" data-name="Path 272" d="M513.141,313.2l-26.723,36.147a10.5,10.5,0,0,0,2.461,14.863h0a9.531,9.531,0,0,0,13.977-3.762L525.1,317.6Z" transform="translate(-484.373 -281.181)" fill="#ffb1a5"/>
                  <g id="Group_43" data-name="Group 43" transform="translate(28.066 16.789)">
                    <path id="Path_273" data-name="Path 273" d="M523.948,321.377a11.637,11.637,0,0,1-7.12-14.5,10.957,10.957,0,0,1,13.889-7.431,11.637,11.637,0,0,1,7.12,14.5A10.992,10.992,0,0,1,523.948,321.377Z" transform="translate(-516.302 -296.79)" fill="#ffb1a5"/>
                    <path id="Path_274" data-name="Path 274" d="M535.448,303.3s2.989-3.3-2.373-5.6-11.955-1.743-16.174,8.9Z" transform="translate(-516.374 -296.6)" fill="#ffb1a5"/>
                  </g>
                  <g id="Group_44" data-name="Group 44" transform="translate(34.94)">
                    <path id="Path_275" data-name="Path 275" d="M542,278.991l11.164,5.046a1.24,1.24,0,0,1,.527,1.743L538.927,314.5a1.452,1.452,0,0,1-1.758.734l-11.164-5.046a1.24,1.24,0,0,1-.527-1.743l14.768-28.716A1.362,1.362,0,0,1,542,278.991Z" transform="translate(-524.266 -278.348)" fill="#372f5f"/>
                    <path id="Path_276" data-name="Path 276" d="M540.8,278.392l11.164,5.046a1.24,1.24,0,0,1,.527,1.743L537.728,313.9a1.452,1.452,0,0,1-1.758.734l-11.164-5.046a1.24,1.24,0,0,1-.527-1.743l14.768-28.716A1.452,1.452,0,0,1,540.8,278.392Z" transform="translate(-524.121 -278.299)" fill="#261b43"/>
                    <path id="Path_277" data-name="Path 277" d="M539.955,281.6l9.845,4.5L537.845,309.49l-9.845-4.5Z" transform="translate(-524.59 -278.572)" fill="#e6e6e6"/>
                    <path id="Path_278" data-name="Path 278" d="M549.8,286.1l-21.8,18.9L539.955,281.6Z" transform="translate(-524.59 -278.572)" fill="#fff"/>
                  </g>
                  <path id="Path_279" data-name="Path 279" d="M530.466,296.8a19.8,19.8,0,0,1,4.747,1.835,2.7,2.7,0,0,1,1.231,2.936h0a2.474,2.474,0,0,1-2.11,1.927l-5.8.734s-3.077,5.5-7.032,6.055l3.6-9.633Z" transform="translate(-488.864 -279.827)" fill="#ffb1a5"/>
                </g>
              </g>
              <g id="Group_48" data-name="Group 48">
                <g id="Group_47" data-name="Group 47">
                  <path id="Path_280" data-name="Path 280" d="M440.132,247.9c-.615,0,41.227,6.055,48.171,55.964l-21.712,3.486-4.4,37.615H401.543L389.5,275.423s13.449-20.092,38.414-27.523h12.219Z" transform="translate(-389.5 -247.9)" fill="#56dfed"/>
                  <line id="Line_5" data-name="Line 5" y1="21.743" x2="1.846" transform="translate(77.091 37.615)" fill="none" stroke="#282828" stroke-linecap="round" stroke-linejoin="round" stroke-miterlimit="10" stroke-width="1.233"/>
                </g>
              </g>
            </g>
            <g id="Group_59" data-name="Group 59" transform="translate(18.896 0)">
              <path id="Path_281" data-name="Path 281" d="M448.213,247.04V229.7H428.786v17.523a32.068,32.068,0,0,0-5.186,2.2l15.207,9.45,15.471-9.45A30.533,30.533,0,0,0,448.213,247.04Z" transform="translate(-412.521 -153.257)" fill="#ffb1a5"/>
              <path id="Path_282" data-name="Path 282" d="M429.3,231.613s3.516,9.725,12.834,8.807c8.527-.734,7.208-14.22,7.208-14.22Z" transform="translate(-413.21 -152.968)" fill="#282828"/>
              <g id="Group_52" data-name="Group 52" transform="translate(0 53.602)">
                <path id="Path_283" data-name="Path 283" d="M418.647,216.91c-3.077,2.844-9.845-8.073-6.944-11.1,2.989-3.028,5.186,1.743,5.186,1.743l1.319,3.3.967,4.4.264,1.193Z" transform="translate(-410.996 -204.803)" fill="#f3978e"/>
                <g id="Group_51" data-name="Group 51" transform="translate(2.113 4.694)">
                  <g id="Group_50" data-name="Group 50">
                    <path id="Path_284" data-name="Path 284" d="M413.4,210.085s2.285-1.1,4.4,2.385" transform="translate(-413.4 -209.92)" fill="none" stroke="#282828" stroke-linecap="round" stroke-linejoin="round" stroke-miterlimit="10" stroke-width="0.993"/>
                  </g>
                </g>
              </g>
              <g id="Group_55" data-name="Group 55" transform="translate(42.988 53.78)">
                <path id="Path_285" data-name="Path 285" d="M460.6,216.651c2.813,3.119,10.461-7.156,7.823-10.459-2.725-3.3-5.274,1.284-5.274,1.284L461.57,210.6l-1.319,4.312-.352,1.1Z" transform="translate(-459.9 -204.997)" fill="#f3978e"/>
                <g id="Group_54" data-name="Group 54" transform="translate(2.198 4.62)">
                  <g id="Group_53" data-name="Group 53">
                    <path id="Path_286" data-name="Path 286" d="M466.971,210.278s-2.2-1.284-4.571,2.018" transform="translate(-462.4 -210.032)" fill="none" stroke="#282828" stroke-linecap="round" stroke-linejoin="round" stroke-miterlimit="10" stroke-width="0.993"/>
                  </g>
                </g>
              </g>
              <g id="Group_56" data-name="Group 56" transform="translate(2.289 19.838)">
                <path id="Path_287" data-name="Path 287" d="M413.6,192.312c0,14.5,10.548,21.376,23.646,21.376s23.646-6.881,23.646-21.376S450.344,168,437.246,168,413.6,177.817,413.6,192.312Z" transform="translate(-413.6 -168)" fill="#282828"/>
              </g>
              <path id="Path_288" data-name="Path 288" d="M417.2,193.618a107.184,107.184,0,0,0,2.373,22.018c1.143,5.321,4.483,9.083,9.142,12.018l.879.55a15.454,15.454,0,0,0,16.35.184h0c5.1-3.119,8.615-7.156,9.757-12.844a144.565,144.565,0,0,0,2.2-21.927s1.934-22.477-20.042-22.018S417.2,193.618,417.2,193.618Z" transform="translate(-411.744 -148.459)" fill="#ffb1a5"/>
              <g id="Group_58" data-name="Group 58" transform="translate(4.839 43.706)">
                <path id="Path_289" data-name="Path 289" d="M438.9,209.6v3.119a1.209,1.209,0,0,0,.088.55,1.3,1.3,0,0,0,1.582.734l1.406-.367" transform="translate(-419.21 -195.303)" fill="none" stroke="#282828" stroke-linecap="round" stroke-linejoin="round" stroke-miterlimit="10" stroke-width="1.232"/>
                <path id="Path_290" data-name="Path 290" d="M433.4,196.261l-10.9,2.661s.527-2.936,4.923-3.945C431.906,193.968,433.4,196.261,433.4,196.261Z" transform="translate(-417.226 -194.074)" fill="#282828"/>
                <path id="Path_291" data-name="Path 291" d="M445.9,196.261l10.548,2.661s-.44-2.936-4.747-3.945S445.9,196.261,445.9,196.261Z" transform="translate(-420.057 -194.074)" fill="#282828"/>
                <ellipse id="Ellipse_37" data-name="Ellipse 37" cx="1.846" cy="1.927" rx="1.846" ry="1.927" transform="translate(10.196 8.701)" fill="#282828"/>
                <path id="Path_292" data-name="Path 292" d="M451.592,205.427a1.848,1.848,0,1,1-1.846-1.927A1.843,1.843,0,0,1,451.592,205.427Z" transform="translate(-420.299 -194.799)" fill="#282828"/>
                <path id="Path_293" data-name="Path 293" d="M432.3,218.3h14.152S440.211,226.282,432.3,218.3Z" transform="translate(-418.412 -196.021)" fill="#fff"/>
                <g id="Group_57" data-name="Group 57" transform="translate(0 0)">
                  <path id="Path_1445" data-name="Path 1445" d="M8.135-.03a7.594,7.594,0,0,1,7.823,7.823,8.42,8.42,0,0,1-8.165,8.165A7.594,7.594,0,0,1-.03,8.135,8.42,8.42,0,0,1,8.135-.03Z" transform="translate(0 11.366) rotate(-45)" fill="none" stroke="#c98bd2" stroke-width="1.342"/>
                  <path id="Path_1446" data-name="Path 1446" d="M8.135-.03a7.594,7.594,0,0,1,7.823,7.823,8.42,8.42,0,0,1-8.165,8.165A7.594,7.594,0,0,1-.03,8.135,8.42,8.42,0,0,1,8.135-.03Z" transform="translate(19.244 11.35) rotate(-45)" fill="none" stroke="#c98bd2" stroke-width="1.342"/>
                  <path id="Path_294" data-name="Path 294" d="M438.2,206.327a2.477,2.477,0,0,1,3.6,0" transform="translate(-419.125 -194.965)" fill="none" stroke="#c98bd2" stroke-miterlimit="10" stroke-width="1.342"/>
                  <line id="Line_6" data-name="Line 6" x1="2.461" y1="0.092" transform="translate(0.967 11.27)" fill="none" stroke="#c98bd2" stroke-miterlimit="10" stroke-width="1.342"/>
                  <line id="Line_7" data-name="Line 7" y1="0.092" x2="2.461" transform="translate(38.325 11.27)" fill="none" stroke="#c98bd2" stroke-miterlimit="10" stroke-width="1.342"/>
                </g>
              </g>
              <path id="Path_295" data-name="Path 295" d="M462.227,201.454s-8.79-12.385-6.769-24.954a17.8,17.8,0,0,1,8.175,12.294C465.391,197.6,462.227,201.454,462.227,201.454Z" transform="translate(-416.338 -148.864)" fill="#282828"/>
              <path id="Path_296" data-name="Path 296" d="M417.031,202.206s10.2-14.037,8.175-26.606a20.928,20.928,0,0,0-8.79,13.119C414.746,197.527,417.031,202.206,417.031,202.206Z" transform="translate(-411.578 -148.79)" fill="#282828"/>
              <path id="Path_297" data-name="Path 297" d="M456.606,180.967s-11.252,12.844-42.106,10.642c0,0,4.747-18.9,19.69-20.918C434.19,170.783,451.419,168.581,456.606,180.967Z" transform="translate(-411.42 -148.377)" fill="#282828"/>
              <path id="Path_1447" data-name="Path 1447" d="M15.48-.018c8.5-.056,15.351,6.518,15.3,14.683s-6.995,14.83-15.5,14.886S-.074,23.032-.018,14.867,6.977.038,15.48-.018Z" transform="translate(27.373 30.405) rotate(-80.828)" fill="#282828"/>
            </g>
          </g>
          <g id="Group_74" data-name="Group 74" transform="translate(23.315 32.569)">
            <path id="Path_298" data-name="Path 298" d="M247.694,350.056,220.268,346.2l.264-3.3-32.085,4.5s-17.493,48.991-1.934,150.827H208.84l7.736-103.212h2.813l8,103.212h22.327C265.362,396.387,247.694,350.056,247.694,350.056Z" transform="translate(-158.668 -179.78)" fill="#282828"/>
            <g id="Group_69" data-name="Group 69" transform="translate(15.956)">
              <path id="Path_299" data-name="Path 299" d="M244.747,196.16a54.979,54.979,0,0,1-9.23-17.34c-2.725-7.982-11.6-4.771-11.6-4.771s-7.384-9.908-18.548-6.514c-11.164,3.486-15.031,11.743-15.207,21.56-.264,9.817-7.648,11.376-13.361,22.752-10.109,20.092,6.856,36.973,37.8,32.294v-.275a30.434,30.434,0,0,0,11.34,1.1C263.031,242.766,259.427,214.234,244.747,196.16Z" transform="translate(-173.875 -165.243)" fill="#282828"/>
              <g id="Group_63" data-name="Group 63" transform="translate(57.95 33.765)">
                <path id="Path_300" data-name="Path 300" d="M240.591,214.01c3.077,2.844,9.845-8.073,6.944-11.1s-5.186,1.743-5.186,1.743l-1.319,3.3-.967,4.4-.264,1.193Z" transform="translate(-239.8 -201.903)" fill="#f3978e"/>
                <g id="Group_62" data-name="Group 62" transform="translate(1.846 4.694)">
                  <g id="Group_61" data-name="Group 61">
                    <path id="Path_301" data-name="Path 301" d="M246.3,207.185s-2.285-1.1-4.4,2.385" transform="translate(-241.9 -207.02)" fill="none" stroke="#282828" stroke-linecap="round" stroke-linejoin="round" stroke-miterlimit="10" stroke-width="0.993"/>
                  </g>
                </g>
              </g>
              <g id="Group_66" data-name="Group 66" transform="translate(14.245 33.85)">
                <path id="Path_302" data-name="Path 302" d="M198.448,213.651c-2.813,3.119-10.46-7.156-7.823-10.459,2.725-3.3,5.274,1.284,5.274,1.284l1.582,3.119,1.319,4.312.352,1.1Z" transform="translate(-190.08 -201.997)" fill="#f3978e"/>
                <g id="Group_65" data-name="Group 65" transform="translate(2.303 4.711)">
                  <g id="Group_64" data-name="Group 64">
                    <path id="Path_303" data-name="Path 303" d="M192.7,207.378s2.2-1.284,4.571,2.018" transform="translate(-192.7 -207.132)" fill="none" stroke="#282828" stroke-linecap="round" stroke-linejoin="round" stroke-miterlimit="10" stroke-width="0.993"/>
                  </g>
                </g>
              </g>
              <g id="Group_67" data-name="Group 67" transform="translate(16.723)">
                <path id="Path_304" data-name="Path 304" d="M240.192,189.412c0,14.5-10.548,21.376-23.646,21.376S192.9,203.908,192.9,189.412,203.448,165.1,216.546,165.1,240.192,174.917,240.192,189.412Z" transform="translate(-192.9 -165.1)" fill="#282828"/>
              </g>
              <rect id="Rectangle_96" data-name="Rectangle 96" width="19.427" height="26.33" transform="translate(30.612 56.606)" fill="#ffb1a5"/>
              <path id="Path_305" data-name="Path 305" d="M205.4,225s5.45,11.284,12.043,13.028a8.926,8.926,0,0,0,5.362-.367c2.549-.917,5.714-4.862,6.241-9.174l.264-2.477A23.51,23.51,0,0,1,205.4,225Z" transform="translate(-177.689 -170.046)" fill="#282828"/>
              <path id="Path_306" data-name="Path 306" d="M237.493,190.718a107.185,107.185,0,0,1-2.373,22.019c-1.143,5.321-4.483,9.083-9.142,12.018l-.879.55a15.454,15.454,0,0,1-16.35.183h0c-5.1-3.119-8.615-7.156-9.757-12.844a144.562,144.562,0,0,1-2.2-21.927s-1.934-22.477,20.042-22.019S237.493,190.718,237.493,190.718Z" transform="translate(-176.643 -165.397)" fill="#ffb1a5"/>
              <g id="Group_68" data-name="Group 68" transform="translate(25.514 25.414)">
                <path id="Path_307" data-name="Path 307" d="M218.2,207.9v1.835a1.209,1.209,0,0,0,.088.55,1.3,1.3,0,0,0,1.582.734l1.406-.367" transform="translate(-204.751 -194.048)" fill="none" stroke="#282828" stroke-linecap="round" stroke-linejoin="round" stroke-miterlimit="10" stroke-width="1.23"/>
                <path id="Path_308" data-name="Path 308" d="M223.4,194.543l11.691,2.844s-.527-3.119-5.274-4.312C224.982,191.974,223.4,194.543,223.4,194.543Z" transform="translate(-205.38 -192.801)" fill="#282828"/>
                <path id="Path_309" data-name="Path 309" d="M214.767,194.543,202.9,197.387s.527-3.119,5.362-4.312C213.185,191.974,214.767,194.543,214.767,194.543Z" transform="translate(-202.9 -192.801)" fill="#282828"/>
                <path id="Path_310" data-name="Path 310" d="M211.092,202.727a1.9,1.9,0,0,1-1.846,1.927,1.843,1.843,0,0,1-1.846-1.927,1.9,1.9,0,0,1,1.846-1.927A1.961,1.961,0,0,1,211.092,202.727Z" transform="translate(-203.444 -193.461)" fill="#282828"/>
                <path id="Path_311" data-name="Path 311" d="M230.892,202.727a1.9,1.9,0,0,1-1.846,1.927,1.843,1.843,0,0,1-1.846-1.927,1.848,1.848,0,1,1,3.692,0Z" transform="translate(-205.839 -193.461)" fill="#282828"/>
                <path id="Path_312" data-name="Path 312" d="M210.2,214.8h16.174s-1.143,4.679-8.439,4.679A8.6,8.6,0,0,1,210.2,214.8Z" transform="translate(-203.783 -194.617)" fill="#fff"/>
              </g>
              <path id="Path_313" data-name="Path 313" d="M196.833,198.554s8.79-12.385,6.769-24.954a17.8,17.8,0,0,0-8.175,12.294C193.669,194.7,196.833,198.554,196.833,198.554Z" transform="translate(-176.418 -165.802)" fill="#282828"/>
              <path id="Path_314" data-name="Path 314" d="M241.938,198.013s-10.2-12.844-8.175-25.413a20.928,20.928,0,0,1,8.79,13.119C244.224,194.619,241.938,198.013,241.938,198.013Z" transform="translate(-181.088 -165.719)" fill="#282828"/>
              <path id="Path_315" data-name="Path 315" d="M197.9,178.063s10.109,14.129,40.963,11.927c0,0-3.516-20.184-18.46-22.2C220.4,167.788,203.086,165.678,197.9,178.063Z" transform="translate(-176.782 -165.311)" fill="#282828"/>
            </g>
            <g id="Group_73" data-name="Group 73" transform="translate(0 74.312)">
              <g id="Group_71" data-name="Group 71" transform="translate(0 41.356)">
                <g id="Group_70" data-name="Group 70">
                  <path id="Path_316" data-name="Path 316" d="M164.739,407.988c-.44.734,25.668-118.625,17.932-116.79-.7.183-14.328,1.468-16.35,5.78-5.89,12.385-10.021,110.184-10.021,110.184Z" transform="translate(-155.793 -291.177)" fill="#ffb1a5"/>
                  <path id="Path_317" data-name="Path 317" d="M156.23,417.285s-4.219,20.367,11.691,22.661a2.114,2.114,0,0,0,2.373-1.56l.088-.183a2.319,2.319,0,0,0-1.231-2.844c-2.637-1.193-6.593-4.312-4.659-11.193,0,0,2.285-.275,3.6,4.22a1.839,1.839,0,0,0,2.637,1.193h0a1.94,1.94,0,0,0,.967-1.927c-.352-3.119-1.934-10.734-7.736-12.752Z" transform="translate(-155.723 -301.392)" fill="#ffb1a5"/>
                </g>
                <path id="Path_318" data-name="Path 318" d="M162.4,327.107s15.031,22.11,15.119,21.652,5.274-31.1,5.274-31.1L164.51,309.4Z" transform="translate(-156.531 -292.682)" fill="#f3978e"/>
              </g>
              <g id="Group_72" data-name="Group 72" transform="translate(3.583)">
                <path id="Path_319" data-name="Path 319" d="M203.927,250.667c.615,0-37.183.734-44.127,50.551l21.712,3.486,4.4,37.615h60.653L258.6,272.777s-8.527-15.046-33.491-22.477Z" transform="translate(-159.8 -246.447)" fill="#00857b"/>
                <path id="Path_320" data-name="Path 320" d="M189,256.375s5.362,7.431,27.25,7.431c21.712,0,27.25-7.8,27.25-7.8a93.117,93.117,0,0,0-27.69-9.908A95.065,95.065,0,0,0,189,256.375Z" transform="translate(-163.332 -246.1)" fill="#ffb1a5"/>
              </g>
            </g>
          </g>
          <g id="Group_97" data-name="Group 97" transform="translate(2.694 3.642)">
            <g id="Group_76" data-name="Group 76" transform="translate(124.326 271.498)">
              <g id="Group_75" data-name="Group 75">
                <path id="Path_321" data-name="Path 321" d="M273.7,429.5v99.45h47.116l3.692-99.45Z" transform="translate(-273.7 -429.5)" fill="#005683"/>
                <path id="Path_322" data-name="Path 322" d="M383.108,429.5l-.088,99.45H335.9l-3.6-99.45Z" transform="translate(-280.789 -429.5)" fill="#005683"/>
                <rect id="Rectangle_97" data-name="Rectangle 97" width="48.698" height="34.587" transform="translate(27.865)" fill="#005683"/>
              </g>
              <line id="Line_8" data-name="Line 8" x2="33.579" transform="translate(34.634 34.587)" fill="none" stroke="#282828" stroke-linecap="round" stroke-linejoin="round" stroke-miterlimit="10" stroke-width="1.397"/>
            </g>
            <g id="Group_87" data-name="Group 87" transform="translate(0 93.537)">
              <g id="Group_78" data-name="Group 78" transform="translate(200.275 13.556)">
                <g id="Group_77" data-name="Group 77" transform="translate(24.525 77.615)">
                  <path id="Path_323" data-name="Path 323" d="M419.645,334.9c2.9,33.67-.176,58.257.7,120.276l-28.129,1.193L388,340.313Z" transform="translate(-388 -334.9)" fill="#ffb1a5"/>
                  <path id="Path_324" data-name="Path 324" d="M391.9,362.056s17.4-1.651,29.36-9.908l-.352-7.248L391.9,349.029Z" transform="translate(-388.472 -335.726)" fill="#f3978e"/>
                </g>
                <path id="Path_325" data-name="Path 325" d="M360.1,250.3s55.379,14.5,65.4,87.8c0,0-27.074,12.294-54.236,6.973l6.065-24.5Z" transform="translate(-360.1 -250.3)" fill="#9e1d9e"/>
              </g>
              <g id="Group_85" data-name="Group 85">
                <g id="Group_82" data-name="Group 82">
                  <path id="Path_326" data-name="Path 326" d="M169.8,283.6l41.227,50.826-12.57,37.064s-31.294-45.413-45.358-80.551Z" transform="translate(-134.785 -239.493)" fill="#ffb1a5"/>
                  <g id="Group_81" data-name="Group 81">
                    <g id="Group_80" data-name="Group 80">
                      <g id="Group_79" data-name="Group 79">
                        <path id="Path_327" data-name="Path 327" d="M169.487,282.9s-14.5,8.532-18.108,5.413c-6.417-5.413-11.779-25.138-11.779-25.138s27.074-10.642,26.811-10.275C166.147,253.358,169.487,282.9,169.487,282.9Z" transform="translate(-133.152 -236.958)" fill="#ffb1a5"/>
                        <path id="Path_328" data-name="Path 328" d="M172.935,283.125c-.264-1.56,5.362-17.89,7.3-24.037a2.716,2.716,0,0,0-2.022-3.395h0a2.908,2.908,0,0,0-3.34,1.468l-6.769,12.11Z" transform="translate(-136.6 -237.184)" fill="#ffb1a5"/>
                        <path id="Path_329" data-name="Path 329" d="M171.618,263.8l-4.659-24.22a2.822,2.822,0,0,0-3.34-2.385h0a2.577,2.577,0,0,0-2.022,2.936l2.022,17.982Z" transform="translate(-135.81 -235.656)" fill="#ffb1a5"/>
                        <path id="Path_330" data-name="Path 330" d="M160.9,254.768l-6.329-17.248a2.892,2.892,0,0,0-3.6-1.835h0a2.711,2.711,0,0,0-1.67,3.119l4.659,20Z" transform="translate(-134.318 -235.524)" fill="#ffb1a5"/>
                        <path id="Path_331" data-name="Path 331" d="M152.916,260.4l-8-16.973a3.158,3.158,0,0,0-4.044-1.651h0a2.947,2.947,0,0,0-1.406,3.853l6.417,16.055Z" transform="translate(-133.107 -236.021)" fill="#ffb1a5"/>
                        <path id="Path_332" data-name="Path 332" d="M138.713,262.865,132.472,252.5a2.439,2.439,0,0,1,1.055-3.119h0a2.566,2.566,0,0,1,3.165.917l8.263,11.927Z" transform="translate(-132.265 -236.648)" fill="#ffb1a5"/>
                      </g>
                    </g>
                    <path id="Path_333" data-name="Path 333" d="M170.173,264.2s-9.406-1.009-10.373,12.11" transform="translate(-135.596 -237.89)" fill="none" stroke="#282828" stroke-linecap="round" stroke-linejoin="round" stroke-miterlimit="10" stroke-width="1.532"/>
                  </g>
                </g>
                <g id="Group_84" data-name="Group 84" transform="translate(55.234 12.272)">
                  <g id="Group_83" data-name="Group 83" transform="translate(0 29.633)">
                    <path id="Path_334" data-name="Path 334" d="M195.1,353.861s7.735,27.982,23.206,24.312c15.471-3.762,39.557-38.165,39.557-38.165L252.5,281.2l-43.424,55.688Z" transform="translate(-195.1 -281.2)" fill="#ffb1a5"/>
                    <path id="Path_335" data-name="Path 335" d="M226.3,322.654s14.592,23.028,27.162,31.193l8.175-10.734L230.08,317.7Z" transform="translate(-198.874 -284.214)" fill="#f3978e"/>
                  </g>
                  <path id="Path_336" data-name="Path 336" d="M290.04,248.9s-42.985,10.092-65.84,62.2c0,0,13.8,21.743,36.04,31.468L275.1,323.579Z" transform="translate(-198.62 -248.9)" fill="#9e1d9e"/>
                </g>
              </g>
              <g id="Group_86" data-name="Group 86" transform="translate(118.701 8.27)">
                <path id="Path_337" data-name="Path 337" d="M295.338,248.448A108.156,108.156,0,0,0,268,269.366l3.34,152.386H377.088l-.352-151.561s-13.361-13.578-27.777-20.275C336.74,244.228,307.293,242.026,295.338,248.448Z" transform="translate(-267.385 -244.539)" fill="#81007f"/>
                <path id="Path_338" data-name="Path 338" d="M354.08,326.942h0c-8.087,0-14.68-6.881-14.68-15.321V296.3h29.448v15.321C368.76,320.062,362.167,326.942,354.08,326.942Z" transform="translate(-276.022 -248.812)" fill="none" stroke="#282828" stroke-linecap="round" stroke-linejoin="round" stroke-miterlimit="10" stroke-width="1.397"/>
                <line id="Line_9" data-name="Line 9" y1="49.817" x2="1.406" transform="translate(109.528 50.882)" fill="none" stroke="#282828" stroke-linecap="round" stroke-linejoin="round" stroke-miterlimit="10" stroke-width="1.397"/>
                <line id="Line_10" data-name="Line 10" x1="2.285" y1="43.211" transform="translate(0 49.231)" fill="none" stroke="#282828" stroke-linecap="round" stroke-linejoin="round" stroke-miterlimit="10" stroke-width="1.397"/>
              </g>
            </g>
            <g id="Group_96" data-name="Group 96" transform="translate(138.305)">
              <path id="Path_339" data-name="Path 339" d="M299.824,184.476l-4.4-22.752c-.264-1.835-.967-4.679-.088-7.431,1.406-4.4,6.5-13.028,15.3-9.083l1.934,8.991s-9.142,1.927-12.746,14.312Z" transform="translate(-290.245 -134.447)" fill="#282828"/>
              <path id="Path_340" data-name="Path 340" d="M310.289,150.5c-.176,3.028-2.725,16.055-11.6,20.826C298.686,171.326,290.862,153.895,310.289,150.5Z" transform="translate(-290.513 -134.967)" fill="#282828"/>
              <path id="Path_341" data-name="Path 341" d="M341.5,240.724h0V202.1H307.4v38.624l-10.2,4.862s2.373,16.055,27.6,16.422,27.777-15.6,27.777-15.6Z" transform="translate(-290.521 -139.227)" fill="#ffb1a5"/>
              <path id="Path_342" data-name="Path 342" d="M312.8,144.331s6.241-17.248,25.58-8.073c11.691,5.6,14.943,13.028,16.35,18.257a24.6,24.6,0,0,1,.527,6.147L350.6,183.6l-18.284-31.743-17.669,1.468Z" transform="translate(-292.409 -133.569)" fill="#282828"/>
              <g id="Group_90" data-name="Group 90" transform="translate(56.168 47.562)">
                <path id="Path_343" data-name="Path 343" d="M355.522,187.878a5.5,5.5,0,0,1,7.032-1.927c4.747,1.835,2.637,13.945-4.483,15.413a5.549,5.549,0,0,1-4.571-1.284C353.5,200.172,355.258,191.273,355.522,187.878Z" transform="translate(-353.5 -185.412)" fill="#f3978e"/>
                <g id="Group_89" data-name="Group 89" transform="translate(1.406 4.628)">
                  <g id="Group_88" data-name="Group 88">
                    <path id="Path_344" data-name="Path 344" d="M361.869,190.588s-3.956-1.376-6.769,4.771" transform="translate(-355.1 -190.457)" fill="none" stroke="#282828" stroke-linecap="round" stroke-linejoin="round" stroke-miterlimit="10" stroke-width="1.397"/>
                  </g>
                </g>
              </g>
              <g id="Group_93" data-name="Group 93" transform="translate(0 47.562)">
                <path id="Path_345" data-name="Path 345" d="M299.182,187.878a5.5,5.5,0,0,0-7.032-1.927c-4.747,1.835-2.637,13.945,4.483,15.413a5.549,5.549,0,0,0,4.571-1.284C301.2,200.172,299.533,191.273,299.182,187.878Z" transform="translate(-289.602 -185.412)" fill="#f3978e"/>
                <g id="Group_92" data-name="Group 92" transform="translate(3.514 4.628)">
                  <g id="Group_91" data-name="Group 91">
                    <path id="Path_346" data-name="Path 346" d="M293.6,190.588s3.956-1.376,6.769,4.771" transform="translate(-293.6 -190.457)" fill="none" stroke="#282828" stroke-linecap="round" stroke-linejoin="round" stroke-miterlimit="10" stroke-width="1.397"/>
                  </g>
                </g>
              </g>
              <path id="Path_347" data-name="Path 347" d="M349.577,173.388c0,7.248-.7,22.477-4.923,31.468-4.044,8.44-10.636,13.028-19.339,13.3s-15.207-3.211-20.394-14.22S300,173.572,300,173.572s0-25.872,24.525-25.872C350.28,147.608,349.577,173.388,349.577,173.388Z" transform="translate(-290.86 -134.736)" fill="#ffb1a5"/>
              <path id="Path_348" data-name="Path 348" d="M309,214.8s2.9,15.138,15.471,16.881c14.5,2.018,18.372-16.514,18.372-16.514s-6.417,8.44-16.614,8.44C314.977,223.607,309,214.8,309,214.8Z" transform="translate(-291.949 -140.276)" fill="#282828"/>
              <g id="Group_95" data-name="Group 95" transform="translate(9.404 32.562)">
                <path id="Path_349" data-name="Path 349" d="M326.2,187.4v5.963a2.237,2.237,0,0,0,.176.734,1.879,1.879,0,0,0,2.2,1.1l1.934-.55" transform="translate(-303.433 -170.576)" fill="none" stroke="#282828" stroke-linecap="round" stroke-linejoin="round" stroke-miterlimit="10" stroke-width="1.397"/>
                <path id="Path_350" data-name="Path 350" d="M317.3,184.093a2.2,2.2,0,1,1-2.2-2.294A2.171,2.171,0,0,1,317.3,184.093Z" transform="translate(-301.824 -170.113)" fill="#282828"/>
                <path id="Path_351" data-name="Path 351" d="M341.1,184.093a2.2,2.2,0,1,1-2.2-2.294A2.171,2.171,0,0,1,341.1,184.093Z" transform="translate(-304.703 -170.113)" fill="#282828"/>
                <path id="Path_352" data-name="Path 352" d="M332.7,171.39l15.031,4.037s-.7-4.4-6.856-5.963S332.7,171.39,332.7,171.39Z" transform="translate(-304.219 -169.062)" fill="#282828"/>
                <path id="Path_353" data-name="Path 353" d="M320.031,171.39,305,175.427s.7-4.4,6.856-5.963C317.922,167.9,320.031,171.39,320.031,171.39Z" transform="translate(-300.868 -169.062)" fill="#282828"/>
                <path id="Path_354" data-name="Path 354" d="M318.7,200.5s2.2,1.743,8.087,1.743A20.116,20.116,0,0,0,335.4,200.5" transform="translate(-302.526 -171.658)" fill="none" stroke="#282828" stroke-linecap="round" stroke-linejoin="round" stroke-miterlimit="10" stroke-width="1.397"/>
                <g id="Group_94" data-name="Group 94" transform="translate(0 4.714)">
                  <ellipse id="Ellipse_41" data-name="Ellipse 41" cx="9.494" cy="9.908" rx="9.494" ry="9.908" transform="translate(3.165)" fill="none" stroke="#fff" stroke-miterlimit="10" stroke-width="1.951"/>
                  <ellipse id="Ellipse_42" data-name="Ellipse 42" cx="9.494" cy="9.908" rx="9.494" ry="9.908" transform="translate(26.459)" fill="none" stroke="#fff" stroke-miterlimit="10" stroke-width="1.951"/>
                  <path id="Path_355" data-name="Path 355" d="M325.5,184.912s2.286-2.2,4.307,0" transform="translate(-303.348 -175.004)" fill="none" stroke="#fff" stroke-miterlimit="10" stroke-width="1.951"/>
                  <line id="Line_11" data-name="Line 11" x1="3.165" y1="0.092" transform="translate(0 9.817)" fill="none" stroke="#fff" stroke-miterlimit="10" stroke-width="1.951"/>
                  <line id="Line_12" data-name="Line 12" x2="3.604" transform="translate(45.446 9.908)" fill="none" stroke="#fff" stroke-miterlimit="10" stroke-width="1.951"/>
                </g>
              </g>
              <path id="Path_356" data-name="Path 356" d="M309,150.58s4.571,13.486,25.14,13.119c13.977-.275,17.317,10.275,17.317,10.275S349,150.4,348.381,150.58s-21.273-5.78-21.273-5.78Z" transform="translate(-291.949 -134.497)" fill="#282828"/>
            </g>
          </g>
        </g>
      </g>
    </g>
  </g>
</svg>
