<svg id="browser-01" xmlns="http://www.w3.org/2000/svg" width="62.821" height="50.732" viewBox="0 0 62.821 50.732">
  <path id="Path_198" data-name="Path 198" d="M181.362,139.183a1.148,1.148,0,0,1-.484.421c-.755.332-1.413-.155-1.413-1.064V124.934c.019-.355-.1-.532-.406-.488a2.488,2.488,0,0,1-.406,0h-57.3c-.813,0-.813,0-.813.931,0,9.374.039,18.769-.019,28.143-.019,2.216,1.335,3.324,2.864,3.324,9.483-.022,18.985,0,28.469,0,.561,0,.658-.111.348-.665-.387-.731-.581-1.551-.968-2.282a1.66,1.66,0,0,1,.755-2.105,2.216,2.216,0,0,1,.619-.266c.813-.31.793-.31.852-1.285.039-.51-.116-.687-.5-.82a2.45,2.45,0,0,1-1.664-1.174,1.4,1.4,0,0,1-.058-1.241c.387-.953.793-1.861,1.2-2.814a1.858,1.858,0,0,1,2.419-1.064c.29.111.581.222.871.355a.517.517,0,0,0,.658-.133c.794-.776.794-.753.445-1.861-.368-1.152-.1-1.972.813-2.349,1.006-.421,2.032-.842,3.077-1.2a1.7,1.7,0,0,1,2.322,1.174c.116.266.252.51.387.776.019.044.039.089.058.089.464.266.948,0,1.413.111.29.066.368-.288.464-.532.484-1.285,1.045-1.751,2.032-1.662a2.5,2.5,0,0,1,.7.177c.871.332,1.722.687,2.574,1.041a2.186,2.186,0,0,1,1.045.82,1.575,1.575,0,0,1,.1,1.6c-.1.177-.194.377-.29.554a.676.676,0,0,0,.232,1,1.407,1.407,0,0,1,.31.288.6.6,0,0,0,.832.2,2.589,2.589,0,0,1,2.09-.332,1.766,1.766,0,0,1,.987.909c.426.953.813,1.906,1.239,2.836a1.629,1.629,0,0,1-.755,2.194c-.213.111-.426.177-.639.266-.832.31-.813.31-.852,1.307a.674.674,0,0,0,.464.776,3.443,3.443,0,0,1,1.432.776,1.722,1.722,0,0,1,.213,2.039c-.329.643-.6,1.307-.91,1.972-.155.355-.116.532.29.554a2.8,2.8,0,0,0,2.651-1.352,3.014,3.014,0,0,0,.368-1.684v-10.1c0-.554.058-1.019.561-1.241a1.078,1.078,0,0,1,1.335.443v12.3a4.813,4.813,0,0,1-4.742,3.59q-2.351.033-4.7,0c-.484,0-.5.177-.329.62.464,1.219.232,1.972-.832,2.46-1.045.465-2.11.864-3.174,1.219a1.679,1.679,0,0,1-2.168-1.241c-.194-.532-.387-.953-1.026-.953-.658,0-1.181.066-1.451.931a1.663,1.663,0,0,1-2.071,1.241,26.952,26.952,0,0,1-3.6-1.44,1.626,1.626,0,0,1-.581-2.017,2.881,2.881,0,0,0,.155-.443c.1-.266,0-.377-.232-.355H123.65a4.937,4.937,0,0,1-3.948-1.684,4.034,4.034,0,0,1-1.064-2.482c-.019-.288,0-.6,0-.886,0-12.077.039-24.176-.039-36.253a4.828,4.828,0,0,1,3.677-4.9,6.822,6.822,0,0,1,1.335-.133h34.565a1.506,1.506,0,0,1,1.006.222.876.876,0,0,1,.019,1.44,1.6,1.6,0,0,1-1.084.266H123.805a3.894,3.894,0,0,0-1.587.222,2.7,2.7,0,0,0-1.645,2.593c-.019,1.6,0,3.191-.019,4.786,0,.4.116.6.484.554a2.488,2.488,0,0,1,.406,0h57.15c.91,0,.91,0,.91-1.019,0-1.352-.039-2.681,0-4.011a2.76,2.76,0,0,0-2.651-3.1c-4.354-.022-8.709,0-13.083-.022a1.734,1.734,0,0,1-1.045-.222.9.9,0,0,1,.039-1.551,1.314,1.314,0,0,1,.7-.177c4.471,0,8.922-.022,13.392.022a4.739,4.739,0,0,1,4.567,3.679C181.362,123.8,181.362,131.493,181.362,139.183Zm-16.934,19.7h0c.31,0,.619.022.929,0a1.131,1.131,0,0,1,1.3.909c.135.332.252.687.368,1.042.077.2.174.332.387.222.7-.288,1.393-.554,2.09-.842.135-.066.252-.111.155-.332-.155-.377-.271-.776-.426-1.13-.368-.8-.348-1.019.31-1.551a8.7,8.7,0,0,0,1.413-1.352,1.326,1.326,0,0,1,1.858-.421c.329.177.677.266,1.026.421.194.089.29.022.426-.155.387-.576.484-1.307.871-1.861.155-.222.019-.355-.174-.421-.445-.177-.871-.355-1.316-.532-.658-.266-.832-.6-.735-1.4a10.21,10.21,0,0,0,.019-1.884c-.058-.731.116-1.086.735-1.352.445-.177.871-.355,1.316-.51.232-.089.348-.222.194-.465a13.053,13.053,0,0,1-.658-1.529c-.174-.421-.406-.643-.852-.421a8.239,8.239,0,0,1-1.219.465.977.977,0,0,1-1.142-.332,13.847,13.847,0,0,0-1.761-1.728c-.271-.2-.658-.532-.426-1a9.5,9.5,0,0,1,.658-1.529c.155-.222.1-.332-.135-.421-.387-.133-.774-.31-1.161-.465-1.3-.51-1.122-.753-1.722.864-.252.687-.639,1-1.277.931a9.273,9.273,0,0,0-2.477,0,1.006,1.006,0,0,1-1.084-.62,10.144,10.144,0,0,1-.542-1.263c-.1-.288-.252-.377-.523-.266-.387.177-.774.31-1.181.465-1.161.443-1.181.51-.561,1.751.406.82.368,1.13-.329,1.64a6.832,6.832,0,0,0-1.374,1.307,1.258,1.258,0,0,1-1.761.465c-.31-.155-.639-.266-.968-.4-.271-.111-.445-.089-.639.244-.329.576-.464,1.241-.774,1.795-.135.266.019.31.155.377.426.177.852.332,1.258.51.677.288.852.643.755,1.44a9.045,9.045,0,0,0-.019,1.773c.077.864-.058,1.174-.793,1.463-.406.177-.813.31-1.219.488-.135.044-.368.111-.213.355.348.6.426,1.33.793,1.906.174.266.31.31.561.2.406-.177.813-.355,1.219-.488a1.112,1.112,0,0,1,1.355.377,8.907,8.907,0,0,0,1.626,1.551,1.1,1.1,0,0,1,.31,1.485c-.194.465-.6,1.019-.5,1.352.135.443.794.421,1.2.62a.066.066,0,0,1,.058.022c1.239.488,1.239.488,1.78-.82a1.2,1.2,0,0,1,1.393-.909C163.5,158.9,163.963,158.883,164.428,158.883Z" transform="translate(-118.599 -112.475)" fill="purple"/>
  <path id="Path_199" data-name="Path 199" d="M151.461,134.933a1.719,1.719,0,1,1,.039-3.435,1.718,1.718,0,1,1-.039,3.435Z" transform="translate(-143.681 -127.283)" fill="purple"/>
  <path id="Path_200" data-name="Path 200" d="M178.522,135.033a1.718,1.718,0,1,1,.077-3.435,1.7,1.7,0,0,1,1.7,1.728A1.733,1.733,0,0,1,178.522,135.033Z" transform="translate(-165.536 -127.36)" fill="purple"/>
  <path id="Path_201" data-name="Path 201" d="M205.742,135.033A1.8,1.8,0,0,1,204,133.327a1.775,1.775,0,0,1,1.761-1.728,1.717,1.717,0,0,1-.019,3.435Z" transform="translate(-187.472 -127.36)" fill="purple"/>
  <path id="Path_202" data-name="Path 202" d="M153.984,193.611h-9.967a2.608,2.608,0,0,1-1.839-.62,1.8,1.8,0,0,1-.639-1.418q-.029-4.82,0-9.639a1.985,1.985,0,0,1,1.935-1.95,26.091,26.091,0,0,1,2.632,0,.928.928,0,0,1,.948,1.2.95.95,0,0,1-1.026.709c-.658.022-1.316,0-1.955.022-.6,0-.7.133-.7.864v8.044c0,.776.077.864.794.864H160.6c1.181,0,2.342-.022,3.522,0,.406,0,.581-.155.581-.643-.019-2.814-.019-5.629,0-8.465,0-.643-.31-.665-.735-.665H151.255a1.422,1.422,0,0,1-.987-.244.868.868,0,0,1,.058-1.529,1.269,1.269,0,0,1,.755-.155H164.3a2.238,2.238,0,0,1,2.168,1.418,1.6,1.6,0,0,1,.155.731v9.285a2.178,2.178,0,0,1-1.374,1.994,3.528,3.528,0,0,1-1.277.2Z" transform="translate(-137.088 -164.998)" fill="purple"/>
  <path id="Path_203" data-name="Path 203" d="M218.538,263.855c-1.181-.066-2.38.089-3.561-.089-1.258-.177-1.877-1-1.877-2.46v-5.85a2.124,2.124,0,0,1,2.09-2.415c2.245-.022,4.471-.022,6.716,0,1.3,0,2.09.975,2.09,2.438V261.4a2.149,2.149,0,0,1-1.8,2.371C221,263.944,219.758,263.789,218.538,263.855Zm.019-8.952h-2.884c-.387,0-.561.155-.561.62q.029,2.892,0,5.784c0,.443.135.62.542.62,1.935-.022,3.89-.022,5.825,0,.406,0,.542-.2.542-.643,0-1.906-.019-3.811,0-5.739,0-.532-.194-.687-.619-.665C220.435,254.925,219.506,254.9,218.558,254.9Z" transform="translate(-194.811 -221.88)" fill="purple"/>
  <path id="Path_204" data-name="Path 204" d="M296.017,201.7H307.59a2.064,2.064,0,0,1,.813.111.835.835,0,0,1,.464.842.774.774,0,0,1-.445.776,1.655,1.655,0,0,1-.658.111H284.25a2.047,2.047,0,0,1-.368-.022.917.917,0,0,1,0-1.817,2.853,2.853,0,0,1,.619-.022C288.334,201.7,292.185,201.7,296.017,201.7Z" transform="translate(-251.253 -181.909)" fill="purple"/>
  <path id="Path_205" data-name="Path 205" d="M291.4,186.6h-7.451a.98.98,0,0,1-.948-.953.966.966,0,0,1,.948-.886c.271-.022.542,0,.832,0h13.683c.793,0,1.2.31,1.2.931s-.406.931-1.2.931C296.119,186.6,293.758,186.6,291.4,186.6Z" transform="translate(-251.181 -168.738)" fill="purple"/>
  <path id="Path_206" data-name="Path 206" d="M150.425,259.339H146.09a.92.92,0,0,1,.019-1.839h8.728a.982.982,0,0,1,.852.931,1,1,0,0,1-.871.909c-.406.022-.832.022-1.239.022C152.535,259.339,151.49,259.339,150.425,259.339Z" transform="translate(-140.052 -225.363)" fill="purple"/>
  <path id="Path_207" data-name="Path 207" d="M150.5,276.284h-4.025a1.3,1.3,0,0,1-.755-.155.872.872,0,0,1-.426-.753.844.844,0,0,1,.426-.82,1.293,1.293,0,0,1,.7-.155h8.419a.98.98,0,0,1,.948.953.949.949,0,0,1-.948.886c-1.239.022-2.477,0-3.716.022A5.777,5.777,0,0,1,150.5,276.284Z" transform="translate(-140.126 -238.518)" fill="purple"/>
  <path id="Path_208" data-name="Path 208" d="M384.906,186.542H382.7a2.5,2.5,0,0,1-.406-.022.941.941,0,0,1-.793-.909.924.924,0,0,1,.813-.909,5.16,5.16,0,0,1,.832-.022h4.064a.986.986,0,0,1,.929.4,1,1,0,0,1,.077.909.821.821,0,0,1-.852.554c-.852.022-1.664,0-2.458,0Z" transform="translate(-330.62 -168.676)" fill="purple"/>
  <path id="Path_209" data-name="Path 209" d="M335.277,263.6a5.435,5.435,0,0,1-2.961,4.9,5.787,5.787,0,0,1-6.677-.465,5.617,5.617,0,0,1,1.219-9.684,5.83,5.83,0,0,1,6.619,1.13A5.1,5.1,0,0,1,335.277,263.6Zm-6-3.856a3.963,3.963,0,0,0-2.884,1.241,3.723,3.723,0,0,0-.039,5.1,4.073,4.073,0,0,0,6.58-.864,4.2,4.2,0,0,0,.039-3.28A4.036,4.036,0,0,0,329.277,259.743Z" transform="translate(-283.739 -225.59)" fill="purple"/>
  <path id="Path_210" data-name="Path 210" d="M348.511,280.459a1.329,1.329,0,0,1-1.413-1.285,1.379,1.379,0,0,1,1.355-1.374,1.346,1.346,0,0,1,1.393,1.33A1.276,1.276,0,0,1,348.511,280.459Z" transform="translate(-302.876 -241.165)" fill="purple"/>
</svg>
