<svg xmlns="http://www.w3.org/2000/svg" width="83.071" height="82.326" viewBox="0 0 83.071 82.326">
  <g id="content_creation_1_" data-name="content creation (1)" transform="translate(0)">
    <path id="Path_358" data-name="Path 358" d="M25.78,80.932V32.163a9.456,9.456,0,0,1,1.4-2.987,7.92,7.92,0,0,1,6.749-3.016c7.911.015,15.822,0,23.732.02a1.657,1.657,0,0,0,1.673-.956c1.037-1.894,2.109-3.777,3.245-5.607A7.362,7.362,0,0,1,76,25.17c-.218.979-.215.994.8.994H87.657c4.86,0,9.721.044,14.578,0,4.6-.052,6.635,3.385,6.615,6.609-.107,15.551-.046,31.1-.052,46.654a7.3,7.3,0,0,1-5.967,7.263,26.364,26.364,0,0,1-5.09.142q-9.114.035-18.224,0c-.773,0-1.037.235-1.046,1.017a33.909,33.909,0,0,0,.442,6.205c.131.755.465.965,1.182.956,2.615-.029,5.229-.02,7.844,0a1.8,1.8,0,0,1,2,1.679c.035.991-.738,1.705-1.915,1.781H46.883a4.017,4.017,0,0,1-1.118-.137,1.615,1.615,0,0,1-1.209-1.551,1.72,1.72,0,0,1,1.185-1.665A3.326,3.326,0,0,1,46.863,95c2.484,0,4.968-.035,7.449.017.813.017,1.089-.311,1.194-1.043a33.485,33.485,0,0,0,.352-5.81c-.038-1.319-.026-1.319-1.313-1.322H33.081a7.309,7.309,0,0,1-5.351-2.3A9.216,9.216,0,0,1,25.78,80.932ZM53.774,59.306l.035.18H86.562a9.113,9.113,0,0,1,1.055.023,1.708,1.708,0,0,1,1.528,1.624,1.685,1.685,0,0,1-1.432,1.7,11.042,11.042,0,0,1-1.612.093H47.546c-1.653-.081-2.211-.659-2.214-2.324V50.561a4.088,4.088,0,0,1,.581-2.144q5.122-8.829,10.212-17.669c.639-1.1.633-1.118-.6-1.118H33.734c-3.048,0-4.648,1.6-4.648,4.648v36.53c0,1.162,0,1.188,1.162,1.188h74.036c1.13,0,1.162-.023,1.162-1.116V32.729c0-2.147-.965-3.1-3.132-3.1-8.992,0-17.983.017-26.972-.026a2.252,2.252,0,0,0-2.289,1.3c-4.721,8.277-9.509,16.516-14.259,24.775a4.308,4.308,0,0,1-1.743,1.743C55.939,58.013,54.864,58.673,53.774,59.306ZM67.254,75.47H29.76c-.479,0-.683.227-.677.694,0,1.107-.046,2.217.026,3.321a3.987,3.987,0,0,0,2.862,3.727,7.33,7.33,0,0,0,2.092.16h66.4c.4,0,.811,0,1.214-.026a3.867,3.867,0,0,0,3.631-3.233,19.459,19.459,0,0,0,.119-3.39c.02-1.252,0-1.255-1.249-1.255Zm2-44.9a.6.6,0,0,0-.4-.537c-1.912-1.11-3.832-2.208-5.741-3.326-.4-.235-.622-.151-.834.241-.453.828-.941,1.636-1.412,2.455q-5.482,9.5-10.982,18.982c-.4.691-.291,1,.386,1.368,1.8.985,3.568,2.034,5.331,3.068.482.291.741.215,1.023-.273Q62.8,41.814,68.992,31.091a5.4,5.4,0,0,0,.259-.523ZM67.257,94.979c2.455,0,4.913-.023,7.365.015.718,0,.976-.168.843-.912a28.116,28.116,0,0,1-.433-6.6c.029-.511-.171-.659-.651-.657H59.974c-.508,0-.732.142-.68.709a29.06,29.06,0,0,1-.317,6.449c-.116.909-.073.994.834,1Q63.533,94.984,67.257,94.979Zm5.47-71.409a3.9,3.9,0,0,0-6.972-2.49,21.477,21.477,0,0,0-1.139,1.859.5.5,0,0,0,.227.8q2.867,1.662,5.741,3.315c.291.16.581.259.776-.087C71.984,25.9,72.771,24.9,72.728,23.569ZM49.2,53.089c-.372,0-.36.27-.36.506v3.884c0,.5.148.645.619.366,1.136-.674,2.278-1.339,3.431-1.981.514-.291.389-.453-.029-.689-1.1-.622-2.2-1.264-3.294-1.9-.134-.067-.256-.125-.375-.189Z" transform="translate(-25.78 -16.145)" fill="#fff"/>
    <path id="Path_359" data-name="Path 359" d="M184.537,134.888h-7.774a2.94,2.94,0,0,1-1.2-.154,1.6,1.6,0,0,1-1.069-1.644,1.554,1.554,0,0,1,1.127-1.516,3.2,3.2,0,0,1,1.034-.154q7.9-.017,15.793,0a3.776,3.776,0,0,1,.723.061,1.743,1.743,0,0,1,1.487,1.743,1.763,1.763,0,0,1-1.621,1.639,6.85,6.85,0,0,1-.811.023Z" transform="translate(-131.288 -97.923)" fill="#fff"/>
  </g>
</svg>
