<svg id="OBJECTS" xmlns="http://www.w3.org/2000/svg" xmlns:xlink="http://www.w3.org/1999/xlink" width="523.173" height="475.743" viewBox="0 0 523.173 475.743">
  <defs>
    <clipPath id="clip-path">
      <rect id="Rectangle_187" data-name="Rectangle 187" width="523.173" height="475.743"/>
    </clipPath>
    <linearGradient id="linear-gradient" x1="2.174" y1="0.139" x2="1.286" y2="1.283" gradientUnits="objectBoundingBox">
      <stop offset="0" stop-color="#babeff" stop-opacity="0.2"/>
      <stop offset="1" stop-color="#f6f3ff" stop-opacity="0.4"/>
    </linearGradient>
    <linearGradient id="linear-gradient-2" x1="21.65" y1="1" x2="21.65" y2="-0.001" gradientUnits="objectBoundingBox">
      <stop offset="0" stop-color="#ad9eea"/>
      <stop offset="0.25" stop-color="#b3a6eb"/>
      <stop offset="0.645" stop-color="#c4bdef"/>
      <stop offset="1" stop-color="#d7d7f4"/>
    </linearGradient>
    <clipPath id="clip-path-2">
      <path id="Path_505" data-name="Path 505" d="M951.976,559.24a50.981,50.981,0,0,0,3.942-6.306c5.649-11.036,6.175-23.912,5.255-36.262a174.492,174.492,0,0,0-8.277-41.78c-1.708-4.993-3.942-10.511-8.934-12.613-3.679-1.577-8.014-.788-11.956.131a148.159,148.159,0,0,0-45.065,19.576c12.35-23.649,37.051-38.5,51.5-60.962,2.1-3.153,3.81-7.358,1.708-10.511-2.365-3.547-7.752-2.628-11.825-1.314a171.65,171.65,0,0,0-86.188,65.824c8.8-38.758,46.9-62.933,68.583-96.3,3.285-4.993,5.781-12.35,1.182-16.16-2.234-1.839-5.387-1.971-8.277-1.839-9.985.657-19.445,4.336-28.379,8.54a244.411,244.411,0,0,0-85.794,66.612c5.912-16.817,22.2-27.985,29.167-44.408,1.839-4.2,2.5-9.985-1.314-12.35-2.234-1.445-5.255-1.051-7.883-.394-35.474,8.671-64.641,71.079-64.641,71.079s-.788-59.78-3.022-87.9c-.92-11.3-5.518-39.678-23.124-28.773-18.788,11.562-8.409,128.888-8.409,128.888s-7.095-55.313-13.8-81.59c-1.708-6.7-11.168-21.416-16.686-8.54-1.445,3.285-1.445,7.095-1.051,10.774,3.547,31.4,19.839,84.743,19.839,84.743S667,382.923,657.676,365.58,636,331.814,618.786,322.092c-23.649-13.4-49.926-1.182-52.422,28.773-5.255,60.962,103.268,182.493,125.209,204.7-54-80.013-168.041-134.012-199.31-109.969-4.467,3.416-12.35,10.9-7.095,27.328,5.124,15.9,69.634,86.188,109.575,86.188C661.748,559.24,951.976,559.24,951.976,559.24Z" transform="translate(-483.425 -316.684)"/>
    </clipPath>
    <linearGradient id="linear-gradient-3" x1="7.548" y1="0.997" x2="8.402" y2="0.022" gradientUnits="objectBoundingBox">
      <stop offset="0" stop-color="#5b6dff" stop-opacity="0.2"/>
      <stop offset="1" stop-color="#5b6dff" stop-opacity="0.102"/>
    </linearGradient>
    <linearGradient id="linear-gradient-4" x1="21.339" y1="0.897" x2="23.265" y2="0.037" xlink:href="#linear-gradient-3"/>
    <linearGradient id="linear-gradient-5" x1="27.192" y1="0.872" x2="30.318" y2="0.054" xlink:href="#linear-gradient-3"/>
    <linearGradient id="linear-gradient-6" x1="10.515" y1="0.792" x2="11.389" y2="0.172" xlink:href="#linear-gradient-3"/>
    <linearGradient id="linear-gradient-7" x1="4.688" y1="0.736" x2="5.094" y2="0.212" xlink:href="#linear-gradient-3"/>
    <linearGradient id="linear-gradient-8" x1="5.113" y1="0.7" x2="5.411" y2="0.24" xlink:href="#linear-gradient-3"/>
    <linearGradient id="linear-gradient-9" x1="5.164" y1="1.207" x2="5.596" y2="-0.237" xlink:href="#linear-gradient-3"/>
    <linearGradient id="linear-gradient-10" x1="12.39" y1="0.765" x2="13.194" y2="-0.836" xlink:href="#linear-gradient-2"/>
    <linearGradient id="linear-gradient-11" x1="9.904" y1="0.916" x2="8.727" y2="0.061" xlink:href="#linear-gradient-2"/>
    <linearGradient id="linear-gradient-12" x1="21.514" y1="0.917" x2="20.188" y2="0.061" xlink:href="#linear-gradient-2"/>
    <linearGradient id="linear-gradient-13" x1="116.717" y1="10.45" x2="117.684" y2="11.368" xlink:href="#linear-gradient-2"/>
    <linearGradient id="linear-gradient-14" x1="68.078" y1="-7.157" x2="68.849" y2="-6.426" xlink:href="#linear-gradient-2"/>
    <linearGradient id="linear-gradient-15" x1="52.619" y1="22.061" x2="53.451" y2="22.85" xlink:href="#linear-gradient-2"/>
    <linearGradient id="linear-gradient-16" x1="213.4" y1="0.948" x2="213.768" y2="0.042" xlink:href="#linear-gradient-2"/>
    <linearGradient id="linear-gradient-17" x1="222.699" y1="0.957" x2="223.066" y2="0.051" xlink:href="#linear-gradient-2"/>
    <linearGradient id="linear-gradient-18" x1="102.058" y1="0.952" x2="102.425" y2="0.046" xlink:href="#linear-gradient-2"/>
    <linearGradient id="linear-gradient-19" x1="15.701" y1="0.499" x2="14.704" y2="0.499" gradientUnits="objectBoundingBox">
      <stop offset="0" stop-color="#b6bcfc"/>
      <stop offset="1" stop-color="#ffcae0"/>
    </linearGradient>
    <linearGradient id="linear-gradient-20" x1="13.926" y1="0.739" x2="12.955" y2="0.163" xlink:href="#linear-gradient-19"/>
    <linearGradient id="linear-gradient-21" x1="21.994" y1="0.5" x2="20.994" y2="0.5" gradientUnits="objectBoundingBox">
      <stop offset="0" stop-color="#a79efc"/>
      <stop offset="1" stop-color="#ffc3d4"/>
    </linearGradient>
    <linearGradient id="linear-gradient-22" x1="40.33" y1="0.5" x2="39.326" y2="0.5" xlink:href="#linear-gradient-19"/>
    <linearGradient id="linear-gradient-23" x1="37.575" y1="0.502" x2="36.577" y2="0.502" xlink:href="#linear-gradient-19"/>
    <linearGradient id="linear-gradient-24" x1="22.22" y1="0.5" x2="21.22" y2="0.5" xlink:href="#linear-gradient-19"/>
    <linearGradient id="linear-gradient-25" x1="21.611" y1="0.753" x2="21.611" y2="-0.207" gradientUnits="objectBoundingBox">
      <stop offset="0.337" stop-color="#516dfc"/>
      <stop offset="0.512" stop-color="#556ffb"/>
      <stop offset="0.669" stop-color="#5f74f8"/>
      <stop offset="0.818" stop-color="#727df2"/>
      <stop offset="0.963" stop-color="#8b8aea"/>
      <stop offset="1" stop-color="#938ee8"/>
    </linearGradient>
    <linearGradient id="linear-gradient-26" x1="33.988" y1="1" x2="33.988" gradientUnits="objectBoundingBox">
      <stop offset="0" stop-color="#6d79fc"/>
      <stop offset="1" stop-color="#c8a6e0"/>
    </linearGradient>
    <linearGradient id="linear-gradient-27" x1="26.148" y1="1" x2="26.148" y2="0" xlink:href="#linear-gradient-25"/>
    <linearGradient id="linear-gradient-28" x1="4.572" y1="1.106" x2="3.748" y2="0.193" gradientUnits="objectBoundingBox">
      <stop offset="0" stop-color="#12178f"/>
      <stop offset="0.194" stop-color="#1a1995"/>
      <stop offset="0.502" stop-color="#3120a6"/>
      <stop offset="0.881" stop-color="#562ac0"/>
      <stop offset="1" stop-color="#632eca"/>
    </linearGradient>
    <linearGradient id="linear-gradient-29" x1="13.821" y1="0.964" x2="13.076" y2="0.026" gradientUnits="objectBoundingBox">
      <stop offset="0.393" stop-color="#f9c6b9"/>
      <stop offset="0.575" stop-color="#f9c3b6"/>
      <stop offset="0.706" stop-color="#f9baad"/>
      <stop offset="0.822" stop-color="#f9aa9d"/>
      <stop offset="0.928" stop-color="#f99488"/>
      <stop offset="1" stop-color="#f98074"/>
    </linearGradient>
    <linearGradient id="linear-gradient-30" x1="35.286" y1="0.85" x2="34.085" y2="0.051" xlink:href="#linear-gradient-29"/>
    <linearGradient id="linear-gradient-31" x1="20.285" y1="0.487" x2="19.284" y2="0.487" gradientUnits="objectBoundingBox">
      <stop offset="0.184" stop-color="#f9c6b9"/>
      <stop offset="0.428" stop-color="#f9c3b6"/>
      <stop offset="0.605" stop-color="#f9baad"/>
      <stop offset="0.761" stop-color="#f9aa9d"/>
      <stop offset="0.903" stop-color="#f99488"/>
      <stop offset="1" stop-color="#f98074"/>
    </linearGradient>
    <linearGradient id="linear-gradient-32" x1="92.749" y1="5.101" x2="90.702" y2="5.977" gradientUnits="objectBoundingBox">
      <stop offset="0.133" stop-color="#f9c6b9"/>
      <stop offset="0.338" stop-color="#f9c2b5"/>
      <stop offset="0.547" stop-color="#f9b6a9"/>
      <stop offset="0.757" stop-color="#f9a195"/>
      <stop offset="0.967" stop-color="#f98579"/>
      <stop offset="1" stop-color="#f98074"/>
    </linearGradient>
    <linearGradient id="linear-gradient-33" x1="8.695" y1="0.836" x2="7.729" y2="0.169" gradientUnits="objectBoundingBox">
      <stop offset="0" stop-color="#babeff" stop-opacity="0.6"/>
      <stop offset="1" stop-color="#f6f3ff" stop-opacity="0.4"/>
    </linearGradient>
    <linearGradient id="linear-gradient-34" x1="13.757" y1="0.87" x2="12.682" y2="0.129" gradientUnits="objectBoundingBox">
      <stop offset="0.337" stop-color="#6d79fc"/>
      <stop offset="0.513" stop-color="#717bfa"/>
      <stop offset="0.671" stop-color="#7b81f6"/>
      <stop offset="0.822" stop-color="#8e8bee"/>
      <stop offset="0.967" stop-color="#a798e3"/>
      <stop offset="1" stop-color="#ae9ce0"/>
    </linearGradient>
    <linearGradient id="linear-gradient-35" x1="9.476" y1="1" x2="9.476" y2="0.001" gradientUnits="objectBoundingBox">
      <stop offset="0" stop-color="#6d79fc"/>
      <stop offset="1" stop-color="#ae9ce0"/>
    </linearGradient>
    <linearGradient id="linear-gradient-36" x1="3.617" y1="1.259" x2="3.123" y2="-0.24" xlink:href="#linear-gradient-19"/>
  </defs>
  <g id="Group_208" data-name="Group 208" transform="translate(0 0)">
    <g id="Group_207" data-name="Group 207" clip-path="url(#clip-path)">
      <g id="Group_138" data-name="Group 138" transform="translate(-15.766 17.474)">
        <path id="Path_495" data-name="Path 495" d="M312.9,611.469H902.947c-4.467-14.846-60.305-22.073-82.772-26.54-18.394-3.547-37.182-9.722-51.109-22.861-9.328-8.8-15.109-20.5-19.051-32.452-3.679-11.036-4.2-24.832-11.43-34.16-11.956-15.372-31.926-11.825-46.641-21.678s-22.992-27.328-26.8-44.145c-5.387-23.518,1.182-47.43-4.861-70.948-5.781-22.335-22.073-36.131-39.153-50.189-29.824-24.569-43.751-59.386-55.444-95.122-14.978-45.722-78.568-60.174-78.568-60.174H312.9Z" transform="translate(-312.9 -153.2)" fill="url(#linear-gradient)"/>
      </g>
      <g id="Group_143" data-name="Group 143" transform="translate(-127.872 232.267)">
        <path id="Path_496" data-name="Path 496" d="M706.808,422.137c-4.73.526-8.934,3.679-11.562,7.752a34.311,34.311,0,0,0-3.942,9.591c-.131-5.518-.263-11.168-.526-16.686,9.328-3.285,15.9-11.43,13.533-18.131-4.073.394-7.752,3.153-9.985,6.7a30.293,30.293,0,0,0-3.679,9.591c-.263-5.255-.657-10.379-1.051-15.5,9.2-3.416,15.635-11.43,13.27-18-4.073.394-7.752,3.153-9.985,6.7a30.985,30.985,0,0,0-3.547,8.934q-.591-6.5-1.577-13.007c7.752-4.2,12.482-12.35,9.328-17.737-3.416.92-6.175,3.942-7.62,7.226a25.388,25.388,0,0,0-1.708,10.379q-.788-6.109-1.971-12.219c6.963-4.993,10.642-13.533,6.963-18.525-3.285,1.314-5.65,4.6-6.7,8.014a21.972,21.972,0,0,0-.788,7.752c-.92-4.467-1.839-8.8-3.022-13.27,7.095-4.993,10.774-13.533,7.095-18.525-3.285,1.314-5.649,4.6-6.7,8.014a24.793,24.793,0,0,0-.788,8.8c-1.051-3.942-2.234-7.883-3.547-11.693,5.912-4.2,9.066-11.43,5.912-15.635a10.308,10.308,0,0,0-5.649,6.7,23.148,23.148,0,0,0-.657,8.014c-1.051-2.89-2.1-5.781-3.285-8.671,4.467-4.467,6.044-10.9,2.89-14.058a8.548,8.548,0,0,0-3.81,6.438,18.775,18.775,0,0,0,.394,6.044c-.657-1.577-1.314-3.022-1.971-4.6.263-6.832-3.153-13.4-8.146-13.533a10.323,10.323,0,0,0,1.577,8.277,20.748,20.748,0,0,0,6.175,5.518,47.909,47.909,0,0,1,1.839,4.6c-3.416-5.518-9.2-8.934-13.4-6.7A9.653,9.653,0,0,0,665.816,337a22.746,22.746,0,0,0,8.277,1.708c1.182,3.022,2.234,6.044,3.285,9.065-3.81-7.226-11.168-11.693-16.292-9.065a11.407,11.407,0,0,0,6.569,7.358,24.9,24.9,0,0,0,9.854,1.971c1.182,3.81,2.365,7.62,3.285,11.43-4.6-7.489-12.613-11.956-18.394-8.934.92,3.941,4.073,7.095,7.752,8.8A32.029,32.029,0,0,0,681.32,361.7q1.577,6.306,2.759,12.613c-3.679-8.671-11.168-14.584-17.737-12.481.263,4.467,3.022,8.409,6.7,11.036a30.51,30.51,0,0,0,11.693,4.73c.657,3.679,1.183,7.358,1.708,11.036-6.7-7.489-16.554-10.774-22.2-6.175,1.839,4.073,5.912,6.7,10.248,7.752a31.19,31.19,0,0,0,12.087.131c.657,4.861,1.182,9.854,1.577,14.715-7.095-7.226-17.211-9.985-22.6-5.124,2.1,3.942,6.306,6.306,10.642,7.226,3.941.788,8.146.263,12.087-.526.394,5.124.788,10.117,1.051,15.241-6.044-8.277-16.029-12.613-22.073-8.277,1.577,4.2,5.518,7.095,9.722,8.54,3.942,1.314,8.277,1.314,12.482,1.051.263,5.912.526,11.693.788,17.605-5.518-9.591-15.766-15.5-22.729-11.562,1.183,4.6,4.993,8.277,9.46,10.379a35.812,35.812,0,0,0,13.4,2.628c.263,6.175.394,12.219.657,18.262a.2.2,0,1,0,.394,0V443.158C701.947,439.217,709.567,429.757,706.808,422.137Z" transform="translate(-461.478 -315.957)" fill="url(#linear-gradient-2)"/>
        <g id="Group_142" data-name="Group 142">
          <g id="Group_139" data-name="Group 139">
            <path id="Path_497" data-name="Path 497" d="M951.976,559.24a50.981,50.981,0,0,0,3.942-6.306c5.649-11.036,6.175-23.912,5.255-36.262a174.492,174.492,0,0,0-8.277-41.78c-1.708-4.993-3.942-10.511-8.934-12.613-3.679-1.577-8.014-.788-11.956.131a148.159,148.159,0,0,0-45.065,19.576c12.35-23.649,37.051-38.5,51.5-60.962,2.1-3.153,3.81-7.358,1.708-10.511-2.365-3.547-7.752-2.628-11.825-1.314a171.65,171.65,0,0,0-86.188,65.824c8.8-38.758,46.9-62.933,68.583-96.3,3.285-4.993,5.781-12.35,1.182-16.16-2.234-1.839-5.387-1.971-8.277-1.839-9.985.657-19.445,4.336-28.379,8.54a244.411,244.411,0,0,0-85.794,66.612c5.912-16.817,22.2-27.985,29.167-44.408,1.839-4.2,2.5-9.985-1.314-12.35-2.234-1.445-5.255-1.051-7.883-.394-35.474,8.671-64.641,71.079-64.641,71.079s-.788-59.78-3.022-87.9c-.92-11.3-5.518-39.678-23.124-28.773-18.788,11.562-8.409,128.888-8.409,128.888s-7.095-55.313-13.8-81.59c-1.708-6.7-11.168-21.416-16.686-8.54-1.445,3.285-1.445,7.095-1.051,10.774,3.547,31.4,19.839,84.743,19.839,84.743S667,382.923,657.676,365.58,636,331.814,618.786,322.092c-23.649-13.4-49.926-1.182-52.422,28.773-5.255,60.962,103.268,182.493,125.209,204.7-54-80.013-168.041-134.012-199.31-109.969-4.467,3.416-12.35,10.9-7.095,27.328,5.124,15.9,69.634,86.188,109.575,86.188C661.748,559.24,951.976,559.24,951.976,559.24Z" transform="translate(-483.425 -316.684)" fill="#e4e3ff"/>
          </g>
          <g id="Group_141" data-name="Group 141">
            <g id="Group_140" data-name="Group 140" clip-path="url(#clip-path-2)">
              <path id="Path_498" data-name="Path 498" d="M822.719,561.338h11.956c-8.8-21.941-21.416-56.5-38.89-96.962C755.976,372.276,713.67,310,713.67,310c-10.248,4.993-31.926,23.649-34.16,38.89C672.941,395.137,822.719,561.338,822.719,561.338Z" transform="translate(-613.914 -318.782)" fill="url(#linear-gradient-3)"/>
              <path id="Path_499" data-name="Path 499" d="M684.121,354.5a836.833,836.833,0,0,1,22.2,113.122c7.752,62.539,10.248,80.539,10.248,80.539l-18.525-95.648L669.8,358.047Z" transform="translate(-483.331 -304.816)" fill="url(#linear-gradient-4)"/>
              <path id="Path_500" data-name="Path 500" d="M682.409,327S678.6,526.31,687.8,556s-9.985-.657-9.985-.657L665.46,453.917,656,330.942Z" transform="translate(-438.918 -313.447)" fill="url(#linear-gradient-5)"/>
              <path id="Path_501" data-name="Path 501" d="M675.6,372.3s-31.138,22.861-47.3,57.021c-33.372,70.816-34.423,123.9-34.423,123.9s-4.467-55.181,9.46-113.779S672.056,338.8,672.056,338.8Z" transform="translate(-341.721 -309.743)" fill="url(#linear-gradient-6)"/>
              <path id="Path_502" data-name="Path 502" d="M523.654,554.091s11.036-58.729,36.393-102.086c45.853-78.436,105.764-94.6,105.764-94.6s28.248-31.007-1.839-22.992S559.653,400.5,543.23,430.721c-23.255,42.7-37.707,97.356-28.248,127.443C524.574,588.382,523.654,554.091,523.654,554.091Z" transform="translate(-237.332 -311.534)" fill="url(#linear-gradient-7)"/>
              <path id="Path_503" data-name="Path 503" d="M497.942,542.172s37.313-63.721,73.181-96.042,65.035-53.736,65.035-53.736S642.071,374,634.976,374s-30.744,10.511-30.744,10.511l-54,48.612L538.277,456.9C538.146,457.035,510.555,498.158,497.942,542.172Z" transform="translate(-179.431 -298.696)" fill="url(#linear-gradient-8)"/>
              <path id="Path_504" data-name="Path 504" d="M674.9,428.649s27.328-24.043,95.911,12.613c68.714,36.656,162.26,113.91,162.26,113.91l-154.114,8.54-74.889-41.517Z" transform="translate(-706.529 -283.974)" fill="url(#linear-gradient-9)"/>
            </g>
          </g>
        </g>
        <path id="Path_506" data-name="Path 506" d="M766.846,468.756c7.489-8.54,9.722-20.365,3.679-25.751-3.942,2.759-6.175,7.489-6.569,12.35a30.04,30.04,0,0,0,1.183,10.248c-2.759-4.861-5.518-9.722-8.409-14.452,6.569-7.358,8.54-17.605,3.285-22.335-3.416,2.365-5.255,6.438-5.65,10.642a29.385,29.385,0,0,0,1.314,10.117c-2.628-4.467-5.518-8.8-8.277-13.138,6.438-7.358,8.409-17.474,3.153-22.073C747.138,416.728,745.3,420.8,744.9,425a26.741,26.741,0,0,0,1.182,9.591q-3.547-5.518-7.489-10.642c4.861-7.358,5.124-16.817-.263-20.1-2.628,2.5-3.547,6.306-3.285,9.985a25.721,25.721,0,0,0,3.285,9.854c-2.5-3.285-4.993-6.569-7.489-9.722,3.81-7.752,3.022-16.949-2.628-19.576-2.365,2.759-2.891,6.7-2.1,10.248a23.751,23.751,0,0,0,2.891,7.095c-2.891-3.416-5.912-6.832-8.934-10.117,3.81-7.752,3.022-16.949-2.628-19.576-2.365,2.759-2.891,6.7-2.1,10.248a23.056,23.056,0,0,0,3.547,8.014c-2.759-2.89-5.65-5.781-8.671-8.54,3.285-6.569,2.5-14.321-2.234-16.554-1.971,2.365-2.365,5.649-1.839,8.671a21.182,21.182,0,0,0,3.285,7.226c-2.234-2.1-4.6-4.073-6.963-6.044,1.839-6.044.131-12.482-4.2-13.664a8.8,8.8,0,0,0-.394,7.489,15.473,15.473,0,0,0,3.285,5.124l-3.942-3.153c-3.022-6.175-9.066-10.248-13.533-8.014a9.655,9.655,0,0,0,5.387,6.569,21.161,21.161,0,0,0,8.014,1.971c1.314,1.051,2.5,2.1,3.81,3.022-5.65-3.285-12.35-3.416-14.978.526,1.971,2.234,4.993,3.022,8.014,2.89a20.262,20.262,0,0,0,8.146-2.5c2.5,2.1,4.861,4.2,7.226,6.438-6.7-4.6-15.372-4.993-18.657-.263,2.234,2.5,5.912,3.547,9.328,3.416a24.641,24.641,0,0,0,9.591-2.89c2.891,2.759,5.65,5.518,8.277,8.409-7.62-4.467-16.817-4.6-20.365.788,2.759,3.022,6.963,4.2,11.036,4.073a31.573,31.573,0,0,0,10.9-3.153c2.89,3.153,5.781,6.438,8.409,9.854-7.357-5.912-16.817-7.489-21.547-2.628,2.365,3.81,6.7,5.912,11.168,6.569,4.2.526,8.409-.263,12.481-1.314,2.234,2.89,4.467,5.912,6.7,8.934-9.46-3.416-19.708-1.708-22.467,4.993,3.547,2.628,8.409,3.022,12.744,1.971a31.418,31.418,0,0,0,10.774-5.65c2.89,4.073,5.649,8.146,8.409,12.219-9.722-3.022-19.97-.657-22.335,6.306,3.679,2.5,8.54,2.628,12.876,1.314a31.106,31.106,0,0,0,10.379-6.175c2.759,4.2,5.518,8.54,8.146,12.876-9.328-4.467-20.1-3.547-23.386,3.153,3.416,2.89,8.146,3.679,12.613,2.89a34.079,34.079,0,0,0,11.43-4.993c3.022,4.993,6.044,10.117,9.066,15.109-9.46-5.912-21.153-6.175-25.489.526,3.285,3.547,8.409,4.993,13.138,4.6a32.74,32.74,0,0,0,13.007-4.073c3.153,5.255,6.175,10.642,9.2,15.9.131.263.526,0,.394-.263C772.364,479,769.736,473.88,766.846,468.756Z" transform="translate(-560.143 -299.512)" fill="url(#linear-gradient-10)"/>
        <path id="Path_507" data-name="Path 507" d="M571.538,384.336c.92-.92,1.971-1.839,2.89-2.628a19.241,19.241,0,0,0,6.569-2.1,8.891,8.891,0,0,0,4.2-5.781c-3.81-1.577-8.8,2.1-11.036,7.489-1.051.92-2.1,1.708-3.022,2.628a13.955,13.955,0,0,0,2.365-4.336,7.565,7.565,0,0,0-.657-6.306c-3.547,1.314-4.6,6.832-2.759,11.693-1.839,1.708-3.679,3.547-5.518,5.387a22.188,22.188,0,0,0,2.365-6.175,8.584,8.584,0,0,0-1.971-7.226c-3.81,2.1-4.073,8.671-1.051,14.058-2.365,2.365-4.6,4.861-6.832,7.489a17.806,17.806,0,0,0,2.365-6.7,10.5,10.5,0,0,0-2.365-8.54c-4.6,2.5-4.861,10.248-1.182,16.686-2.365,2.89-4.6,5.781-6.832,8.8a18.461,18.461,0,0,0,1.971-5.912,10.5,10.5,0,0,0-2.365-8.54c-4.6,2.5-4.861,10.248-1.314,16.554-1.971,2.759-3.81,5.518-5.65,8.277a20.245,20.245,0,0,0,2.1-8.146,10,10,0,0,0-3.285-8.146c-4.336,3.022-3.679,10.9.788,16.817-1.971,3.022-3.81,6.044-5.65,9.2a22.187,22.187,0,0,0,.394-7.752c-.526-3.416-2.234-6.832-5.255-8.671-4.2,4.2-2.1,12.613,3.679,18.394-2.1,3.679-4.2,7.489-6.175,11.3a22.055,22.055,0,0,0,.526-8.277c-.526-3.416-2.234-6.832-5.255-8.671-4.2,4.2-2.1,12.744,3.81,18.525-2.1,4.073-4.2,8.277-6.175,12.481a25.884,25.884,0,0,0,.394-8.409,13.661,13.661,0,0,0-6.175-10.117c-4.861,4.861-2.365,14.715,4.336,21.547-2.1,4.467-4.2,8.934-6.175,13.27-.131.263.263.394.394.263l7.095-13.8c3.547,1.445,7.226,2.759,11.036,2.759,4.073,0,8.277-1.445,10.9-4.6-3.942-5.387-13.664-4.6-21.416.657,2.234-4.336,4.467-8.671,6.832-13.007a26.118,26.118,0,0,0,9.854,3.547c3.679.394,7.752-.394,10.379-3.022-3.153-5.387-12.087-5.65-19.708-1.577,1.971-3.679,4.073-7.489,6.175-11.168a26.292,26.292,0,0,0,8.934,4.6,12.93,12.93,0,0,0,10.774-1.708c-2.365-5.65-11.036-7.095-19.051-4.2,2.1-3.547,4.2-7.095,6.438-10.642a26.932,26.932,0,0,0,9.328,4.073c3.679.657,7.752.131,10.642-2.365-2.628-5.518-11.3-6.438-19.051-3.153,1.708-2.628,3.416-5.124,5.124-7.752a25.846,25.846,0,0,0,10.511.526,12.941,12.941,0,0,0,9.066-6.044c-4.2-3.81-11.825-2.1-17.737,3.022,2.1-2.89,4.2-5.65,6.438-8.409a25.389,25.389,0,0,0,9.328,2.1,11.652,11.652,0,0,0,9.066-3.942c-3.285-4.336-10.774-3.81-17.08.263,2.1-2.5,4.2-4.993,6.438-7.358a22.479,22.479,0,0,0,8.277,1.971c2.89,0,5.912-1.051,7.62-3.285-2.89-3.81-9.985-3.153-15.372.92,1.839-1.839,3.679-3.81,5.518-5.518a18.522,18.522,0,0,0,6.963,1.577,8.3,8.3,0,0,0,6.569-2.891C581.654,381.052,576.136,381.446,571.538,384.336Z" transform="translate(-145.817 -298.916)" fill="url(#linear-gradient-11)"/>
        <path id="Path_508" data-name="Path 508" d="M661.809,354.13a10.1,10.1,0,0,0,5.912-5.912c-4.2-2.5-10.379.788-13.927,6.569.92-2.365,1.971-4.861,3.022-7.226a17.6,17.6,0,0,0,6.963-1.051,8.381,8.381,0,0,0,4.993-5.124c-3.416-1.971-8.277.394-11.43,4.861.526-1.182,1.182-2.365,1.708-3.547a19.1,19.1,0,0,0,5.387-4.336,8.423,8.423,0,0,0,1.708-6.963c-4.2,0-7.357,5.124-7.489,11.036-.657,1.182-1.182,2.365-1.839,3.679a14.951,14.951,0,0,0,.526-4.861,7.209,7.209,0,0,0-3.022-5.65c-2.89,2.5-1.839,8.014,1.708,11.956-1.051,2.365-2.1,4.6-3.022,6.963a18.344,18.344,0,0,0-.131-6.569,8.611,8.611,0,0,0-4.467-5.912c-2.759,3.416-.526,9.591,4.2,13.4-1.314,3.153-2.365,6.306-3.416,9.46a22.27,22.27,0,0,0-.263-7.226c-.788-2.891-2.5-5.781-5.255-7.095-3.285,4.073-.657,11.3,4.993,15.9-1.182,3.547-2.1,7.095-3.022,10.642a19.589,19.589,0,0,0-.394-6.175c-.788-2.89-2.5-5.781-5.255-7.095-3.285,4.073-.657,11.3,4.993,15.9-.788,3.153-1.445,6.438-2.1,9.722a22.11,22.11,0,0,0-1.051-8.277,10.483,10.483,0,0,0-6.044-6.438c-2.89,4.467.657,11.43,6.963,15.372-.657,3.547-1.314,7.095-1.839,10.642a23.2,23.2,0,0,0-2.5-7.358,11.641,11.641,0,0,0-8.146-6.044c-2.365,5.387,2.759,12.482,10.248,15.766-.657,4.2-1.182,8.54-1.577,12.744A21.508,21.508,0,0,0,636.32,408a11.641,11.641,0,0,0-8.146-6.044c-2.365,5.518,2.89,12.613,10.511,15.766-.526,4.6-.788,9.2-1.182,13.8a23.48,23.48,0,0,0-2.759-7.883,13.712,13.712,0,0,0-9.46-7.095c-2.759,6.306,3.153,14.452,11.956,18.394-.263,4.861-.526,9.854-.788,14.715a.2.2,0,1,0,.394,0c.526-5.124.92-10.248,1.445-15.372a27.451,27.451,0,0,0,11.3-1.577c3.81-1.445,7.226-4.336,8.409-8.277-5.649-3.547-14.452.788-19.576,8.54.394-4.861.92-9.722,1.445-14.715a30.443,30.443,0,0,0,10.379-.263c3.679-.92,7.095-3.285,8.54-6.7-4.861-3.81-13.4-.788-18.919,5.912q.591-6.306,1.577-12.613a26.3,26.3,0,0,0,10.117.92c3.679-.526,7.358-2.365,9.328-5.518-4.336-4.336-12.876-2.5-19.182,3.153q.788-6.109,1.971-12.219a26.367,26.367,0,0,0,10.117.394,12.94,12.94,0,0,0,9.065-6.044c-4.467-4.073-12.876-1.839-18.919,4.073.526-3.022,1.182-6.044,1.839-9.066a29.042,29.042,0,0,0,9.985-3.416c3.153-1.971,5.781-5.255,6.175-8.934-5.387-1.971-11.825,2.5-15.372,9.328.788-3.416,1.708-6.832,2.759-10.117a24.8,24.8,0,0,0,9.328-1.445,11.975,11.975,0,0,0,6.963-7.095c-4.6-2.759-11.43.526-15.766,6.569,1.051-3.153,2.1-6.175,3.285-9.2C656.291,355.312,659.181,355.181,661.809,354.13Z" transform="translate(-376.144 -312.066)" fill="url(#linear-gradient-12)"/>
      </g>
      <g id="Group_144" data-name="Group 144" transform="translate(6.701 100.772)">
        <path id="Path_509" data-name="Path 509" d="M472.783,358.8,471.6,369.836l9.066-3.416Z" transform="translate(-121.592 -171.972)" fill="none" stroke="#707070" stroke-miterlimit="10" stroke-width="1"/>
        <path id="Path_510" data-name="Path 510" d="M643.9,322.917l10.773-2.891L648.1,312.8Z" transform="translate(-521.975 -186.408)" fill="none" stroke="#707070" stroke-miterlimit="10" stroke-width="1"/>
        <path id="Path_511" data-name="Path 511" d="M716.485,360.8,713.2,371.442l9.46-1.577Z" transform="translate(-681.011 -171.344)" fill="none" stroke="#707070" stroke-miterlimit="10" stroke-width="1"/>
        <path id="Path_512" data-name="Path 512" d="M729.036,254.957,718,254.3l3.81,8.8Z" transform="translate(-693.694 -204.768)" fill="none" stroke="#707070" stroke-miterlimit="10" stroke-width="1"/>
        <rect id="Rectangle_165" data-name="Rectangle 165" width="14.452" height="14.452" transform="translate(144.116 12.899) rotate(31.81)" fill="none" stroke="#707070" stroke-miterlimit="10" stroke-width="1"/>
        <path id="Path_513" data-name="Path 513" d="M509.736,306.6l-4.073.131-.263-4.073,4.073-.263Z" transform="translate(-195.07 -189.672)" fill="url(#linear-gradient-13)"/>
        <path id="Path_514" data-name="Path 514" d="M743.755,338.9l-11.3,5.255L727.2,332.987l11.3-5.387Z" transform="translate(-720.499 -181.763)" fill="url(#linear-gradient-14)"/>
        <path id="Path_515" data-name="Path 515" d="M515.42,360.722l-7.62-2.234L510.034,351l7.489,2.1Z" transform="translate(-206.01 -174.42)" fill="url(#linear-gradient-15)"/>
        <rect id="Rectangle_166" data-name="Rectangle 166" width="7.883" height="7.883" transform="translate(277.658 101.505) rotate(-7.863)" fill="none" stroke="#707070" stroke-miterlimit="10" stroke-width="1"/>
        <ellipse id="Ellipse_52" data-name="Ellipse 52" cx="2.628" cy="2.628" rx="2.628" ry="2.628" transform="translate(24.438 122.976)" fill="url(#linear-gradient-16)"/>
        <ellipse id="Ellipse_53" data-name="Ellipse 53" cx="2.628" cy="2.628" rx="2.628" ry="2.628" transform="translate(0)" fill="url(#linear-gradient-17)"/>
        <ellipse id="Ellipse_54" data-name="Ellipse 54" cx="2.628" cy="2.628" rx="2.628" ry="2.628" transform="translate(317.031 253.703)" fill="url(#linear-gradient-18)"/>
      </g>
      <g id="Group_151" data-name="Group 151" transform="translate(48.673 113.681)">
        <g id="Group_145" data-name="Group 145" transform="translate(248.019)">
          <path id="Path_516" data-name="Path 516" d="M508.361,226.523a35.493,35.493,0,0,0-37.182,27.985,34.9,34.9,0,0,0,7.752,30.087l-3.81,10.774a1.384,1.384,0,0,0,1.839,1.708l11.562-4.73a35.769,35.769,0,0,0,14.584,4.467,35.243,35.243,0,1,0,5.255-70.291Z" transform="translate(-470.416 -226.426)" fill="none" stroke="#e4e3ff" stroke-miterlimit="10" stroke-width="1"/>
          <path id="Path_517" data-name="Path 517" d="M490.653,276.894l-4.467-3.547a3.949,3.949,0,0,1-.657-5.518l3.416-4.2a3.949,3.949,0,0,1,5.518-.657s2.5,2.5,4.6,1.445c2.365-1.051,6.963-6.175,9.328-9.985,1.577-2.628-2.628-5.65-2.628-5.65a3.949,3.949,0,0,1-.657-5.518l3.416-4.2a3.949,3.949,0,0,1,5.518-.657l4.467,3.547C528.229,249.7,499.324,283.726,490.653,276.894Z" transform="translate(-468.605 -222.929)" fill="url(#linear-gradient-19)"/>
        </g>
        <g id="Group_146" data-name="Group 146" transform="translate(372.026 179.404)">
          <path id="Path_518" data-name="Path 518" d="M410.863,363.139a30.12,30.12,0,0,0-16.423,52.948l-1.708,9.2a1.411,1.411,0,0,0,2.1,1.445l8.671-5.255a31.255,31.255,0,0,0,14.058,1.708,30.208,30.208,0,0,0-6.7-60.043Z" transform="translate(-383.804 -362.975)" fill="none" stroke="#e4e3ff" stroke-miterlimit="10" stroke-width="1"/>
          <path id="Path_519" data-name="Path 519" d="M411.8,400.679v-2.89a5.143,5.143,0,0,1,2.628-4.6,11.044,11.044,0,0,0-4.861-20.89,10.907,10.907,0,0,0-7.883,3.153,11.027,11.027,0,0,0-3.285,7.883,2.365,2.365,0,0,0,4.73,0,6.257,6.257,0,0,1,1.839-4.467,6.183,6.183,0,0,1,4.336-1.839h.131a6.253,6.253,0,0,1,2.759,11.825,10.019,10.019,0,0,0-5.255,8.934v2.89a2.355,2.355,0,0,0,2.365,2.365A2.387,2.387,0,0,0,411.8,400.679Zm0,6.438a2.365,2.365,0,1,1-2.365-2.365A2.355,2.355,0,0,1,411.8,407.117Z" transform="translate(-379.224 -360.048)" fill="url(#linear-gradient-20)"/>
        </g>
        <g id="Group_150" data-name="Group 150" transform="translate(0 16.582)">
          <g id="Group_147" data-name="Group 147">
            <path id="Path_520" data-name="Path 520" d="M672.924,241.744A41.857,41.857,0,0,1,725.74,298.5l8.014,11.562a1.454,1.454,0,0,1-1.314,2.234l-15.109-1.708a42.7,42.7,0,0,1-15.241,9.722,41.9,41.9,0,0,1-29.167-78.568Z" transform="translate(-645.919 -239.047)" fill="none" stroke="#fff" stroke-miterlimit="10" stroke-width="1.5"/>
          </g>
          <g id="Group_149" data-name="Group 149" transform="translate(15.18 10.712)">
            <g id="Group_148" data-name="Group 148">
              <path id="Path_521" data-name="Path 521" d="M700.415,295.425,661,288.067l.657-29.167,47.693,8.277Z" transform="translate(-656.27 -243.528)" fill="#9999ef"/>
              <path id="Path_522" data-name="Path 522" d="M708.693,270.849,661,262.572,688.2,247.2Z" transform="translate(-655.613 -247.2)" fill="url(#linear-gradient-21)"/>
              <rect id="Rectangle_167" data-name="Rectangle 167" width="38.757" height="32.713" transform="translate(10.296 13.866) rotate(9.922)" fill="#fff"/>
              <path id="Path_523" data-name="Path 523" d="M686.787,258.9,681.4,289.907l26.277-10.248Z" transform="translate(-681.4 -243.528)" fill="url(#linear-gradient-22)"/>
              <path id="Path_524" data-name="Path 524" d="M687.8,265.2l-5.387,31.007L661,277.682Z" transform="translate(-634.723 -241.551)" fill="url(#linear-gradient-23)"/>
              <path id="Path_525" data-name="Path 525" d="M712.792,295.485,665.1,287.208,693.085,267.5Z" transform="translate(-665.1 -240.829)" fill="#adadea" opacity="0.25"/>
              <path id="Path_526" data-name="Path 526" d="M712.792,294.449,665.1,286.172,692.3,270.8Z" transform="translate(-665.1 -239.793)" fill="url(#linear-gradient-24)"/>
            </g>
          </g>
        </g>
      </g>
      <g id="Group_155" data-name="Group 155" transform="translate(-26.014 360.256)">
        <g id="Group_152" data-name="Group 152" transform="translate(79.75)">
          <path id="Path_527" data-name="Path 527" d="M720.3,525.514l-38.233,3.022L673.4,417.122l38.1-3.022Z" transform="translate(-673.4 -414.1)" fill="url(#linear-gradient-25)"/>
          <rect id="Rectangle_168" data-name="Rectangle 168" width="38.235" height="14.978" transform="translate(5.852 77.011) rotate(-4.472)" fill="#abbdff" opacity="0.55"/>
          <rect id="Rectangle_169" data-name="Rectangle 169" width="38.235" height="6.307" transform="translate(7.295 95.925) rotate(-4.472)" fill="#abbdff" opacity="0.55"/>
        </g>
        <g id="Group_153" data-name="Group 153" transform="translate(46.471 3.022)">
          <path id="Path_528" data-name="Path 528" d="M742.34,526.237H709.1V416.4h33.24Z" transform="translate(-709.061 -416.4)" fill="url(#linear-gradient-26)"/>
          <rect id="Rectangle_170" data-name="Rectangle 170" width="33.24" height="15.503" transform="translate(0 79.908)" fill="#abbdff" opacity="0.55"/>
          <rect id="Rectangle_171" data-name="Rectangle 171" width="33.24" height="6.044" transform="translate(0 99.232)" fill="#abbdff" opacity="0.55"/>
        </g>
        <g id="Group_154" data-name="Group 154" transform="translate(0 3.022)">
          <path id="Path_529" data-name="Path 529" d="M780.91,526.237H734.4V416.4h46.51Z" transform="translate(-734.4 -416.4)" fill="url(#linear-gradient-27)"/>
          <rect id="Rectangle_172" data-name="Rectangle 172" width="46.379" height="6.701" transform="translate(0.032 17.546)" fill="#c5cffc" opacity="0.75"/>
          <rect id="Rectangle_173" data-name="Rectangle 173" width="46.379" height="6.044" transform="translate(0.032 89.546)" fill="#c5cffc" opacity="0.75"/>
        </g>
      </g>
      <g id="Group_187" data-name="Group 187" transform="translate(72.912 156.715)">
        <path id="Path_530" data-name="Path 530" d="M526.505,549.008S513.63,436.674,561.322,385.04c35.211-38.1,83.035-40.466,115.618-34.554C775.216,368.223,742.5,547.694,742.5,547.694" transform="translate(-524.922 -231.294)" fill="url(#linear-gradient-28)"/>
        <g id="Group_171" data-name="Group 171" transform="translate(11.284 127.45)">
          <g id="Group_158" data-name="Group 158" transform="translate(35.758)">
            <path id="Path_531" data-name="Path 531" d="M687.153,389.181c-6.832-12.482-21.284-33.634-68.845-32.977-42.569.526-65.3,45.722-69.765,54.524l-.788,1.577L537.9,546.448H696.612S694.116,401.794,687.153,389.181Z" transform="translate(-537.9 -356.184)" fill="#ffeefc"/>
            <g id="Group_156" data-name="Group 156" transform="translate(41.123 3.725)">
              <path id="Path_532" data-name="Path 532" d="M550.2,370.051c33.109-11.562,62.145-9.591,93.02,6.963" transform="translate(-541.791 -357.858)" fill="none" stroke="#f4dce9" stroke-miterlimit="10" stroke-width="2"/>
              <path id="Path_533" data-name="Path 533" d="M547.9,374.379c14.846-6.175,31.138-7.62,47.167-6.832,16.029.92,31.8,4.2,47.43,7.489" transform="translate(-538.046 -356.406)" fill="none" stroke="#f4dce9" stroke-miterlimit="10" stroke-width="2"/>
              <path id="Path_534" data-name="Path 534" d="M548.4,381.068a216.688,216.688,0,0,1,100.509-3.547" transform="translate(-545.115 -354.555)" fill="none" stroke="#f4dce9" stroke-miterlimit="10" stroke-width="2"/>
              <path id="Path_535" data-name="Path 535" d="M540.9,382.855a433.951,433.951,0,0,1,67.794-5.255c11.956,0,24.306.526,35.342,5.387" transform="translate(-530.389 -353.189)" fill="none" stroke="#f4dce9" stroke-miterlimit="10" stroke-width="2"/>
              <path id="Path_536" data-name="Path 536" d="M542.9,388.252A278.861,278.861,0,0,1,649.321,387.2" transform="translate(-538.302 -351.623)" fill="none" stroke="#f4dce9" stroke-miterlimit="10" stroke-width="2"/>
              <path id="Path_537" data-name="Path 537" d="M538.9,391.361a1024.792,1024.792,0,0,1,113.648.131" transform="translate(-536.272 -349.345)" fill="none" stroke="#f4dce9" stroke-miterlimit="10" stroke-width="2"/>
              <path id="Path_538" data-name="Path 538" d="M540.4,398.27a962.156,962.156,0,0,1,101.166,1.445" transform="translate(-527.262 -346.925)" fill="none" stroke="#f4dce9" stroke-miterlimit="10" stroke-width="2"/>
              <path id="Path_539" data-name="Path 539" d="M534.4,403.7a447.87,447.87,0,0,0,107.735,2.628" transform="translate(-519.948 -344.998)" fill="none" stroke="#f4dce9" stroke-miterlimit="10" stroke-width="2"/>
              <path id="Path_540" data-name="Path 540" d="M540.4,411c32.846,2.1,65.692,3.022,98.538,2.5" transform="translate(-524.634 -342.707)" fill="none" stroke="#f4dce9" stroke-miterlimit="10" stroke-width="2"/>
              <path id="Path_541" data-name="Path 541" d="M539.8,416.7a313.2,313.2,0,0,0,103.268,2.891" transform="translate(-527.976 -340.918)" fill="none" stroke="#f4dce9" stroke-miterlimit="10" stroke-width="2"/>
              <path id="Path_542" data-name="Path 542" d="M547.4,428.3c29.3,2.628,58.729,3.81,88.028,3.547" transform="translate(-530.32 -337.277)" fill="none" stroke="#f4dce9" stroke-miterlimit="10" stroke-width="2"/>
              <path id="Path_543" data-name="Path 543" d="M541.9,436.4a1013.6,1013.6,0,0,0,103.794,2.1" transform="translate(-533.36 -334.735)" fill="none" stroke="#f4dce9" stroke-miterlimit="10" stroke-width="2"/>
              <path id="Path_544" data-name="Path 544" d="M538.4,441.4q58.138,3.547,116.275,2.234" transform="translate(-537.743 -333.166)" fill="none" stroke="#f4dce9" stroke-miterlimit="10" stroke-width="2"/>
              <path id="Path_545" data-name="Path 545" d="M536.4,450.6H642.164" transform="translate(-522.605 -330.279)" fill="none" stroke="#f4dce9" stroke-miterlimit="10" stroke-width="2"/>
              <path id="Path_546" data-name="Path 546" d="M539.4,455.1c38.5,1.314,77.123,2.759,115.618,4.073" transform="translate(-539.4 -328.866)" fill="none" stroke="#f4dce9" stroke-miterlimit="10" stroke-width="2"/>
              <path id="Path_547" data-name="Path 547" d="M533.4,462.4c37.445,2.759,74.889,4.861,112.334,6.044" transform="translate(-522.232 -326.575)" fill="none" stroke="#f4dce9" stroke-miterlimit="10" stroke-width="2"/>
              <path id="Path_548" data-name="Path 548" d="M537.9,469.7c38.1.131,76.2,1.051,114.3,3.022" transform="translate(-534.615 -324.284)" fill="none" stroke="#f4dce9" stroke-miterlimit="10" stroke-width="2"/>
              <path id="Path_549" data-name="Path 549" d="M540.9,481.618a497.279,497.279,0,0,1,97.881,1.445" transform="translate(-525.134 -321.092)" fill="none" stroke="#f4dce9" stroke-miterlimit="10" stroke-width="2"/>
              <path id="Path_550" data-name="Path 550" d="M539.9,489.6H643.037" transform="translate(-528.076 -318.039)" fill="none" stroke="#f4dce9" stroke-miterlimit="10" stroke-width="2"/>
              <path id="Path_551" data-name="Path 551" d="M544.4,495.5l78.831.788" transform="translate(-514.182 -316.187)" fill="none" stroke="#f4dce9" stroke-miterlimit="10" stroke-width="2"/>
              <path id="Path_552" data-name="Path 552" d="M561.1,367.4c.657-1.708,2.628-2.5,4.336-3.022,23.386-8.014,52.817-6.963,75.546,2.628" transform="translate(-553.874 -359.02)" fill="none" stroke="#f4dce9" stroke-miterlimit="10" stroke-width="2"/>
            </g>
            <g id="Group_157" data-name="Group 157" transform="translate(62.013)" opacity="0.4">
              <path id="Path_553" data-name="Path 553" d="M580.156,359.358l.92,1.314c5.387.657,15.109,2.234,22.2,9.2a17.262,17.262,0,0,0,7.62,4.467c2.891.788,6.175.394,8.146-1.839a10.594,10.594,0,0,0,1.971-4.467,20.358,20.358,0,0,0-.788-10.117c0-.131,0-.131-.131-.263a118.474,118.474,0,0,0-21.416-1.445A59.484,59.484,0,0,0,580.156,359.358Z" transform="translate(-580.156 -356.185)" fill="#f4dce9"/>
            </g>
          </g>
          <g id="Group_166" data-name="Group 166" transform="translate(153.347 5.144)">
            <g id="Group_165" data-name="Group 165" transform="translate(126.26 13.893)">
              <g id="Group_159" data-name="Group 159" transform="translate(0)">
                <path id="Path_554" data-name="Path 554" d="M454.005,416.036a97.092,97.092,0,0,0,18.131-19.97c.92-1.445,9.591-16.554,8.8-16.817-1.971-.788-10.117,10.248-10.117,10.248s10.117-14.058,7.883-15.372c-.92-.526-11.036,13.007-11.036,13.007s9.985-14.058,8.014-15.372c-1.051-.657-11.43,13.4-11.43,13.4s8.671-13.533,6.963-14.452c-1.577-.788-11.693,12.482-16.16,19.576s-7.095,22.2-7.095,22.2" transform="translate(-447.961 -370.674)" fill="url(#linear-gradient-29)"/>
              </g>
              <g id="Group_160" data-name="Group 160" transform="translate(0 6.382)">
                <path id="Path_555" data-name="Path 555" d="M463.241,402.949a106.5,106.5,0,0,1,3.942-14.058,43.388,43.388,0,0,1,7.095-12.744c.394-.394,1.051-.92,1.445-.394a.984.984,0,0,1,.131.657,12.446,12.446,0,0,1-.92,3.81c-.263.788-.657,1.577-.92,2.365a5.58,5.58,0,0,0-.526,3.81,7.853,7.853,0,0,0,.788,1.445c2.759,4.336,3.416,12.744-4.073,18.788" transform="translate(-463.241 -375.532)" fill="url(#linear-gradient-30)"/>
              </g>
              <g id="Group_162" data-name="Group 162" transform="translate(8.504 17.456)">
                <g id="Group_161" data-name="Group 161" transform="translate(0)">
                  <path id="Path_556" data-name="Path 556" d="M465.695,384.012c2.89,4.73,2.628,11.825-1.839,15.635-.131.131-.394,0-.263-.263a15.051,15.051,0,0,0,3.285-6.832,12.871,12.871,0,0,0-1.445-8.277c0-.263.263-.394.263-.263Z" transform="translate(-463.557 -383.961)" fill="#f49e87"/>
                </g>
              </g>
              <g id="Group_164" data-name="Group 164" transform="translate(14 13.245)">
                <g id="Group_163" data-name="Group 163">
                  <path id="Path_557" data-name="Path 557" d="M454.319,380.814c1.971.92,3.81,1.971,5.65,3.022a31.865,31.865,0,0,1,2.628,1.839,11.775,11.775,0,0,1,2.365,1.971c.131.131,0,.394-.263.263a18.31,18.31,0,0,1-2.5-1.971c-.788-.657-1.708-1.182-2.628-1.839-1.708-1.051-3.416-2.234-5.255-3.285-.131,0,0-.131,0,0Z" transform="translate(-454.261 -380.756)" fill="#f49e87"/>
                </g>
              </g>
            </g>
            <path id="Path_558" data-name="Path 558" d="M464.8,360.1s27.065,9.591,44.671,33.24c14.189,19.182,33.766,68.714,33.766,68.714l47.3-56.1s6.569,2.234,11.43,10.511c0,5.255-39.021,100.64-61.357,100.246s-60.7-48.612-60.7-48.612" transform="translate(-464.8 -360.1)" fill="#f73179"/>
            <path id="Path_559" data-name="Path 559" d="M521.8,468.953c9.46,10.117,22.6,22.861,34.554,29.43-4.993-14.715-12.087-42.306-18.394-93.283l-13.007,50.977Z" transform="translate(-494.078 -345.977)" fill="#cc729b" opacity="0.45"/>
          </g>
          <g id="Group_167" data-name="Group 167" transform="translate(25.904 2.516)">
            <path id="Path_560" data-name="Path 560" d="M687.945,547.162C690.967,436.274,669.683,358.1,669.683,358.1s-26.934,6.044-54.393,36.525c-14.583,16.949-.131,28.248-4.861,55.444-8.54,50.32-14.452,97.093-14.452,97.093Z" transform="translate(-595.976 -358.1)" fill="#f73179"/>
            <path id="Path_561" data-name="Path 561" d="M610.221,435.008c-7.883,46.116-13.4,89.341-14.321,96.173,44.671.394,73.707-14.452,83.955-22.861,2.5,0,7.095.131,8.146.263v-6.832a23.585,23.585,0,0,0-4.467-11.3l-55.05-3.285S653.84,438.424,653.84,415.3C653.84,415.169,618.761,384.82,610.221,435.008Z" transform="translate(-595.637 -343.039)" fill="#cc729b" opacity="0.45"/>
            <path id="Path_562" data-name="Path 562" d="M595.9,364.6s3.153,37.445,3.153,47.561c2.5,2.5,13.8,6.175,13.8,6.175s-8.8,4.336-8.8,7.226,23.386,59.911,27.985,85.531" transform="translate(-539.667 -356.06)" fill="none" stroke="#d31e67" stroke-miterlimit="10" stroke-width="1"/>
          </g>
          <g id="Group_168" data-name="Group 168" transform="translate(153.479 5.801)">
            <path id="Path_563" data-name="Path 563" d="M573.814,421.037c3.547,38.233,7.62,125.341,7.62,125.341h-50.32C536.895,429.445,529.8,360.6,529.8,360.6S569.478,374.4,573.814,421.037Z" transform="translate(-529.8 -360.6)" fill="#f73179"/>
            <path id="Path_564" data-name="Path 564" d="M564.932,367.4s6.569,27.065,5.781,40.992c-2.1,2.89-11.3,8.014-11.3,8.014s9.328,3.022,9.854,5.912c.394,2.891-16.16,66.48-16.817,92.495" transform="translate(-548.903 -358.466)" fill="none" stroke="#d31e67" stroke-miterlimit="10" stroke-width="1"/>
          </g>
          <g id="Group_170" data-name="Group 170" transform="translate(0 40.224)">
            <g id="Group_169" data-name="Group 169" transform="translate(104.341 106.829)">
              <path id="Path_565" data-name="Path 565" d="M579.121,473.746a51.547,51.547,0,0,1,14.189-4.73c1.971-.394,8.54-1.577,9.066-.394.657,1.577-7.358,3.416-5.255,3.416,2.234,0,16.554-1.839,16.686-.394s-13.533,4.336-13.533,4.336,15.766-1.314,15.766.526c.131,1.839-14.584,2.759-14.584,2.759s13.533-.263,13.664,1.577c0,1.708-13.927,1.577-13.927,1.577s10.774.657,10.774,1.839-16.686,4.2-35.868-.788" transform="translate(-576.099 -468.11)" fill="url(#linear-gradient-31)"/>
            </g>
            <path id="Path_566" data-name="Path 566" d="M688.072,419.515C684.393,445.4,648,496.637,648,496.637l62.408,1.577a14.6,14.6,0,0,1,1.445,12.219c-3.941,6.7-67.532,26.408-95.516,26.408-30.218,0-14.058-96.173,28.9-150.041" transform="translate(-600.811 -386.8)" fill="#f73179"/>
          </g>
        </g>
        <g id="Group_186" data-name="Group 186" transform="translate(69.506)">
          <g id="Group_172" data-name="Group 172" transform="translate(92.539 62.612)">
            <ellipse id="Ellipse_55" data-name="Ellipse 55" cx="17.343" cy="18.789" rx="17.343" ry="18.789" transform="translate(34.623 39.612) rotate(-176.523)" fill="#103fcd"/>
            <ellipse id="Ellipse_56" data-name="Ellipse 56" cx="16.424" cy="18.395" rx="16.424" ry="18.395" transform="translate(32.805 39.558) rotate(-176.521)" fill="#0d30bf"/>
            <path id="Path_567" data-name="Path 567" d="M578.475,327.629c-.657,9.985-8.146,17.606-16.949,16.949s-15.372-9.065-14.715-18.919c.657-9.985,8.146-17.605,16.949-16.949C572.562,309.235,579.131,317.644,578.475,327.629Z" transform="translate(-546.459 -306.26)" fill="#f73179"/>
            <ellipse id="Ellipse_57" data-name="Ellipse 57" cx="9.329" cy="11.825" rx="9.329" ry="11.825" transform="translate(23.631 32.705) rotate(-176.522)" fill="#cc729b" opacity="0.45"/>
          </g>
          <g id="Group_173" data-name="Group 173">
            <path id="Path_568" data-name="Path 568" d="M660.464,280.491c-1.971-2.628-2.759-5.781-4.336-8.671-3.679-7.095-11.562-11.168-19.445-12.35a15.094,15.094,0,0,0-8.014.526c-4.336,1.708-7.226,6.306-11.693,7.883a18.423,18.423,0,0,1-5.255.92,77.732,77.732,0,0,0-18,3.416,24,24,0,0,0-6.438,3.022,14.474,14.474,0,0,0-4.993,16.16c.92,2.628,2.628,5.124,2.891,7.883.263,2.891-1.051,5.912,0,8.671a11.027,11.027,0,0,0,2.891,4.073,27.4,27.4,0,0,0,7.095,5.781c2.628,1.445,5.65,1.971,8.54,2.628a50,50,0,0,0,11.693,1.445,18.6,18.6,0,0,0,11.168-3.285c2.759-1.971,4.73-4.861,6.7-7.752" transform="translate(-581.5 -259.18)" fill="#0d1d7d"/>
          </g>
          <g id="Group_174" data-name="Group 174" transform="translate(1.71 16.42)">
            <path id="Path_569" data-name="Path 569" d="M638.915,274.072c-6.438,2.89-13.007,5.912-17.605,11.168-3.153,3.679-5.255,8.146-7.883,12.219s-6.044,8.014-10.774,9.328a21.707,21.707,0,0,1-9.2,0,4.913,4.913,0,0,1-3.285-1.314,5.513,5.513,0,0,1-.92-3.153c-.394-3.942-1.445-8.014-4.2-10.774a8.555,8.555,0,0,0-3.547-1.971,17.966,17.966,0,0,1,2.1,5.781c.263,2.89-1.051,5.912,0,8.671a11.026,11.026,0,0,0,2.891,4.073,27.4,27.4,0,0,0,7.095,5.781c2.628,1.445,5.65,1.971,8.54,2.628a49.992,49.992,0,0,0,11.693,1.445,18.6,18.6,0,0,0,11.168-3.285c2.759-1.971,4.73-4.861,6.7-7.752L658.754,276.7C652.842,268.554,642.725,272.364,638.915,274.072Z" transform="translate(-581.5 -271.678)" fill="#081466"/>
          </g>
          <path id="Path_570" data-name="Path 570" d="M583.63,340.7l-8.54,20.5a9.808,9.808,0,0,0,0,7.226c2.1,4.73,6.569,12.35,13.927,12.35,11.825,0,13.27-14.189,13.27-14.189l1.182-18.919" transform="translate(-515.176 -233.595)" fill="#f9c6b9"/>
          <path id="Path_571" data-name="Path 571" d="M594.27,358.306l.657-10.642-19.97-6.963-.657,1.577A44.251,44.251,0,0,0,594.27,358.306Z" transform="translate(-506.503 -233.595)" fill="#f49e87"/>
          <path id="Path_572" data-name="Path 572" d="M609.145,295.491a26.89,26.89,0,0,1,6.044,8.146c4.336,9.066,1.708,19.051-.131,28.379-1.839,9.46-3.153,22.729-9.591,30.481-16.686,20.1-46.116-.131-51.5-20.233-3.679-13.8-6.044-32.583,4.073-44.408C569.861,283.8,595.612,283.141,609.145,295.491Z" transform="translate(-498.254 -250.531)" fill="#f9c6b9"/>
          <g id="Group_175" data-name="Group 175" transform="translate(34.204 19.173)">
            <path id="Path_573" data-name="Path 573" d="M556.649,331.881c9.46,1.182,28.116-13.533,37.05-31.4,1.971.263,2.891,2.89,4.73,3.679a3.231,3.231,0,0,0,2.233.131,1.69,1.69,0,0,0,1.051-1.708,6.234,6.234,0,0,0,1.839,2.234,2.961,2.961,0,0,0,2.759.394,2.133,2.133,0,0,0,1.314-2.365c5.781,1.182,11.43,10.379,12.744,16.16,1.708,7.752,2.365,16.292-.526,29.3,6.438-.526,13.533-10.642,16.554-16.292,6.306-11.562,1.971-26.671-6.306-36.131a26.709,26.709,0,0,0-7.62-6.175c-3.547-1.577-7.489-1.182-11.168-1.971-5.912-6.7-17.606-12.613-27.985-13.8-11.43-1.314-26.014,5.255-32.977,14.058-6.963,8.671-11.431,20.1-10.642,31.8.657,10.379,7.62,19.182,15.241,26.277" transform="translate(-539.611 -273.772)" fill="#0d1d7d"/>
          </g>
          <g id="Group_178" data-name="Group 178" transform="translate(53.739 95.675)">
            <g id="Group_176" data-name="Group 176" transform="translate(0)">
              <path id="Path_574" data-name="Path 574" d="M598.211,344.35c-1.445-.131-2.89-.263-4.336-.526a17.722,17.722,0,0,1-11.036-6.7A8.558,8.558,0,0,1,581,332.657a.657.657,0,1,1,1.314,0,8.011,8.011,0,0,0,1.577,3.679,17.308,17.308,0,0,0,10.248,6.175,37.557,37.557,0,0,0,12.087.263.657.657,0,1,1,0,1.314A52.687,52.687,0,0,1,598.211,344.35Z" transform="translate(-581 -332)" fill="#081466"/>
            </g>
            <g id="Group_177" data-name="Group 177" transform="translate(22.919 9.31)">
              <path id="Path_575" data-name="Path 575" d="M583.389,339.5a5.061,5.061,0,0,0-3.679-.131c-4.2,1.445.526,6.569,4.2,3.81l.788-.788A2.224,2.224,0,0,0,583.389,339.5Z" transform="translate(-578.061 -339.086)" fill="#081466"/>
            </g>
          </g>
          <path id="Path_576" data-name="Path 576" d="M568.623,321.312c.92.263,0,9.328.657,10.511.526,1.182,2.628,3.285,1.051,4.336-1.445.92-3.942,1.445-5.387.263a3.7,3.7,0,0,1-1.182-3.022,23.067,23.067,0,0,1,.788-5.124C564.813,326.436,565.732,320.655,568.623,321.312Z" transform="translate(-468.637 -239.696)" fill="url(#linear-gradient-32)"/>
          <path id="Path_577" data-name="Path 577" d="M560.922,320.438c-.394,1.577-1.708,2.5-2.891,2.1s-1.708-1.839-1.183-3.416c.394-1.577,1.708-2.5,2.891-2.1S561.447,318.861,560.922,320.438Z" transform="translate(-449.505 -241.055)" fill="#081466"/>
          <path id="Path_578" data-name="Path 578" d="M580.846,317.9a2.641,2.641,0,0,1-2.891,2.234c-1.182-.263-1.708-1.839-1.314-3.285a2.641,2.641,0,0,1,2.89-2.234C580.583,314.873,581.24,316.319,580.846,317.9Z" transform="translate(-495.443 -241.797)" fill="#081466"/>
          <path id="Path_579" data-name="Path 579" d="M555,312.3a1.627,1.627,0,0,0,.263-.394,2.231,2.231,0,0,1,.788-.788,11.552,11.552,0,0,1,1.314-.788c.263,0,.526-.131.788-.131h.788c.263.131.526.131.657.263.263.131.394.263.657.394a3.1,3.1,0,0,1,.788,1.182,4.063,4.063,0,0,1,.263,1.051v.394l-.263-.263a2.868,2.868,0,0,1-.526-.657,5.716,5.716,0,0,0-.92-.788,4.668,4.668,0,0,0-1.183-.526,3.638,3.638,0,0,0-1.182-.131,1.185,1.185,0,0,0-.657.131c-.131,0-.394.131-.526.131a2.139,2.139,0,0,0-.788.394A1.436,1.436,0,0,1,555,312.3Z" transform="translate(-447.525 -243.167)" fill="#081466"/>
          <path id="Path_580" data-name="Path 580" d="M574.5,310.09a1.629,1.629,0,0,0,.263-.394,4.306,4.306,0,0,1,.788-1.051A13.761,13.761,0,0,1,577,307.594a2.436,2.436,0,0,1,.92-.263,4.269,4.269,0,0,1,2.1,0,1.9,1.9,0,0,1,.92.263,3.055,3.055,0,0,1,1.445.92,4.19,4.19,0,0,1,.788.92.242.242,0,1,1-.131.131,3.855,3.855,0,0,0-1.051-.526c-.263-.131-.394-.131-.657-.263s-.526-.131-.788-.263a6.942,6.942,0,0,0-1.708-.131,7.688,7.688,0,0,0-1.708.263c-.263.131-.526.131-.788.263s-.526.131-.657.263a7.734,7.734,0,0,1-1.051.526C574.631,310.09,574.5,310.09,574.5,310.09Z" transform="translate(-495.273 -244.109)" fill="#081466"/>
          <g id="Group_179" data-name="Group 179" transform="translate(91.559 101.141)">
            <path id="Path_581" data-name="Path 581" d="M573.664,336.738a9.294,9.294,0,0,1-8.277-.526c-.263-.131-.657,0-.657.263-.92,6.832,2.628,8.671,4.2,8.8,4.861.263,5.387-5.518,5.255-8.146C574.321,336.738,573.927,336.607,573.664,336.738Z" transform="translate(-564.58 -336.161)" fill="#fff"/>
          </g>
          <g id="Group_180" data-name="Group 180" transform="translate(74.882 83.746)">
            <path id="Path_582" data-name="Path 582" d="M585.7,332.747c2.1-2.1,2.759-6.7-.657-8.8a8.45,8.45,0,0,0-5.912-.788,5.3,5.3,0,0,0-3.547,5.255c0,2.89,1.183,4.993,3.81,5.912A6.339,6.339,0,0,0,585.7,332.747Z" transform="translate(-575.575 -322.921)" fill="#efa39c"/>
          </g>
          <g id="Group_181" data-name="Group 181" transform="translate(105.504 86.37)">
            <path id="Path_583" data-name="Path 583" d="M562.076,333.96c1.577-1.971,2.1-6.175-.394-8.146a5.107,5.107,0,0,0-4.336-.657,5.178,5.178,0,0,0-2.759,4.861c0,2.628.788,4.6,2.759,5.387A4.039,4.039,0,0,0,562.076,333.96Z" transform="translate(-554.587 -324.918)" fill="#efa39c"/>
          </g>
          <g id="Group_185" data-name="Group 185" transform="translate(33.062 28.561)">
            <g id="Group_184" data-name="Group 184" transform="translate(18.574)">
              <g id="Group_182" data-name="Group 182" transform="translate(1.445 0.559)">
                <path id="Path_584" data-name="Path 584" d="M559.7,316.891a50.17,50.17,0,0,1,14.058-23.124,44.954,44.954,0,0,1,24.437-11.43c6.832-.92,5.518-1.839,11.693.394l4.336,3.022c-11.036-1.182-21.81,2.759-30.744,9.328a44.783,44.783,0,0,0-17.211,27.459" transform="translate(-559.7 -281.344)" fill="#0d30bf"/>
              </g>
              <g id="Group_183" data-name="Group 183" transform="translate(0)">
                <path id="Path_585" data-name="Path 585" d="M560.8,315.974a50.17,50.17,0,0,1,14.058-23.124A44.954,44.954,0,0,1,599.3,281.42c6.832-.92,8.54-.526,12.876.788l3.153,2.759c-11.036-1.182-21.81,2.759-30.744,9.328a44.782,44.782,0,0,0-17.211,27.459" transform="translate(-560.8 -280.918)" fill="#103fcd"/>
              </g>
            </g>
            <path id="Path_586" data-name="Path 586" d="M623.206,327.445c-.657,10.379-8.934,18.262-18.525,17.737s-16.817-9.46-16.16-19.839,8.934-18.262,18.525-17.737C616.506,308.131,623.732,317.066,623.206,327.445Z" transform="translate(-586.501 -272.551)" fill="#103fcd"/>
            <ellipse id="Ellipse_58" data-name="Ellipse 58" cx="16.424" cy="18.395" rx="16.424" ry="18.395" transform="translate(33.556 73.613) rotate(-176.524)" fill="#0d30bf"/>
            <ellipse id="Ellipse_59" data-name="Ellipse 59" cx="15.898" cy="18" rx="15.898" ry="18" transform="matrix(-0.998, -0.061, 0.061, -0.998, 31.738, 73.451)" fill="#f73179"/>
            <ellipse id="Ellipse_60" data-name="Ellipse 60" cx="9.329" cy="11.825" rx="9.329" ry="11.825" transform="translate(24.376 66.756) rotate(-176.522)" fill="#cc729b" opacity="0.45"/>
          </g>
        </g>
      </g>
      <g id="Group_191" data-name="Group 191" transform="translate(413.467 369.773)">
        <g id="Group_189" data-name="Group 189" transform="translate(1.124 0)">
          <g id="Group_188" data-name="Group 188">
            <path id="Path_587" data-name="Path 587" d="M438.776,461.621c-1.314-2.234-4.467-3.022-5.255-5.65-1.051-3.153,2.5-6.044,3.81-8.54,1.577-2.89,2.1-6.175-.131-8.934-5.124-6.306-17.211-1.708-22.992,1.314-5.518,2.759-11.825,9.722-7.095,16.029,3.942,5.255-6.569,4.993-2.759,10.642,1.971,2.89,6.044,3.416,8.409,5.912,2.234,2.234,1.577,6.044,4.993,7.226,8.671,3.022,11.825-5.124,17.343-9.854,1.839-1.577,4.073-3.547,4.2-5.912A4.642,4.642,0,0,0,438.776,461.621ZM432.338,431.4c-4.993-3.022-1.182-10.9,4.2-9.985,2.234.394,3.153,1.839,3.81,3.547A5.378,5.378,0,0,1,432.338,431.4Zm6.832,24.7c-2.365-1.445.526-6.044,3.022-5.65,1.051.131,1.445.92,1.839,1.708C444.82,454.132,441.666,457.548,439.17,456.1Z" transform="translate(-403.506 -421.344)" fill="url(#linear-gradient-33)"/>
          </g>
        </g>
        <g id="Group_190" data-name="Group 190" transform="translate(26.014 61.431)">
          <path id="Path_588" data-name="Path 588" d="M409.236,501.078H398.2v-5.255h11.036a6.448,6.448,0,0,0,6.438-6.438v-9.591a6.448,6.448,0,0,0-6.438-6.438H398.2V468.1h11.036a11.719,11.719,0,0,1,11.693,11.693v9.591A11.719,11.719,0,0,1,409.236,501.078Z" transform="translate(-398.2 -468.1)" fill="url(#linear-gradient-34)"/>
        </g>
        <path id="Path_589" data-name="Path 589" d="M433.42,511.8H418.311A10.542,10.542,0,0,1,407.8,501.29V462.4h36.131v38.89A10.542,10.542,0,0,1,433.42,511.8Z" transform="translate(-407.8 -408.458)" fill="url(#linear-gradient-35)"/>
      </g>
      <g id="Group_206" data-name="Group 206" transform="translate(176.186 373.52)">
        <path id="Path_590" data-name="Path 590" d="M644.868,501.82H523.6v-2.234a5.328,5.328,0,0,1,5.387-5.387H644.868Z" transform="translate(-523.6 -402.225)" fill="#7490f7"/>
        <path id="Path_591" data-name="Path 591" d="M443.507,429.063l-18.131,94.728H581.592l18.262-95.911A3.186,3.186,0,0,0,596.7,424.2H449.42A5.629,5.629,0,0,0,443.507,429.063Z" transform="translate(-349.568 -424.196)" fill="#9494f2"/>
        <path id="Path_592" data-name="Path 592" d="M440.707,429.063l-18.131,94.728H578.792l18.262-95.911A3.186,3.186,0,0,0,593.9,424.2H446.62A5.81,5.81,0,0,0,440.707,429.063Z" transform="translate(-343.089 -424.196)" fill="url(#linear-gradient-36)"/>
        <path id="Path_593" data-name="Path 593" d="M500.065,465.668a13.325,13.325,0,0,1-12.744,11.168,9.444,9.444,0,0,1-9.591-11.168A13.325,13.325,0,0,1,490.474,454.5,9.444,9.444,0,0,1,500.065,465.668Z" transform="translate(-318.492 -414.685)" fill="#ffe1ff"/>
        <g id="Group_205" data-name="Group 205" transform="translate(10.774 94.077)">
          <g id="Group_192" data-name="Group 192" transform="translate(0 0.394)">
            <rect id="Rectangle_174" data-name="Rectangle 174" width="20.627" height="2.628" fill="#646ef2"/>
          </g>
          <g id="Group_193" data-name="Group 193" transform="translate(27.065)">
            <rect id="Rectangle_175" data-name="Rectangle 175" width="1.051" height="3.679" transform="translate(0)" fill="#646ef2"/>
          </g>
          <g id="Group_194" data-name="Group 194" transform="translate(29.167)">
            <rect id="Rectangle_176" data-name="Rectangle 176" width="1.051" height="3.679" transform="translate(0)" fill="#646ef2"/>
          </g>
          <g id="Group_195" data-name="Group 195" transform="translate(31.27)">
            <rect id="Rectangle_177" data-name="Rectangle 177" width="1.051" height="3.679" transform="translate(0)" fill="#646ef2"/>
          </g>
          <g id="Group_196" data-name="Group 196" transform="translate(33.372)">
            <rect id="Rectangle_178" data-name="Rectangle 178" width="1.051" height="3.679" transform="translate(0)" fill="#646ef2"/>
          </g>
          <g id="Group_197" data-name="Group 197" transform="translate(35.474)">
            <rect id="Rectangle_179" data-name="Rectangle 179" width="1.051" height="3.679" transform="translate(0)" fill="#646ef2"/>
          </g>
          <g id="Group_198" data-name="Group 198" transform="translate(37.576)">
            <rect id="Rectangle_180" data-name="Rectangle 180" width="1.051" height="3.679" transform="translate(0)" fill="#646ef2"/>
          </g>
          <g id="Group_199" data-name="Group 199" transform="translate(39.678)">
            <rect id="Rectangle_181" data-name="Rectangle 181" width="1.051" height="3.679" transform="translate(0)" fill="#646ef2"/>
          </g>
          <g id="Group_200" data-name="Group 200" transform="translate(45.722)">
            <rect id="Rectangle_182" data-name="Rectangle 182" width="1.051" height="3.679" transform="translate(0)" fill="#646ef2"/>
          </g>
          <g id="Group_201" data-name="Group 201" transform="translate(47.824)">
            <rect id="Rectangle_183" data-name="Rectangle 183" width="1.051" height="3.679" transform="translate(0)" fill="#646ef2"/>
          </g>
          <g id="Group_202" data-name="Group 202" transform="translate(49.926)">
            <rect id="Rectangle_184" data-name="Rectangle 184" width="1.051" height="3.679" transform="translate(0)" fill="#646ef2"/>
          </g>
          <g id="Group_203" data-name="Group 203" transform="translate(55.97)">
            <rect id="Rectangle_185" data-name="Rectangle 185" width="1.051" height="3.679" transform="translate(0)" fill="#646ef2"/>
          </g>
          <g id="Group_204" data-name="Group 204" transform="translate(58.072)">
            <rect id="Rectangle_186" data-name="Rectangle 186" width="1.051" height="3.679" transform="translate(0)" fill="#646ef2"/>
          </g>
        </g>
      </g>
    </g>
  </g>
</svg>
