<svg id="design_latest-01" data-name="design latest-01" xmlns="http://www.w3.org/2000/svg" width="65.863" height="65.828" viewBox="0 0 65.863 65.828">
  <g id="Group_8" data-name="Group 8" transform="translate(0 0)">
    <path id="Path_159" data-name="Path 159" d="M492.946,202.65c-.756-.017-1.511-.034-2.267-.069h.017c-.155-1.666.515-2.456,2.25-2.13Z" transform="translate(-427.083 -169.744)" fill="purple"/>
    <path id="Path_160" data-name="Path 160" d="M462.589,22c-.464.635.824,1.855-.738,2.13-2.112.378-1.254-1.237-1.443-2.13Z" transform="translate(-401.999 -22)" fill="purple"/>
    <path id="Path_161" data-name="Path 161" d="M135.278,22c0,.738,0,1.477-.017,2.215l.017-.034H133.2l.017.034c0-.738-.017-1.477-.017-2.2C133.921,22,134.591,22,135.278,22Z" transform="translate(-131.001 -22)" fill="purple"/>
    <path id="Path_162" data-name="Path 162" d="M198.63,270.983c-6.457,0-12.9,0-19.355.017-.6,0-.79-.12-.79-.756.034-5.513-.052-11.009.052-16.521.034-1.546-.292-2.181-1.889-1.872-1.872.361-1.649-.206-1.168-1.82,1.683-5.667,5.152-7.162,10.957-6.835,10.425.584,20.9.172,31.36.155a.88.88,0,0,1,.927.567q1.778,3.658,3.641,7.3c.258.515.24.773-.378.635-2.679-.55-3.332.5-3.212,3.16.258,5.066.069,10.15.086,15.233,0,.635-.189.756-.79.756C211.613,270.983,205.121,270.983,198.63,270.983Zm-.979-21.674c-.67,3.555-3.452,2.525-5.667,2.559-3.538.052-7.076.017-10.6,0-.532,0-.738.086-.738.687.017,5.221.017,10.459,0,15.68,0,.5.137.653.653.653,3.452-.017,6.9,0,10.339-.017,1.975-.017,4.688.687,5.736-.309,1-.945.223-3.71.292-5.685.017-.567-.515-1.425.859-1.477,1.34-.052,1.271.584,1.237,1.494-.052,1.8,0,3.607-.017,5.393,0,.464.137.584.584.584q7.909-.026,15.8,0c.481,0,.618-.137.618-.618-.017-5.255-.017-10.493,0-15.749,0-.567-.189-.653-.7-.653-3.847.017-7.711-.12-11.558.052-2.215.1-3.967-.1-4.568-2.61,0-.017-.069-.017-.172-.017,0,2.7-.017,5.393.017,8.089,0,.618-.034,1.03-.824.91-.618-.086-1.374.309-1.322-.945C197.719,254.651,197.651,251.972,197.651,249.31Zm-9.119-3.778a25.557,25.557,0,0,1-4.293-.034c-3.16-.567-5,.653-5.839,3.675-.137.5-.223.635.378.635,4-.017,8.037-.275,12,.069,3.212.292,5.083-.7,5.942-3.778.12-.447.189-.567-.344-.567Zm22.326,4.242c2.1,0,4.208-.137,6.286.034,1.958.155,2.353-.361,1.168-1.923-.584-.773-.447-2.284-1.649-2.318-5.221-.1-10.442-.034-15.68-.051-.464,0-.481.069-.343.515.876,2.988,2.662,4.4,5.908,3.778A24.053,24.053,0,0,1,210.858,249.774Z" transform="translate(-165.741 -205.173)" fill="purple"/>
    <path id="Path_163" data-name="Path 163" d="M278.869,47.06c-2.713-1.425-5.77-1.082-8.845.017-.412.155-.326-.258-.326-.429a13.241,13.241,0,0,0-2.765-8.845c-.275-.361-.017-.481.258-.567a12.065,12.065,0,0,0,7.076-5.427c.292-.447.481-.326.721.034a12.023,12.023,0,0,0,7.024,5.393c.326.086.55.24.258.618a13.169,13.169,0,0,0-2.731,8.724C279.556,46.734,279.694,47.129,278.869,47.06Zm.635-8.484c-.172-.137-.258-.258-.361-.275a7.432,7.432,0,0,1-4.294-3.229c-.292-.464-.481-.034-.6.137a6.875,6.875,0,0,1-3.984,3.005c-.326.1-.567.223-.275.618a7.684,7.684,0,0,1,1.614,5.135c-.017.412.137.532.532.378a6.61,6.61,0,0,1,4.929-.017.964.964,0,0,0,.481-.034A8.133,8.133,0,0,1,279.5,38.576Z" transform="translate(-241.67 -29.886)" fill="purple"/>
    <path id="Path_164" data-name="Path 164" d="M205.822,148.462c-2.593-2.971-4.465-6.526-7.711-8.587-2.593-1.649-2.507-3.143-.962-5.221a3.93,3.93,0,0,0,.24-.464c1.425-2.834,1.357-2.782,3.692-.55,3.675,3.521,4,8.192,4.534,12.812.034.326.086.635.12.962C205.753,147.723,205.788,148.032,205.822,148.462Zm-3.074-7.385a11.237,11.237,0,0,0-2.731-5.444,2.821,2.821,0,0,0-.721-.447c-.206.738-1.271,1.528-.756,2.1A43.957,43.957,0,0,0,202.748,141.077Z" transform="translate(-183.065 -113.118)" fill="purple"/>
    <path id="Path_165" data-name="Path 165" d="M371.3,149.359c.807-4.912.515-9.892,3.9-13.911,2.817-3.332,2.988-3.28,5.049.361,1.168,2.061,1.322,3.229-.962,4.689-3.16,2.027-5.084,5.375-7.453,8.243C371.695,148.913,371.558,149.05,371.3,149.359Zm3.143-7.453a47.752,47.752,0,0,0,4.173-3.744c.618-.67-.515-1.391-.721-2.147-.051-.206-.206-.172-.721.412A11.5,11.5,0,0,0,374.443,141.906Z" transform="translate(-328.21 -113.947)" fill="purple"/>
    <path id="Path_166" data-name="Path 166" d="M151.163,112.4c-2.576,1.6-2.318-.223-3.074-2.3-.824-2.267-.773-2.7,1.254-4.208,1.975-1.477,2.164-1.563,4.19-.017s2.353,2.044,1.185,4.259C153.687,112.125,154.117,112.331,151.163,112.4Zm1.82-3.984c-.5-.395-1.271-1.271-1.511-1.151-.979.5-1.872,1.185-1.1,2.628.532.979,1.357-.137,1.855.464C152.5,109.7,152.743,109.051,152.983,108.415Z" transform="translate(-142.918 -90.537)" fill="purple"/>
    <path id="Path_167" data-name="Path 167" d="M437.113,102.858a7.6,7.6,0,0,0-1.838,5.478,1.076,1.076,0,0,1-.5.017,6.339,6.339,0,0,0-4.792,0c-.447.189-.6.034-.584-.447a7.026,7.026,0,0,0-1.425-4.671c-.292-.378-.275-.618.223-.756a6.628,6.628,0,0,0,3.847-2.988c.155-.24.326-.481.6-.069a6.917,6.917,0,0,0,4.053,3.126C436.8,102.618,436.907,102.721,437.113,102.858Zm-3.83,2.61c.12-.309.67-1.013.55-1.58a1.927,1.927,0,0,0-1.443-1.219c-.532,0-1.6.927-1.528,1.082C431.222,104.713,431.119,106.4,433.283,105.469Z" transform="translate(-374.993 -85.942)" fill="purple"/>
    <path id="Path_168" data-name="Path 168" d="M253.515,133.49a19.239,19.239,0,0,0,.017,2.439c.172,1.151-.429,1.134-1.288,1.185-1.116.069-.893-.635-.859-1.219.326-6.217-.842-11.987-4.809-17.037-.481-.6.773-.859,1.116-1.357.258-.378.412-.017.55.172A23.931,23.931,0,0,1,253.515,133.49Z" transform="translate(-224.817 -100.962)" fill="purple"/>
    <path id="Path_169" data-name="Path 169" d="M336.975,133.443a24.131,24.131,0,0,1,5.255-15.817c.137-.172.275-.567.55-.189.361.5,1.6.773,1.133,1.357-4.087,5.152-5.152,11.077-4.792,17.414.069,1.322-.859.67-1.374.79-.687.172-.807-.189-.773-.807C337.009,135.3,336.975,134.37,336.975,133.443Z" transform="translate(-299.775 -100.915)" fill="purple"/>
    <path id="Path_170" data-name="Path 170" d="M306.114,158.413v-5.461c0-.824-.258-1.614,1.185-1.563,1.46.052.893.962.893,1.563.034,3.9,0,7.8.034,11.7,0,1.116-.79.515-1.219.6-.412.086-.927.223-.91-.6C306.148,162.569,306.114,160.491,306.114,158.413Z" transform="translate(-274.204 -129.165)" fill="purple"/>
    <path id="Path_171" data-name="Path 171" d="M468.585,202.615c-1.185.1-2.662.532-2.164-1.563.292-1.2,1.477-.034,2.061-.635V200.4c.017.738.052,1.494.1,2.215Z" transform="translate(-406.912 -169.762)" fill="purple"/>
    <path id="Path_172" data-name="Path 172" d="M460.1,46.917h2.3l-.017-.017c-.567.584.773,1.8-.773,2.1-2.1.412-1.219-1.219-1.511-2.078Z" transform="translate(-401.759 -42.624)" fill="purple"/>
    <path id="Path_173" data-name="Path 173" d="M122.645,36.194c-.67-.412-1.941.91-2.2-.687-.361-2.181,1.219-1.271,2.2-1.34l-.017-.034v2.078C122.611,36.211,122.645,36.194,122.645,36.194Z" transform="translate(-120.394 -31.969)" fill="purple"/>
    <path id="Path_174" data-name="Path 174" d="M134.906,46.6c-.361.67.842,1.855-.635,2.13-2.1.395-1.425-1.1-1.391-2.13l-.034.017h2.078Z" transform="translate(-130.629 -42.375)" fill="purple"/>
    <path id="Path_175" data-name="Path 175" d="M145.3,34.634a5.382,5.382,0,0,1,2.061.137,2.053,2.053,0,0,1,.017,1.683,5.787,5.787,0,0,1-2.078.206l.017.017V34.6Z" transform="translate(-141.023 -32.436)" fill="purple"/>
    <path id="Path_176" data-name="Path 176" d="M305.682,127.635c-.309-1,.532-.738,1.219-.824,1.219-.155.824.687.91,1.288.189,1.305-.773.773-1.34.876C305.39,129.163,305.768,128.356,305.682,127.635Z" transform="translate(-273.806 -108.795)" fill="purple"/>
    <path id="Path_177" data-name="Path 177" d="M133.252,215.308a6.326,6.326,0,0,1,.137-2.147c.086-.223,1.58-.24,1.683,0a6.27,6.27,0,0,1,.189,2.147l.017-.034H133.2Z" transform="translate(-131.001 -180.187)" fill="purple"/>
    <path id="Path_178" data-name="Path 178" d="M481.339,213.3a5.256,5.256,0,0,1-.034,2.078c-.1.24-1.614.275-1.717.052a5.354,5.354,0,0,1-.172-2.112l-.017.017c.653-.017,1.305-.034,1.941-.034Z" transform="translate(-417.742 -180.446)" fill="purple"/>
    <path id="Path_179" data-name="Path 179" d="M382.282,97.254c.309,1.03-.515.79-1.219.876-1.288.155-.824-.756-.893-1.34-.189-1.288.79-.7,1.322-.807C382.557,95.777,382.23,96.567,382.282,97.254Z" transform="translate(-335.533 -83.24)" fill="purple"/>
    <path id="Path_180" data-name="Path 180" d="M145.3,226.334a5.382,5.382,0,0,1,2.061.137,2.053,2.053,0,0,1,.017,1.683,5.789,5.789,0,0,1-2.078.206l.017.017V226.3Z" transform="translate(-141.023 -191.214)" fill="purple"/>
    <path id="Path_181" data-name="Path 181" d="M134.906,238.3c-.361.67.824,1.855-.635,2.13-2.1.412-1.425-1.1-1.391-2.13l-.017.017h2.078Z" transform="translate(-130.629 -201.153)" fill="purple"/>
    <path id="Path_182" data-name="Path 182" d="M233.93,97.139c.292.945-.292.962-1.116,1.013-1.185.1-.91-.618-1-1.288-.155-1.288.773-.79,1.34-.893C234.136,95.8,233.93,96.486,233.93,97.139Z" transform="translate(-212.667 -83.245)" fill="purple"/>
    <path id="Path_183" data-name="Path 183" d="M400.75,72.515c.309.962-.344.893-1.151.979-1.2.1-.893-.653-.979-1.305-.155-1.322.807-.756,1.357-.859C401.007,71.124,400.732,71.863,400.75,72.515Z" transform="translate(-350.824 -62.829)" fill="purple"/>
    <path id="Path_184" data-name="Path 184" d="M215.294,72.395c.326,1.048-.309,1.03-1.151,1.1-1.254.1-.842-.7-.945-1.322-.172-1.271.756-.738,1.305-.842C215.449,71.141,215.38,71.742,215.294,72.395Z" transform="translate(-197.244 -62.829)" fill="purple"/>
    <path id="Path_185" data-name="Path 185" d="M122.647,227.894c-.67-.429-1.923.91-2.2-.687-.361-2.181,1.237-1.271,2.2-1.34l-.017-.034v2.078Z" transform="translate(-120.396 -190.747)" fill="purple"/>
    <path id="Path_186" data-name="Path 186" d="M450.032,36.09c-.635-.361-1.632.567-2.009-.464-.172-.481-.12-1.425.155-1.58.464-.258,1.632-.258,1.735-.034a5.939,5.939,0,0,1,.12,2.078Z" transform="translate(-391.673 -31.814)" fill="purple"/>
    <path id="Path_187" data-name="Path 187" d="M472.622,36.4c.258-.756-1.1-2.112.962-2.215,1.236-.052,1,.6,1.082,1.34.1,1.013-.515.824-1.1.824a5.7,5.7,0,0,0-.945.052Z" transform="translate(-411.963 -32.091)" fill="purple"/>
    <path id="Path_188" data-name="Path 188" d="M478.758,190.693c.343-.618-.481-1.6.464-1.941.481-.172,1.425-.1,1.614.189.275.447.206,1.632,0,1.717a6.972,6.972,0,0,1-2.078.034Z" transform="translate(-417.206 -160.038)" fill="purple"/>
    <path id="Path_189" data-name="Path 189" d="M222.454,345.113a12.64,12.64,0,0,0-1.8.017c-1.065.155-1.494-.1-1.46-1.34.052-1.357.927-.756,1.46-.79,1.237-.086,2.49.052,3.727-.052,1.013-.086,1.288.189,1.305,1.254.017,1.288-.773.859-1.374.893C223.69,345.147,223.072,345.113,222.454,345.113Z" transform="translate(-202.222 -287.786)" fill="purple"/>
    <path id="Path_190" data-name="Path 190" d="M222.355,369.893a15.794,15.794,0,0,0-1.8.017c-1,.1-1.494-.017-1.46-1.271.034-1.374.91-.807,1.477-.859a20.4,20.4,0,0,1,3.074,0c.807.052,2.078-.653,1.941,1.237-.137,1.769-1.322.584-1.958.859A3.488,3.488,0,0,1,222.355,369.893Z" transform="translate(-202.14 -308.325)" fill="purple"/>
    <path id="Path_191" data-name="Path 191" d="M270.992,369.129c.378,1.237-.515.945-1.237,1.048-1.237.155-.79-.721-.876-1.288-.189-1.254.738-.756,1.305-.859C271.129,367.841,271.078,368.442,270.992,369.129Z" transform="translate(-243.358 -308.574)" fill="purple"/>
  </g>
</svg>
