<svg xmlns="http://www.w3.org/2000/svg" width="89.376" height="89.415" viewBox="0 0 89.376 89.415">
  <g id="development" transform="translate(0)">
    <path id="Path_360" data-name="Path 360" d="M109.325,20.948v20.4c-1.117,3.847-3.231,5.436-7.235,5.439-2.529,0-5.054.018-7.583,0a2.778,2.778,0,0,0-1.835.619q-4.853,3.772-9.739,7.508c-1.243.949-2.258,1.057-3.28.381-.973-.643-1.276-1.634-.928-3.093s.709-3,1.108-4.481c.177-.667-.024-.9-.694-.9q-3.3.021-6.625,0a1.045,1.045,0,0,0-1.078.685,20.172,20.172,0,0,1-6.1,7.394,3.231,3.231,0,0,0-.58,3.4,1,1,0,0,0,.6.5c2.246.544,4.388,1.547,6.76,1.544,2.556,0,5.105-.021,7.67,0a3.887,3.887,0,0,1,3.934,3.379,1.553,1.553,0,0,0,.979,1.36,12.583,12.583,0,0,1,7.043,11.574c.054,5.316.087,10.631.237,15.944.081,2.865-1.054,4.805-3.745,5.8H23.7c-2.655-.973-3.826-2.847-3.751-5.706.15-5.547.159-11.112.243-16.644a11.884,11.884,0,0,1,.4-2.925,12.71,12.71,0,0,1,6.069-7.754c.4-.24.766-.444.817-1.021.237-2.652,1.742-4.018,4.394-4.027h8.367a5.343,5.343,0,0,0,1.463-.171q2.1-.6,4.2-1.156c.679-.177,1.387-.411,1.4-1.2,0-.955.468-2.024-.6-2.8a20.122,20.122,0,0,1-3.919-3.826c-1.952-2.493-3.427-5.19-3.448-8.466,0-.6-.342-.8-.844-.9a3.465,3.465,0,0,1-2.8-2.976c-.279-1.393-.5-2.8-.76-4.2a4.009,4.009,0,0,1,.787-3.286,2.7,2.7,0,0,0,.556-1.769c-.015-3.283,0-6.565,0-9.848A10.366,10.366,0,0,1,47.053,8.986c6.094.2,12.2.03,18.3.054a9.794,9.794,0,0,1,9.1,5.529,1.507,1.507,0,0,0,1.538.943c8.709-.027,17.434-.018,26.149-.018C106.156,15.482,108.273,17.094,109.325,20.948ZM55.612,63.173H31.989c-1.4,0-1.712.336-1.643,1.712.075,1.451.156,2.9.258,4.349q.405,5.775.832,11.55c.21,2.865.4,5.733.649,8.6.138,1.589.4,1.778,2.036,1.778H77.446c1.2,0,1.6-.3,1.691-1.487.354-4.457.676-8.914,1-13.373.282-3.85.547-7.7.832-11.55a1.5,1.5,0,0,0-.348-1.2c-.408-.447-.955-.36-1.472-.363Q67.382,63.167,55.612,63.173ZM67.925,27.708V23.437c0-2.039-.931-2.952-3-2.961-.67,0-1.339.039-2,0a4.637,4.637,0,0,0-3.3,1.045,5.83,5.83,0,0,1-7.073.168,5.913,5.913,0,0,0-4.2-1.2c-.49.039-.985,0-1.481,0-1.949.015-2.868.934-2.874,2.9v8.709a2,2,0,0,1-1.2,2.1,1.021,1.021,0,0,0-.7,1.135c.018,2.237,0,4.475,0,6.712a9.286,9.286,0,0,0,1.009,4.376,18.751,18.751,0,0,0,10.448,9.112,6.2,6.2,0,0,0,3.769.273,18.372,18.372,0,0,0,10.541-7.67,9.857,9.857,0,0,0,1.913-5.075c.183-2.67.042-5.343.081-8.013a.754.754,0,0,0-.571-.775,1.994,1.994,0,0,1-1.336-2.1c.012-1.5,0-2.979,0-4.46ZM81.644,52.073a1.48,1.48,0,0,0,.943-.49c2.907-2.225,5.823-4.433,8.709-6.7a4.2,4.2,0,0,1,2.865-.988c2.9.057,5.808.03,8.709,0a3.4,3.4,0,0,0,3.6-3.6q.024-9.2,0-18.386A3.33,3.33,0,0,0,103,18.359c-8.829-.03-17.659,0-26.488-.027-.706,0-.973.252-.967.976.027,3.484.021,6.97,0,10.457a1.973,1.973,0,0,0,.481,1.345,4.072,4.072,0,0,1,.934,3.412c-.246,1.43-.468,2.865-.754,4.286a3.4,3.4,0,0,1-2.811,2.955c-.982.183-.829.88-.811,1.532.018.712.571.6,1.021.6h7.409c2.009,0,2.484.6,2,2.592-.426,1.841-.883,3.673-1.36,5.586Zm-25.659-40.3c-3.024,0-6.045-.021-9.067,0a7.479,7.479,0,0,0-7.808,7.88v9.241a4.857,4.857,0,0,0,.018.694c.054.381,1.12.994,1.625.9.583-.1.348-.6.351-.919.024-2.12-.018-4.244.024-6.364a5.4,5.4,0,0,1,5.622-5.6c.958-.021,1.916,0,2.874,0a6.235,6.235,0,0,1,3.883,1.318,3.491,3.491,0,0,0,4.91-.018,5.856,5.856,0,0,1,3.454-1.282c1.2-.048,2.385-.057,3.571,0a5.324,5.324,0,0,1,5.126,3.982,8.709,8.709,0,0,1,.222,2.162q0,2.964,0,5.928c0,.3-.141.691.3.8a1.558,1.558,0,0,0,1.7-1.36V19.374a8.151,8.151,0,0,0-.3-2.066,7.437,7.437,0,0,0-7.469-5.526C62.027,11.749,59.006,11.773,55.985,11.773ZM89.1,85.069c-.264-3.583-.135-6.523-.264-9.451A9.22,9.22,0,0,0,84.3,68.083c-.49-.324-.721-.249-.76.372-.087,1.36-.216,2.7-.3,4.078q-.333,4.475-.652,8.947-.333,4.6-.673,9.2a.6.6,0,0,0,.438.655,3.565,3.565,0,0,1,2.463,3.622c0,.3.048.568.393.694a2.79,2.79,0,0,0,3.9-2.7C89.1,90.111,89.1,87.264,89.1,85.069Zm-66.035-.832c-.225,2.874-.15,5.751-.321,8.628a2.394,2.394,0,0,0,2.64,2.82h.958c.544.027.8-.177.775-.763a3.442,3.442,0,0,1,1.847-3.3c.3-.18.523-.369.429-.751a12.914,12.914,0,0,1-.21-2.252L28.175,74.543c-.132-1.853-.24-3.706-.4-5.559-.072-.82-.249-.9-.88-.4a8.889,8.889,0,0,0-3.808,6.856C22.967,78.36,23.066,81.3,23.066,84.237ZM55.979,94H31.83a10.943,10.943,0,0,0-1.132.039.763.763,0,0,0-.775.694.808.808,0,0,0,.679.883,2.913,2.913,0,0,0,.778.072H80.461a3.559,3.559,0,0,0,.943-.117.73.73,0,0,0,.577-.778.748.748,0,0,0-.721-.742A10.94,10.94,0,0,0,80.127,94Zm-.018-33.7H61.8c.547,0,.9-.042.465-.7a2.838,2.838,0,0,1-.478-1.387c-.057-.868-.429-.871-1.129-.559a10.456,10.456,0,0,1-6.175,1,12.632,12.632,0,0,1-3.4-1.066c-.661-.327-.9-.117-.958.532a3.952,3.952,0,0,1-.4,1.327c-.4.835-.4.838.571.841ZM72.6,35.952v2.261c0,.267-.105.664.3.691.345.021.463-.333.526-.6q.243-1.1.417-2.216a10.718,10.718,0,0,0,.339-2.312c-.03-.5-.21-.9-.829-.9s-.784.366-.772.9c.033.739.021,1.454.018,2.177Zm-33.282.084h-.075V33.777c0-.468-.105-.883-.694-.9a.76.76,0,0,0-.814.9,28.585,28.585,0,0,0,.8,4.691c.048.228.2.472.465.447.36-.036.3-.366.3-.6C39.32,37.54,39.314,36.789,39.314,36.036Z" transform="translate(-19.949 -8.98)" fill="#fff"/>
    <path id="Path_361" data-name="Path 361" d="M133.1,227.738a5,5,0,0,1-5,5.072,5.105,5.105,0,0,1-5-5.036,4.985,4.985,0,0,1,5-4.976,4.9,4.9,0,0,1,5,4.94Zm-4.964,2.21a2.219,2.219,0,0,0,2.183-2.162,2.279,2.279,0,0,0-2.168-2.2,2.255,2.255,0,0,0-2.216,2.228A2.189,2.189,0,0,0,128.139,229.948Z" transform="translate(-92.121 -158.583)" fill="#fff"/>
    <path id="Path_362" data-name="Path 362" d="M242.083,72.017a.914.914,0,0,1-.982-1.126,3.649,3.649,0,0,1,.3-.721q2.55-5.25,5.105-10.493c.051-.105.105-.21.159-.3.3-.556.694-.883,1.333-.562a.915.915,0,0,1,.405,1.4q-.874,1.8-1.751,3.6-1.8,3.679-3.6,7.355C242.831,71.62,242.59,72.047,242.083,72.017Z" transform="translate(-174.663 -43.76)" fill="#fff"/>
    <path id="Path_363" data-name="Path 363" d="M220.117,80.562a3.3,3.3,0,0,1-.514-.237c-1.2-.769-2.4-1.529-3.577-2.33-1-.685-1.018-1.544-.024-2.222,1.2-.823,2.43-1.589,3.643-2.385a1.132,1.132,0,1,1,1.21,1.913c-.3.192-.583.378-.877.568-1.571,1-1.568,1-.039,1.988a13.183,13.183,0,0,1,1.147.793.9.9,0,0,1,.237,1.177A1.2,1.2,0,0,1,220.117,80.562Z" transform="translate(-156.608 -53.884)" fill="#fff"/>
    <path id="Path_364" data-name="Path 364" d="M277.344,76.819a1.2,1.2,0,0,1-.6,1.087q-1.847,1.222-3.712,2.4a1.042,1.042,0,0,1-1.574-.315,1.009,1.009,0,0,1,.366-1.556c.559-.36,1.1-.748,1.676-1.087s.634-.6.024-.976-1.168-.751-1.748-1.135a.989.989,0,0,1-.339-1.5,1.008,1.008,0,0,1,1.553-.4q1.865,1.2,3.718,2.4A1.243,1.243,0,0,1,277.344,76.819Z" transform="translate(-195.761 -53.859)" fill="#fff"/>
  </g>
</svg>
