<?xml version="1.0" encoding="UTF-8"?>
<svg id="Layer_1" data-name="Layer 1" xmlns="http://www.w3.org/2000/svg" viewBox="0 0 525.96 105.51">
  <defs>
    <style>
      .cls-1 {
        fill: #fff;
      }
    </style>
  </defs>
  <g>
    <polygon class="cls-1" points="64.79 49.98 64.79 94.51 48.61 94.51 48.61 84.58 16.24 84.58 16.24 23.11 32.79 23.11 32.79 64.9 48.61 64.9 48.61 49.98 64.79 49.98"/>
    <polygon class="cls-1" points="124.75 11.32 124.75 28.67 100.97 28.67 100.97 94.51 80.98 94.51 80.98 28.67 64.79 28.67 64.79 37.86 48.61 37.86 48.61 11.32 124.75 11.32"/>
  </g>
  <g>
    <path class="cls-1" d="M171.54,72.71h-8.93v-15.88h-13.23v15.88h-8.98V34.68h8.98v15.1h13.23v-15.1h8.93v38.03Z"/>
    <path class="cls-1" d="M206.45,34.68v24.89c0,2.82-.59,5.26-1.77,7.33-1.18,2.06-2.87,3.63-5.07,4.71-2.2,1.08-4.8,1.62-7.81,1.62-4.54,0-8.11-1.2-10.72-3.6-2.61-2.4-3.94-5.69-3.99-9.87v-25.07h9.04v25.26c.1,4.16,2,6.24,5.68,6.24,1.86,0,3.27-.52,4.22-1.57,.96-1.04,1.43-2.74,1.43-5.09v-24.84h8.98Z"/>
    <path class="cls-1" d="M243.18,72.71h-8.93l-13.21-23.66v23.66h-8.98V34.68h8.98l13.18,23.66v-23.66h8.96v38.03Z"/>
    <path class="cls-1" d="M277.37,41.76h-11.18v30.95h-8.98v-30.95h-10.98v-7.08h31.15v7.08Z"/>
    <path class="cls-1" d="M304.63,57.56h-14.49v15.15h-8.98V34.68h24.93v7.08h-15.95v8.75h14.49v7.05Z"/>
    <path class="cls-1" d="M341.38,54.48c0,3.71-.67,6.99-2.02,9.85-1.35,2.86-3.26,5.05-5.75,6.59-2.48,1.54-5.31,2.31-8.48,2.31s-5.99-.74-8.45-2.23c-2.46-1.49-4.37-3.62-5.75-6.39-1.37-2.77-2.09-5.95-2.16-9.53v-2.14c0-3.73,.67-7.01,2.01-9.86,1.34-2.85,3.26-5.04,5.76-6.59,2.5-1.55,5.34-2.32,8.54-2.32s5.97,.77,8.45,2.3c2.47,1.53,4.4,3.71,5.77,6.54,1.37,2.83,2.07,6.07,2.09,9.73v1.75Zm-9.14-1.59c0-3.78-.62-6.65-1.86-8.61s-3.01-2.94-5.31-2.94c-4.5,0-6.89,3.45-7.14,10.34l-.03,2.79c0,3.73,.61,6.59,1.82,8.59,1.21,2,3.01,3,5.4,3s4.02-.98,5.25-2.95c1.23-1.97,1.85-4.8,1.87-8.49v-1.75Z"/>
    <path class="cls-1" d="M359.86,59.26h-4.86v13.45h-8.98V34.68h14.67c4.42,0,7.87,1,10.37,3,2.49,2,3.74,4.83,3.74,8.48,0,2.64-.52,4.84-1.57,6.57-1.05,1.74-2.69,3.15-4.93,4.23l7.78,15.35v.39h-9.62l-6.58-13.45Zm-4.86-7.05h5.68c1.71,0,2.99-.46,3.85-1.37s1.29-2.19,1.29-3.84-.44-2.93-1.31-3.86-2.15-1.4-3.84-1.4h-5.68v10.47Z"/>
    <path class="cls-1" d="M408.19,41.76h-11.18v30.95h-8.98v-30.95h-10.98v-7.08h31.15v7.08Z"/>
    <path class="cls-1" d="M435.09,56.57h-14.13v9.09h16.69v7.05h-25.67V34.68h25.72v7.08h-16.74v8.02h14.13v6.79Z"/>
    <path class="cls-1" d="M471.46,59.83c-.12,2.65-.82,4.98-2.1,7.01-1.28,2.03-3.08,3.6-5.39,4.71-2.31,1.11-4.95,1.67-7.92,1.67-4.9,0-8.75-1.63-11.57-4.88-2.82-3.26-4.22-7.85-4.22-13.79v-1.88c0-3.73,.64-6.99,1.91-9.78,1.27-2.79,3.1-4.95,5.49-6.48,2.39-1.52,5.15-2.29,8.29-2.29,4.52,0,8.16,1.21,10.9,3.64,2.75,2.43,4.31,5.78,4.68,10.04h-8.96c-.07-2.32-.64-3.98-1.71-4.99-1.08-1.01-2.71-1.51-4.91-1.51s-3.87,.85-4.92,2.56c-1.04,1.71-1.59,4.43-1.64,8.17v2.69c0,4.06,.5,6.96,1.5,8.7,1,1.74,2.72,2.61,5.16,2.61,2.06,0,3.64-.5,4.74-1.49,1.09-.99,1.67-2.57,1.74-4.73h8.93Z"/>
    <path class="cls-1" d="M506.85,72.71h-8.93v-15.88h-13.23v15.88h-8.98V34.68h8.98v15.1h13.23v-15.1h8.93v38.03Z"/>
  </g>
</svg>