<svg id="loading-01" xmlns="http://www.w3.org/2000/svg" width="70.07" height="35.047" viewBox="0 0 70.07 35.047">
  <path id="Path_211" data-name="Path 211" d="M150.09,224.542H124.523a9.142,9.142,0,1,1-.114-18.278c11.085-.019,22.19,0,33.275,0h18.068a9.142,9.142,0,1,1,.172,18.278c-7.994.019-15.989,0-24,0Zm.057-15.226h-17.42c-2.976,0-5.953-.057-8.929.038a6,6,0,0,0-5.4,7.67,6.267,6.267,0,0,0,6.258,4.465h51.629a6.092,6.092,0,1,0-.5-12.173Z" transform="translate(-115.117 -189.503)" fill="purple"/>
  <path id="Path_212" data-name="Path 212" d="M376.7,124.015c0-1.488-.019-2.786,0-4.083a1.454,1.454,0,0,1,1.507-1.469,1.563,1.563,0,0,1,1.507,1.431v9.139a1.516,1.516,0,0,1-.992,1.507,1.357,1.357,0,0,1-1.736-.572c-.954-1.355-1.87-2.747-2.8-4.121a1.69,1.69,0,0,0-.553-.553v2.652c0,.4.019.8-.019,1.221a1.508,1.508,0,0,1-3.015-.019c-.038-1.469-.019-2.957-.019-4.426v-4.426a1.589,1.589,0,0,1,1.049-1.736c.706-.248,1.221-.076,1.813.763.992,1.393,1.908,2.843,2.862,4.255C376.4,123.671,376.494,123.767,376.7,124.015Z" transform="translate(-321.831 -118.454)" fill="purple"/>
  <path id="Path_213" data-name="Path 213" d="M274.8,124.493v-4.274a1.564,1.564,0,0,1,1.755-1.755c.954,0,1.908-.019,2.862,0a4.565,4.565,0,0,1,4.522,4.5q.029,1.574,0,3.148a4.521,4.521,0,0,1-4.407,4.522c-1.03.038-2.042.019-3.072,0a1.5,1.5,0,0,1-1.641-1.717C274.8,127.451,274.8,125.981,274.8,124.493Zm3.034.038v1.717c0,1.431,0,1.431,1.45,1.355a1.519,1.519,0,0,0,1.6-1.545c.038-.992.038-2,0-3a1.5,1.5,0,0,0-1.545-1.545c-.324-.019-.668.019-.992-.019-.42-.038-.534.153-.534.534C277.853,122.871,277.834,123.692,277.834,124.531Z" transform="translate(-244.33 -118.455)" fill="purple"/>
  <path id="Path_214" data-name="Path 214" d="M437.316,124.059a1.828,1.828,0,0,1,1.946-.992c.477.038.954-.019,1.431.019,1.889.191,3,1.87,2.538,3.93a4.548,4.548,0,0,1-8.967-.305,17.466,17.466,0,0,1,.019-4.35,4.478,4.478,0,0,1,4.312-3.854c1.049-.038,2.1-.019,3.148,0a1.482,1.482,0,0,1,1.584,1.545,1.455,1.455,0,0,1-1.584,1.469c-.763.019-1.526,0-2.29,0C437.66,121.521,437.164,122.055,437.316,124.059Zm-.019,1.278a8.6,8.6,0,0,0,0,.992,1.5,1.5,0,0,0,1.24,1.278,1.553,1.553,0,0,0,1.584-.82c.267-.553.191-.687-.439-.687C438.824,126.1,437.927,126.215,437.3,125.337Z" transform="translate(-373.266 -118.479)" fill="purple"/>
  <path id="Path_215" data-name="Path 215" d="M163.064,124.58a11.25,11.25,0,0,1,.172-2.767,4.584,4.584,0,0,1,4.713-3.263,4.51,4.51,0,0,1,4.159,3.854,17.039,17.039,0,0,1,0,4.407,4.547,4.547,0,0,1-9.044-.439C163.045,125.763,163.064,125.172,163.064,124.58Zm6.048.019h0c0-.515.019-1.049,0-1.565a1.51,1.51,0,0,0-3.015-.076,32.857,32.857,0,0,0,0,3.358,1.479,1.479,0,0,0,1.488,1.355,1.462,1.462,0,0,0,1.488-1.412A12.055,12.055,0,0,0,169.112,124.6Z" transform="translate(-153.906 -118.523)" fill="purple"/>
  <path id="Path_216" data-name="Path 216" d="M226.816,130.67a1.357,1.357,0,0,1-1.24-1.011.629.629,0,0,0-.725-.5c-.4,0-.8.019-1.221,0-.668-.038-1.183,0-1.469.8a1.384,1.384,0,0,1-1.851.591,1.51,1.51,0,0,1-.84-1.889c.515-1.6,1.068-3.205,1.6-4.808.458-1.355.9-2.709,1.355-4.064.286-.878.763-1.278,1.488-1.3.763-.019,1.278.382,1.584,1.3.973,2.9,1.946,5.819,2.9,8.719A1.563,1.563,0,0,1,226.816,130.67Zm-2.919-5.838c-.191.534-.458.84-.305,1.183.057.153.458.134.515.019C224.335,125.69,223.992,125.385,223.9,124.832Z" transform="translate(-199.494 -118.488)" fill="purple"/>
  <path id="Path_217" data-name="Path 217" d="M115.119,124.567v-4.35a1.536,1.536,0,0,1,1.507-1.717,1.554,1.554,0,0,1,1.526,1.7c0,2.251.019,4.522-.019,6.773,0,.534.134.687.668.668.763-.038,1.526-.019,2.29,0a1.543,1.543,0,0,1,1.622,1.526,1.5,1.5,0,0,1-1.584,1.488c-1.507.019-3,.019-4.5,0a1.442,1.442,0,0,1-1.526-1.526c0-1.526.019-3.034.019-4.56Z" transform="translate(-115.1 -118.491)" fill="purple"/>
  <path id="Path_218" data-name="Path 218" d="M338.519,124.637c0-1.469-.019-2.938,0-4.426a1.539,1.539,0,1,1,3.053.038c.019,2.042,0,4.083,0,6.125v2.29c0,1.3-.534,1.984-1.526,1.984s-1.545-.687-1.545-1.965C338.519,127.347,338.519,125.992,338.519,124.637Z" transform="translate(-295.876 -118.485)" fill="purple"/>
  <path id="Path_219" data-name="Path 219" d="M164.209,238.219c4.655,0,9.33.019,13.985-.019.687,0,.82.21.8.839q-.057,2.318,0,4.636c0,.477-.1.668-.63.668-9.368-.019-18.755,0-28.123-.019a3.051,3.051,0,1,1,.038-6.086C154.936,238.2,159.573,238.219,164.209,238.219Z" transform="translate(-140.913 -215.353)" fill="purple"/>
</svg>
