<svg id="maintenance" xmlns="http://www.w3.org/2000/svg" width="77.458" height="77.674" viewBox="0 0 77.458 77.674">
  <path id="Path_365" data-name="Path 365" d="M104.929,87.235a10.342,10.342,0,0,1-3.18,4.606,9.2,9.2,0,0,1-12.515-1.069q-9.069-9.894-18.165-19.739c-.469-.513-.765-.724-1.346-.09a1.519,1.519,0,0,1-2.341.145,1.628,1.628,0,0,1,.079-2.369c.7-.833.7-.839-.055-1.645-1.138-1.212-1.138-1.212-2.325-.025-2.371,2.371-4.735,4.748-7.128,7.1a1.2,1.2,0,0,0-.365,1.267A15.212,15.212,0,0,1,46.306,93.4a14.933,14.933,0,0,1-8.043-.247c-1.631-.5-1.952-1.82-.74-3.038q2.669-2.677,5.371-5.324a2.229,2.229,0,0,0,.65-1.524,3.543,3.543,0,0,0-1.489-3.6,1.565,1.565,0,0,1-.376-.373,3.639,3.639,0,0,0-3.791-1.552,1.861,1.861,0,0,0-1.19.524c-1.782,1.818-3.58,3.619-5.379,5.423-1.393,1.4-2.635,1.075-3.216-.822A15.247,15.247,0,0,1,35.691,65.1a14.8,14.8,0,0,1,10.253-1.371,1.19,1.19,0,0,0,1.22-.365q4.981-5.017,10-10c.392-.389.411-.642,0-1.042q-8.795-8.8-17.57-17.622a1.308,1.308,0,0,0-1.006-.408c-.88.014-1.763,0-2.646,0A2.193,2.193,0,0,1,33.9,33.113c-1.919-3.251-3.887-6.484-5.826-9.727-.866-1.447-.822-1.87.373-3.016,1.447-1.4,2.758-2.942,4.34-4.2H34c.126.082.249.17.378.249,3.29,1.971,6.555,3.964,9.869,5.894a2.449,2.449,0,0,1,1.461,2.552c-.069.7.019,1.412-.022,2.116a1.563,1.563,0,0,0,.548,1.324c.611.548,1.182,1.171,1.768,1.76L63.6,45.691c.326.326.548.683,1.083.154q5.074-5.138,10.206-10.217a.891.891,0,0,0,.274-.946,13.9,13.9,0,0,1-.233-5.483,15.138,15.138,0,0,1,6.947-10.766A16.454,16.454,0,0,1,88,16.16h3.931c.822.192,1.675.345,2.495.584,1.689.493,2.012,1.8.779,3.068-1.461,1.494-2.848,3.076-4.422,4.441a4.137,4.137,0,0,0-1.426,3.871,1.708,1.708,0,0,0,.474,1.14c.677.674,1.371,1.346,1.974,2.081a2.453,2.453,0,0,0,1.971.822A3.41,3.41,0,0,0,96.787,30.9c1.563-1.708,3.235-3.317,4.885-4.935a1.594,1.594,0,0,1,2.832.691c.164.474.288.962.43,1.445v6.5c-.077.211-.167.422-.225.639A15.185,15.185,0,0,1,86.918,46.185a1.387,1.387,0,0,0-1.417.422c-2.443,2.467-4.915,4.935-7.369,7.388-1.023,1.028-1.045.762.036,1.793,1,.951,1.006.943,2.1.137a2.51,2.51,0,0,1,.252-.167,1.587,1.587,0,0,1,1.944.274,1.535,1.535,0,0,1,.164,1.944,2.467,2.467,0,0,1-.482.578c-.417.345-.378.589.03.946,1.1.94,2.125,1.933,3.183,2.9,5.146,4.715,10.278,9.444,15.448,14.135,1.755,1.59,3.388,3.24,4.112,5.568ZM91.2,19.485a4.9,4.9,0,0,0-2.07-.145,11.47,11.47,0,0,0-9.121,5.307,11.627,11.627,0,0,0-1.546,9.971,2.209,2.209,0,0,1-.488,2.421Q63.2,51.777,48.455,66.559a1.927,1.927,0,0,1-2.127.548,11.268,11.268,0,0,0-2.741-.532A12.062,12.062,0,0,0,31.57,74.041a10.99,10.99,0,0,0-.806,5.579c.3-.274.5-.466.691-.655,1.193-1.2,2.4-2.382,3.564-3.594a2.6,2.6,0,0,1,1.952-.839h3.4a2.278,2.278,0,0,1,1.705.672c1.324,1.349,2.665,2.678,4.008,4.011a2.136,2.136,0,0,1,.647,1.645c-.016,1.184-.019,2.369,0,3.564a2.369,2.369,0,0,1-.746,1.8q-1.809,1.776-3.591,3.564c-.186.189-.45.329-.513.718a9.658,9.658,0,0,0,3.652-.23,11.977,11.977,0,0,0,8.745-14.938,2.519,2.519,0,0,1,.74-2.769Q69.512,58.135,83.941,43.64a2.636,2.636,0,0,1,2.895-.77,11.972,11.972,0,0,0,14.62-7.887,10.692,10.692,0,0,0,.507-4.6,1.527,1.527,0,0,0-.7.548c-1.2,1.193-2.4,2.38-3.564,3.591a2.615,2.615,0,0,1-1.952.839h-3.4a2.256,2.256,0,0,1-1.7-.674c-1.256-1.31-2.528-2.6-3.8-3.9a2.4,2.4,0,0,1-.71-1.845c.03-1.031.049-2.067,0-3.1a2.884,2.884,0,0,1,1-2.412C88.459,22.175,89.758,20.878,91.2,19.485Zm10.821,64.789a6.524,6.524,0,0,0-2.467-4.57q-9.828-8.965-19.6-17.979c-.436-.4-.658-.332-1.028.047-1.711,1.746-3.449,3.465-5.176,5.192-1.1,1.1-1.083,1.1,0,2.253q5.129,5.551,10.237,11.119c2.58,2.8,5.137,5.615,7.747,8.381a5.968,5.968,0,0,0,6.659,1.417A6.1,6.1,0,0,0,102.021,84.274ZM61.866,48.507c-.2-.211-.381-.414-.576-.606L44.71,31.235c-2.506-2.525-2.243-1.659-2.253-5.362a2.767,2.767,0,0,1,0-.3.894.894,0,0,0-.526-.91Q38,22.326,34.093,19.954a.613.613,0,0,0-.9.145,21.764,21.764,0,0,1-1.552,1.549.8.8,0,0,0-.143,1.225Q33.78,26.613,36,30.391a1.157,1.157,0,0,0,1.2.7c.589-.044,1.264.03,1.889-.019a2.76,2.76,0,0,1,2.341.962Q49.9,40.562,58.412,49.047c.491.491.907,1.371,1.538,1.332s1.012-.9,1.535-1.371a1.557,1.557,0,0,0,.208-.217,3.293,3.293,0,0,0,.173-.285Zm8.658,17.027a4.881,4.881,0,0,0,.411-.318c1.889-1.883,3.772-3.775,5.664-5.656.315-.31.367-.567,0-.877-.4-.343-.8-.7-1.162-1.077s-.628-.318-.984.047c-1.458,1.5-2.947,2.964-4.425,4.441-1.582,1.582-1.582,1.582.041,3.142a2.194,2.194,0,0,0,.222.2A1.061,1.061,0,0,0,70.524,65.534Z" transform="translate(-27.476 -16.16)" fill="#fff"/>
  <path id="Path_366" data-name="Path 366" d="M130.7,139.446a1.549,1.549,0,0,1-1.486-2.27,3.622,3.622,0,0,1,.655-.822q9.047-9.066,18.113-18.121a2.158,2.158,0,0,1,1.612-.855,1.535,1.535,0,0,1,1.343,2.267,3.564,3.564,0,0,1-.6.773q-9.132,9.146-18.275,18.28A1.945,1.945,0,0,1,130.7,139.446Z" transform="translate(-101.187 -89.628)" fill="#fff"/>
  <path id="Path_367" data-name="Path 367" d="M216.974,103.215a1.557,1.557,0,1,1-1.587-1.565A1.582,1.582,0,0,1,216.974,103.215Z" transform="translate(-162.764 -78.213)" fill="#fff"/>
  <path id="Path_368" data-name="Path 368" d="M116.434,203.666a1.582,1.582,0,1,1-1.569-1.6,1.593,1.593,0,0,1,1.569,1.6Z" transform="translate(-89.75 -151.104)" fill="#fff"/>
  <path id="Path_369" data-name="Path 369" d="M218.228,208.492a1.639,1.639,0,0,1,.888-1.645,1.505,1.505,0,0,1,1.755.274c.727.661,1.426,1.349,2.122,2.042q5.59,5.554,11.174,11.139a5.222,5.222,0,0,1,.408.444,1.612,1.612,0,0,1-.041,2.251,1.563,1.563,0,0,1-2.193,0,4.758,4.758,0,0,1-.389-.356l-12.885-12.855C218.634,209.35,218.209,208.911,218.228,208.492Z" transform="translate(-165.934 -154.449)" fill="#fff"/>
</svg>
