<svg id="mobile_friendly-01" data-name="mobile friendly-01" xmlns="http://www.w3.org/2000/svg" width="47.199" height="57.736" viewBox="0 0 47.199 57.736">
  <path id="Path_192" data-name="Path 192" d="M143.064,79.377c-.151-.06-.3-.136-.452-.2a2.5,2.5,0,0,1-1.6-2.26c-.015-.181-.015-.377-.015-.557V24.675a5.679,5.679,0,0,1,.06-1.009,2.6,2.6,0,0,1,2.365-2c.166-.015.331,0,.512,0h28.578a2.659,2.659,0,0,1,3,2.983c0,4.113.015,8.226-.015,12.338,0,.467.121.588.588.588q5.491-.023,11-.015c.874,0,1.115.226,1.115,1.085V57.532c0,.829-.241,1.07-1.07,1.07-2.35,0-4.7.015-7.05,0a1.109,1.109,0,0,0-.889.362q-1.65,1.695-3.344,3.344a1.041,1.041,0,0,0-.331.844c.015,4.339,0,8.677,0,13.016,0,1.868-.422,2.516-2.109,3.224Q158.219,79.369,143.064,79.377Zm-.482-30.266q0,9.016-.015,18.033c0,.482.09.633.6.633q9.694-.023,19.389-.015c3.585,0,7.171-.015,10.772.015.512,0,.618-.151.6-.633-.03-1.341-.03-2.667,0-4.007a1.151,1.151,0,0,0-.377-.889c-1.115-1.085-2.215-2.2-3.314-3.314a1.11,1.11,0,0,0-.889-.362c-2.335.015-4.655.015-6.99,0-.934,0-1.16-.226-1.16-1.16V38.7c0-.949.226-1.175,1.145-1.175,3.661,0,7.322-.015,11,.015.482,0,.588-.136.588-.6-.03-1.928-.03-3.872,0-5.8.015-.512-.151-.618-.633-.618q-15.05.023-30.1,0c-.512,0-.648.136-.648.648C142.582,37.164,142.582,43.13,142.582,49.111Zm32.164-9.988q-5.695,0-11.389-.015c-.407,0-.572.06-.572.527q.023,8.429,0,16.843c0,.437.136.527.542.527,2.184-.015,4.354,0,6.538-.015a1.49,1.49,0,0,1,1.145.467c1.115,1.145,2.26,2.26,3.375,3.4.256.271.407.256.663,0,1.1-1.13,2.245-2.23,3.329-3.359a1.517,1.517,0,0,1,1.25-.5c2.139.015,4.278,0,6.418.015.422,0,.572-.09.572-.557-.015-5.6-.015-11.193,0-16.8,0-.437-.105-.557-.557-.557C182.293,39.123,178.512,39.123,174.746,39.123ZM158.234,77.795h14.372c.964,0,1.326-.346,1.326-1.326,0-2.2-.015-4.4.015-6.6,0-.407-.075-.542-.512-.542q-15.163.023-30.311,0c-.422,0-.542.105-.542.527.015,2.184.015,4.354.015,6.538,0,1.1.3,1.4,1.4,1.4Zm-.015-48.826c5.047,0,10.109,0,15.155.015.437,0,.572-.121.557-.557-.03-1.311,0-2.636-.015-3.947,0-.874-.377-1.25-1.22-1.25h-28.91c-.844,0-1.205.346-1.22,1.19-.015,1.311.015,2.636-.015,3.947-.015.482.09.633.6.633C148.186,28.954,153.2,28.969,158.219,28.969Z" transform="translate(-141 -21.656)" fill="purple"/>
  <path id="Path_193" data-name="Path 193" d="M315.848,212.33h-4.956c-.9,0-1.175-.316-1.085-1.22a5.243,5.243,0,0,1,5.318-4.806,12.943,12.943,0,0,1,2.531.09,5.263,5.263,0,0,1,4.263,4.941c.03.648-.256.979-.934.979C319.268,212.33,317.551,212.33,315.848,212.33Zm-.015-1.582c1.326,0,2.667-.015,3.992,0,.362,0,.422-.12.3-.422a3.585,3.585,0,0,0-2.561-2.32,10.767,10.767,0,0,0-2.7-.105,3.673,3.673,0,0,0-3.284,2.35c-.136.362-.121.527.346.512C313.242,210.733,314.538,210.748,315.833,210.748Z" transform="translate(-284.362 -178.472)" fill="purple"/>
  <path id="Path_194" data-name="Path 194" d="M329.7,157.171a3.586,3.586,0,1,1,3.6-3.57A3.584,3.584,0,0,1,329.7,157.171Zm-.045-1.582a2,2,0,1,0-1.974-2.034A2.024,2.024,0,0,0,329.655,155.589Z" transform="translate(-298.215 -130.665)" fill="purple"/>
  <path id="Path_195" data-name="Path 195" d="M382.8,177.2c.467-.015.753.316.8.829.03.346-.166.814.105,1.009.211.166.648.06.979.075.527.03.844.331.829.8a.8.8,0,0,1-.859.783c-1.009.06-1.009.06-1.055,1.055-.03.527-.316.859-.768.874a.813.813,0,0,1-.814-.829c-.03-.347.166-.814-.09-1.009-.211-.166-.648-.06-.979-.075a.814.814,0,0,1-.844-.8.8.8,0,0,1,.859-.768c.994-.045.994-.045,1.055-1.055A.826.826,0,0,1,382.8,177.2Z" transform="translate(-344.079 -153.764)" fill="purple"/>
  <path id="Path_196" data-name="Path 196" d="M238.4,350.605a2.584,2.584,0,1,1,2.576,2.561A2.553,2.553,0,0,1,238.4,350.605Zm2.576.994a1.006,1.006,0,0,0,1.009-.994,1.029,1.029,0,0,0-1.039-1.024,1,1,0,0,0-.964,1.024A.984.984,0,0,0,240.976,351.6Z" transform="translate(-223.727 -298.835)" fill="purple"/>
  <path id="Path_197" data-name="Path 197" d="M209.747,48.629h-6.93c-.151,0-.3.015-.452,0a.767.767,0,0,1-.768-.8.746.746,0,0,1,.738-.768,3.4,3.4,0,0,1,.392,0h14.236a.783.783,0,0,1,.829.8.76.76,0,0,1-.8.768c-.151.015-.3,0-.452,0Z" transform="translate(-192.467 -43.229)" fill="purple"/>
</svg>
