<svg id="Group_810" data-name="Group 810" xmlns="http://www.w3.org/2000/svg" xmlns:xlink="http://www.w3.org/1999/xlink" width="671.786" height="425.852" viewBox="0 0 671.786 425.852">
  <defs>
    <clipPath id="clip-path">
      <rect id="Rectangle_531" data-name="Rectangle 531" width="671.786" height="425.852" fill="none"/>
    </clipPath>
    <clipPath id="clip-path-2">
      <rect id="Rectangle_530" data-name="Rectangle 530" width="671.786" height="425.851" fill="none"/>
    </clipPath>
    <clipPath id="clip-path-3">
      <rect id="Rectangle_515" data-name="Rectangle 515" width="28.453" height="66.271" fill="none"/>
    </clipPath>
    <clipPath id="clip-path-4">
      <rect id="Rectangle_516" data-name="Rectangle 516" width="57.043" height="75.569" fill="none"/>
    </clipPath>
    <clipPath id="clip-path-5">
      <rect id="Rectangle_517" data-name="Rectangle 517" width="45.407" height="41.004" fill="none"/>
    </clipPath>
    <clipPath id="clip-path-6">
      <rect id="Rectangle_518" data-name="Rectangle 518" width="70.286" height="37.204" fill="none"/>
    </clipPath>
  </defs>
  <g id="Group_809" data-name="Group 809" clip-path="url(#clip-path)">
    <g id="Group_808" data-name="Group 808" transform="translate(0 0.001)">
      <g id="Group_807" data-name="Group 807" clip-path="url(#clip-path-2)">
        <path id="Path_1281" data-name="Path 1281" d="M677.183,163.389l9.962-1.122a2.222,2.222,0,0,1,2.092,1q.865,1.342,1.853,2.631a37.347,37.347,0,0,0,3.945,4.4,2.192,2.192,0,0,1,.54,2.411l-3.82,9.756a2.152,2.152,0,0,0,1.06,2.73l8.583,4.251a2.128,2.128,0,0,0,2.729-.756l5.19-8.132a2.137,2.137,0,0,1,2.392-.925,38.733,38.733,0,0,0,12.151,1.21,2.206,2.206,0,0,1,2.209,1.532l1.759,5.6a2.228,2.228,0,0,0,2.532,1.5l9.322-1.885a1.928,1.928,0,0,0,.538-.179,2.139,2.139,0,0,0,1.193-2.183l-.83-7.443-.206-1.813a38.331,38.331,0,0,0,4.52-2.986,38.905,38.905,0,0,0,5.3-4.911,2.136,2.136,0,0,1,2.385-.575l7.855,3.086a2.214,2.214,0,0,0,2.8-1.083l3.252-6.562.926-1.883a2.243,2.243,0,0,0-.8-2.89l-6.793-4.343a2.133,2.133,0,0,1-.957-2.326,38.448,38.448,0,0,0,1.035-8.157,6.714,6.714,0,0,0,.021-.691,1.223,1.223,0,0,1,.015-.232,2.186,2.186,0,0,1,1.542-1.872l9.085-2.876a1.6,1.6,0,0,0,.3-.117,2.223,2.223,0,0,0,1.2-2.409l-1.865-9.3a2.212,2.212,0,0,0-2.413-1.761l-10.39,1.175a2.138,2.138,0,0,1-2.145-1.125A39.126,39.126,0,0,0,752,119.169q-.979-1.275-2.042-2.445a2.253,2.253,0,0,1-.426-2.334l3.669-9.378a2.15,2.15,0,0,0-1.047-2.712l-8.5-4.193a2.248,2.248,0,0,0-2.9.8l-4.108,6.433a2.208,2.208,0,0,1-2.57.91,38.634,38.634,0,0,0-11.721-2.105,2.195,2.195,0,0,1-2.067-1.544L717.7,94.416a2.27,2.27,0,0,0-2.6-1.536l-9.263,1.854a2.169,2.169,0,0,0-1.733,2.378l.044.435.968,8.646a2.219,2.219,0,0,1-1.2,2.23l-.009.006a38.436,38.436,0,0,0-5.747,3.651c-.981.752-1.9,1.544-2.8,2.37a2.176,2.176,0,0,1-2.29.447l-7.974-3.133a2.251,2.251,0,0,0-2.843,1.093l-4.18,8.46a2.433,2.433,0,0,0-.215.744,2.241,2.241,0,0,0,1,2.1l5.435,3.454a2.239,2.239,0,0,1,1.015,1.952,2.4,2.4,0,0,1-.112.61,38.495,38.495,0,0,0-1.957,15.1,2.167,2.167,0,0,1-1.163,2.078,2.245,2.245,0,0,1-.346.142l-7.359,2.323a2.2,2.2,0,0,0-1.495,2.526l.042.216,1.81,9.062a2.243,2.243,0,0,0,2.45,1.774M740.918,135.1a25.748,25.748,0,0,1,1.352,4.6,20.24,20.24,0,0,1-1.44,10.936c-.15.308-.306.607-.463.907-9.748,18.095-35.3,14.5-39.507-5.921a20.983,20.983,0,0,1,.749-9.536,13.6,13.6,0,0,1,.762-1.881,23.8,23.8,0,0,1,4.755-6.544,20.766,20.766,0,0,1,33.792,7.438" transform="translate(-404.257 -55.781)" fill="#e9e9e9"/>
        <path id="Path_1282" data-name="Path 1282" d="M1282.391,166.382c-9.564-19.276-42.677-6.08-42.677-6.08s-16.26,40.288-22.882,42.485,7.177-37.16,7.177-37.16c-13.41,1.34-43.734,24.129-43.734,24.129s10.385,41.171,3.425,41.671-7.335-36.924-7.335-36.924c-11.974,6.349-20.906,23.564-20.906,23.564-10.048,27.142,25.324,38.644,25.324,38.644s3.291,14.345-2.334,32.668h0a50.1,50.1,0,0,0-2.417,9.056l3.471-.69c.1-.987.232-1.949.407-2.881a.022.022,0,0,1,0-.017l.008-.04c.131-.584.321-1.415.562-2.429v0s0,0,0,0c.648-2.287,1.06-3.963,1.293-5.16a.054.054,0,0,0,0-.011c1.883-7.148,4.774-16.548,7.473-18.935a6.855,6.855,0,0,1-1.059-1.445l1.059,1.445c8.471,11.552,38.6,7.772,54.478,1.089s7.735-9.919-2.682-15.725-28.695-.1-34.8-1.974,1.366-6.448,12.569-7.791,18.913,8.6,37.075,6.752,25.083-38.07,25.083-38.07c-11.549,6.265-34.967,3.858-36.659-.217s31.072-10.143,35.912-12.428,11.729-14.241,2.165-33.517" transform="translate(-693.145 -93.666)" fill="#e9e9e9"/>
        <path id="Path_1283" data-name="Path 1283" d="M107.025,489.38c-3.893-21.163,30.523-30.44,30.523-30.44s37.158,22.51,43.777,20.3-28.011-25.449-28.011-25.449c11.539-6.962,49.471-6.889,49.471-6.889s16.356,39.183,22.227,35.414-16.252-33.956-16.252-33.956c13.39-2.091,30.857,6.339,30.857,6.339,24.308,15.709,2.882,46.112,2.882,46.112s5.961,13.457,21.443,24.755h0a50.087,50.087,0,0,1,7.362,5.8l-3.192,1.528q-1.006-1.1-2.052-2.063a.022.022,0,0,0-.013-.011l-.03-.028c-.455-.388-1.105-.94-1.906-1.607l0,0s0,0,0,0c-1.889-1.442-3.223-2.537-4.127-3.356l-.008-.008c-5.79-4.595-13.738-10.388-17.329-10.682a6.857,6.857,0,0,0-.018-1.791c.006.571.011,1.166.018,1.791.14,14.324-26.247,29.353-42.963,33.515s-12.136-3.306-7.275-14.2,22.914-17.274,26.68-22.434-4.957-4.343-14.731,1.295-9.991,18.214-25.636,27.621-42.893-15.449-42.893-15.449c13-1.9,30.306-17.864,29.219-22.14s-30.954,10.5-36.2,11.569-17.924-4.373-21.817-25.536" transform="translate(-64.118 -268.511)" fill="#e9e9e9"/>
        <path id="Path_1284" data-name="Path 1284" d="M1300.2,721.754c16.935-13.274-2.7-43.023-2.7-43.023s-42.748-7.752-46.243-13.79,37.842-.509,37.842-.509c-4.032-12.859-32.5-37.932-32.5-37.932s-38.209,18.518-40.11,11.8,34.668-14.671,34.668-14.671c-8.646-10.437-27.314-15.693-27.314-15.693-28.616-4.335-32.705,32.634-32.705,32.634s-13.38,6.132-32.462,4.34h0a50.073,50.073,0,0,0-9.359-.53l1.38,3.259c.987-.1,1.955-.168,2.9-.186a.02.02,0,0,1,.017,0h.041c.6.01,1.451.028,2.493.058h.009c2.371.17,4.1.234,5.315.22h.011c7.381.394,17.172,1.319,20.058,3.478a6.866,6.866,0,0,1,1.2-1.33l-1.2,1.33c-9.594,10.638.218,39.375,9.982,53.567s11.281,5.563,14.854-5.816-5.722-28.119-5.125-34.479,6.59.03,10.178,10.728-4.581,20.263.908,37.674,42.365,16.841,42.365,16.841c-8.477-10.039-10.87-33.458-7.222-35.942s16.234,28.37,19.453,32.645,16.324,8.6,33.259-4.678" transform="translate(-690.534 -365.053)" fill="#e9e9e9"/>
        <g id="Group_797" data-name="Group 797" transform="translate(455.914 41.299)" opacity="0.5">
          <g id="Group_796" data-name="Group 796">
            <g id="Group_795" data-name="Group 795" clip-path="url(#clip-path-3)">
              <path id="Path_1285" data-name="Path 1285" d="M1142.133,169.734s1.986-39.65,20.521-64.507a4.408,4.408,0,0,1,7.922,2.445c0,.069.006.138.008.208.223,7.033-20.3,38.179-28.451,61.853" transform="translate(-1142.132 -103.464)" fill="#e9e9e9"/>
            </g>
          </g>
        </g>
        <g id="Group_800" data-name="Group 800" transform="translate(454.242 43.428)" opacity="0.5">
          <g id="Group_799" data-name="Group 799">
            <g id="Group_798" data-name="Group 798" clip-path="url(#clip-path-4)">
              <path id="Path_1286" data-name="Path 1286" d="M1137.941,184.365s16.694-50.538,49.5-74.639a4.676,4.676,0,0,1,6.408.76c1,1.266,1.558,3.314.756,6.627-2.137,8.834-38.385,40.571-56.66,67.252" transform="translate(-1137.941 -108.796)" fill="#e9e9e9"/>
            </g>
          </g>
        </g>
        <g id="Group_803" data-name="Group 803" transform="translate(124.882 130.971)" opacity="0.5">
          <g id="Group_802" data-name="Group 802">
            <g id="Group_801" data-name="Group 801" clip-path="url(#clip-path-5)">
              <path id="Path_1287" data-name="Path 1287" d="M358.254,369.107S341.617,340.088,318.2,328.5a3.714,3.714,0,0,0-5.016,4.862c.024.053.048.106.073.16,2.519,5.367,29.831,20.919,44.995,35.586" transform="translate(-312.847 -328.104)" fill="#e9e9e9"/>
            </g>
          </g>
        </g>
        <g id="Group_806" data-name="Group 806" transform="translate(105.625 142.714)" opacity="0.5">
          <g id="Group_805" data-name="Group 805">
            <g id="Group_804" data-name="Group 804" clip-path="url(#clip-path-6)">
              <path id="Path_1288" data-name="Path 1288" d="M334.892,394.725s-31.843-31.579-65.684-37.15a3.94,3.94,0,0,0-4.523,3.019c-.271,1.335.1,3.084,1.963,5.266,4.98,5.818,44.326,15.808,68.243,28.865" transform="translate(-264.606 -357.521)" fill="#e9e9e9"/>
            </g>
          </g>
        </g>
        <path id="Path_1289" data-name="Path 1289" d="M778.891,261.664V513.4c0,4.4-3.179,7.976-7.1,7.976h-363.2c-3.92,0-7.1-3.573-7.1-7.976V261.664c0-4.408,3.18-7.976,7.1-7.976h363.2c3.92,0,7.1,3.569,7.1,7.976" transform="translate(-241.225 -152.422)" fill="#d9d9d9"/>
        <path id="Path_1290" data-name="Path 1290" d="M691.873,226.192v20.414H286.543V226.192a7.624,7.624,0,0,1,7.625-7.625H684.249a7.624,7.624,0,0,1,7.624,7.625" transform="translate(-172.161 -131.321)" fill="#81007f"/>
        <path id="Path_1291" data-name="Path 1291" d="M317.605,248.346a3.55,3.55,0,1,1,3.55,3.55,3.55,3.55,0,0,1-3.55-3.55" transform="translate(-190.824 -147.08)" fill="#e9e9e9"/>
        <path id="Path_1292" data-name="Path 1292" d="M352.644,248.346a3.549,3.549,0,1,1,3.549,3.55,3.55,3.55,0,0,1-3.549-3.55" transform="translate(-211.876 -147.08)" fill="#e9e9e9"/>
        <path id="Path_1293" data-name="Path 1293" d="M388.569,248.346a3.55,3.55,0,1,1,3.55,3.55,3.55,3.55,0,0,1-3.55-3.55" transform="translate(-233.46 -147.08)" fill="#e9e9e9"/>
        <path id="Path_1294" data-name="Path 1294" d="M941.188,111.766l4.852-.547a1.083,1.083,0,0,1,1.019.487q.421.654.9,1.282a18.178,18.178,0,0,0,1.921,2.145,1.068,1.068,0,0,1,.263,1.175l-1.861,4.751a1.049,1.049,0,0,0,.516,1.33l4.181,2.07a1.036,1.036,0,0,0,1.329-.368l2.528-3.96a1.04,1.04,0,0,1,1.165-.451,18.861,18.861,0,0,0,5.918.589,1.074,1.074,0,0,1,1.076.746l.857,2.727a1.086,1.086,0,0,0,1.233.732l4.54-.918a.947.947,0,0,0,.262-.087,1.041,1.041,0,0,0,.581-1.063l-.4-3.625-.1-.883a18.638,18.638,0,0,0,2.2-1.454,18.925,18.925,0,0,0,2.583-2.392,1.04,1.04,0,0,1,1.161-.28l3.826,1.5a1.079,1.079,0,0,0,1.361-.527l1.583-3.2.451-.917a1.092,1.092,0,0,0-.388-1.408l-3.308-2.115a1.04,1.04,0,0,1-.466-1.133,18.7,18.7,0,0,0,.5-3.972,3.168,3.168,0,0,0,.01-.337.561.561,0,0,1,.008-.113,1.065,1.065,0,0,1,.75-.912l4.424-1.4a.794.794,0,0,0,.144-.057,1.082,1.082,0,0,0,.584-1.173l-.908-4.527a1.077,1.077,0,0,0-1.175-.857l-5.06.572a1.041,1.041,0,0,1-1.045-.548,19.048,19.048,0,0,0-1.584-2.424q-.477-.622-.994-1.191a1.1,1.1,0,0,1-.207-1.137l1.787-4.567a1.047,1.047,0,0,0-.51-1.321l-4.139-2.042a1.094,1.094,0,0,0-1.411.392l-2,3.133a1.075,1.075,0,0,1-1.251.443,18.814,18.814,0,0,0-5.709-1.025,1.069,1.069,0,0,1-1.007-.752l-1.26-3.988a1.105,1.105,0,0,0-1.265-.748l-4.511.9a1.057,1.057,0,0,0-.844,1.158l.022.212.471,4.211A1.081,1.081,0,0,1,954.208,85l0,0a18.7,18.7,0,0,0-2.8,1.778c-.477.366-.927.752-1.364,1.154a1.06,1.06,0,0,1-1.115.218l-3.883-1.526a1.1,1.1,0,0,0-1.385.532l-2.036,4.12a1.172,1.172,0,0,0-.1.362,1.091,1.091,0,0,0,.489,1.022l2.647,1.682a1.09,1.09,0,0,1,.494.95,1.157,1.157,0,0,1-.054.3,18.755,18.755,0,0,0-.953,7.352,1.048,1.048,0,0,1-.735,1.081l-3.583,1.132a1.072,1.072,0,0,0-.728,1.23l.02.105.882,4.413a1.093,1.093,0,0,0,1.193.864m31.039-13.777a12.583,12.583,0,0,1,.659,2.241,9.86,9.86,0,0,1-.7,5.325c-.073.15-.149.3-.226.441-4.747,8.813-17.191,7.06-19.24-2.883a10.22,10.22,0,0,1,.364-4.644,6.6,6.6,0,0,1,.372-.916,11.585,11.585,0,0,1,2.315-3.187,10.113,10.113,0,0,1,16.457,3.623" transform="translate(-564.215 -46.509)" fill="#e9e9e9"/>
        <path id="Path_1295" data-name="Path 1295" d="M205.264,725.2s.54-5.891-6.042-5.891a7.73,7.73,0,0,1,3.027,1.623s-4.2-2.465-8.767,1.322-1.73,13.286-3.119,15.089-6.8,2.164-6.138,8,17.171,13.134,16.11,17.958c0,0,6.47-9.511,1.844-13.851a8.572,8.572,0,0,1,2.484,4.649s.612-4.929-2.525-6.506c-2.776-1.4-5.05-6.5-4.809-7.411s7.935-14.979,7.935-14.979" transform="translate(-110.652 -432.174)" fill="#151f2c"/>
        <path id="Path_1296" data-name="Path 1296" d="M210.287,804.92s4.917,20.344,9.745,24.411c2.9,2.444,11.528,8.054,11.528,8.054l-3.588,1.3s-11.966-4.041-14.645-7.191-10.013-18.933-10.013-18.933Z" transform="translate(-122.155 -483.614)" fill="#ee805f"/>
        <path id="Path_1297" data-name="Path 1297" d="M100.389,865.511c.043.078.089.159.135.239,1.076,1.87,3.545,6.453,6.264,11.468,1.286,2.379,2.633,4.856,3.91,7.187,2.2,4.023,4.2,7.6,5.372,9.5,1.188,1.924,2.063,3.277,2.417,3.818l0,0a.9.9,0,0,1,.115.558,29.186,29.186,0,0,0,.078,5.044,38.691,38.691,0,0,0,12.642,25.06l3.271.483s-4.629-17.151-5.993-26.847a18.619,18.619,0,0,1-.25-3.844,40.136,40.136,0,0,0-1.056-10.493,235.07,235.07,0,0,0-6.689-24.289c-.152-.475-4.753-17.116-4.753-17.116-3.861,3.375-17.945,4.767-17.945,4.767s-2.388,5.806,2.48,14.464" transform="translate(-58.474 -508.464)" fill="#384152"/>
        <path id="Path_1298" data-name="Path 1298" d="M187.233,1052.111H173.58a7.5,7.5,0,0,1,.386-3.66c.683-1.515,1.657-1.563.125-3.937.867.893,3.656,1.263,5.63,1,.242.392,1.559,3.022,2.367,3.6.892.641,4.871.413,5.145,3" transform="translate(-104.246 -627.567)" fill="#151f2c"/>
        <path id="Path_1299" data-name="Path 1299" d="M105,882.339c.043.078.089.159.135.239,1.076,1.87,6.9,12.619,9.614,17.634a72.715,72.715,0,0,1-.959-25.924Z" transform="translate(-63.088 -525.292)" fill="#151f2c"/>
        <path id="Path_1300" data-name="Path 1300" d="M216.326,731.843c.089-.358-7.8,3.565-8.2,4.008-3.7,4.1-2.644,9.458-.528,9.509,1.358.033,1.095,2.29,1.095,2.29l15.122-6.4s-1.821-10.618-7.491-9.41" transform="translate(-123.576 -439.65)" fill="#151f2c"/>
        <path id="Path_1301" data-name="Path 1301" d="M207.643,797.267s2.3,4.6,2.014,8.328c0,0-2.775,4.38-9.972,5.49,0,0,6.188-13.821,7.958-13.818" transform="translate(-119.975 -479.016)" fill="#81007f"/>
        <path id="Path_1302" data-name="Path 1302" d="M80.086,847.775l.046-2.554c-5.088.641-17.542-6.08-17.542-6.08s-5.323,3.54-6.052,13.65c-.356,4.935-2.605,25.8-2.854,32.035-.091,2.259-.121,3.871-.131,4.515a.014.014,0,0,1,0,.006.888.888,0,0,1-.216.526,29.142,29.142,0,0,0-2.757,4.226c-7.764,14.444-3.7,34.071-3.7,34.071l1.8-.458s6.564-20.347,10.854-29.148a18.433,18.433,0,0,1,1.943-3.326,40.172,40.172,0,0,0,4.991-9.291c3.169-7.571,13.618-38.173,13.618-38.173" transform="translate(-27.527 -504.175)" fill="#384152"/>
        <path id="Path_1303" data-name="Path 1303" d="M55.01,1051.963H41.357a7.5,7.5,0,0,1,.386-3.66c.683-1.514,1.754-2.2,1.5-4.036A4.916,4.916,0,0,0,47.5,1045.9a14.979,14.979,0,0,0,2.369,3.071c.892.641,4.871.413,5.145,3" transform="translate(-24.803 -627.419)" fill="#151f2c"/>
        <path id="Path_1304" data-name="Path 1304" d="M130.746,802.37c-1.834.313.3,1.771-2.223,2.045-3.59.392-7.3.66-9.238,1.434a2.086,2.086,0,0,0-1.33,1.077c-.842,2.531-6.172,6.879-6.172,6.879-23.774-1.082-25.306-11.678-25.306-11.678,15.43-14.986,28.556-23.154,39.405-24.165a19.293,19.293,0,0,1,7.869.828c3.794,1.689,5.874,6.83,5.874,6.83s-1.911,15.561-8.879,16.75" transform="translate(-51.957 -467.369)" fill="#81007f"/>
        <path id="Path_1305" data-name="Path 1305" d="M177.786,815.237c-3.59.392-7.3.66-9.239,1.435a37.859,37.859,0,0,1,4.8-20.776s3.65,14.855,4.436,19.341" transform="translate(-101.22 -478.192)" fill="#5e075e"/>
        <path id="Path_1306" data-name="Path 1306" d="M204.325,774.414c.679,2.126,2.941,8.183,6.077,5.852-.107-.452.552-1.767,1.329-3.1.993-1.706,2.175-3.45,2.175-3.45l-5.11-4.477-.3-.268a13.018,13.018,0,0,1-3.8,4.316,1.02,1.02,0,0,0-.365,1.128" transform="translate(-122.734 -462.014)" fill="#ee805f"/>
        <path id="Path_1307" data-name="Path 1307" d="M220.567,774.118s-1.181,1.74-2.174,3.448c-3.176-1.958-3.179-5.89-2.934-7.927Z" transform="translate(-129.395 -462.416)" fill="#de6b4d"/>
        <path id="Path_1308" data-name="Path 1308" d="M220.389,762.619s-7.712-4.291-4.965-9.053,3.6-8.522,8.64-5.983,4.94,4.9,4.41,6.715-6.008,9.314-8.085,8.321" transform="translate(-129.076 -448.674)" fill="#ee805f"/>
        <path id="Path_1309" data-name="Path 1309" d="M228.557,750.549c-.353-2.114-1.427-2.316-2.176-2.175a6.168,6.168,0,0,0-7.5-2.872,10.5,10.5,0,0,1-6.078,3.651s.895,1.665,4.582,2.7a6.306,6.306,0,0,0,3.637-.291,20.587,20.587,0,0,1-5.233,1.973c4.859.445,9.482-4,9.961-4.473a6.911,6.911,0,0,1,.382,3.183c-.32,1.431-1.591,4.025-.815,4.361,0,0,3.77-2.883,3.24-6.054" transform="translate(-127.856 -447.703)" fill="#151f2c"/>
        <rect id="Rectangle_519" data-name="Rectangle 519" width="16.789" height="64.015" transform="translate(112.636 379.071) rotate(-64.01)" fill="#81007f"/>
        <path id="Path_1310" data-name="Path 1310" d="M221.431,902.89a19.023,19.023,0,0,1-10.3-13.091,4.323,4.323,0,1,1,8.445-1.856,10.472,10.472,0,1,0,7.268-12.281,4.323,4.323,0,0,1-2.449-8.293,19.118,19.118,0,1,1-2.966,35.521" transform="translate(-126.792 -520.663)" fill="#81007f"/>
        <path id="Path_1311" data-name="Path 1311" d="M424.843,1002.314A19.118,19.118,0,1,1,451,978.1a4.323,4.323,0,1,1-8.041,3.178,10.471,10.471,0,1,0-5.2,13.29,4.323,4.323,0,1,1,3.739,7.8,19.024,19.024,0,0,1-16.655-.049" transform="translate(-248.803 -580.402)" fill="#81007f"/>
        <path id="Path_1312" data-name="Path 1312" d="M345.758,956.751l-30.313-14.779a1.763,1.763,0,0,1-.81-2.351l.77-1.581a1.764,1.764,0,0,1,2.352-.81l30.313,14.778a1.764,1.764,0,0,1,.81,2.352l-.77,1.581a1.764,1.764,0,0,1-2.352.81" transform="translate(-188.933 -563.003)" fill="#5e075e"/>
        <path id="Path_1313" data-name="Path 1313" d="M212.425,918.54a5.1,5.1,0,0,0,.774,2.179c.608.742,2.374,2.538,2.405,3.589,0,0-.089.467-.468.382s-1.695-1.388-2.37-1.295a13.062,13.062,0,0,0,.718,2.7,7.409,7.409,0,0,1,.8,3.34c-.214.512-3.789-2.468-4.872-3.924s-.017-7.365-.017-7.365Z" transform="translate(-125.527 -551.642)" fill="#ee805f"/>
        <path id="Path_1314" data-name="Path 1314" d="M183.058,790.852s-9.028-.493-10.632,5.175,3.009,28.293,4,30.628c1.81,4.251,10.623,16.385,10.623,16.385l3.241-.987s-5.876-18.537-7.188-20.37c-2.06-2.88,2.655-28.364-.048-30.831" transform="translate(-103.395 -475.155)" fill="#ee805f"/>
        <path id="Path_1315" data-name="Path 1315" d="M168.471,801.087c.024.133,8.544,1.567,13.872-1.138,0,0,4.452-13.946-1.91-13.279s-10.129,2.671-10.289,5.717a58.638,58.638,0,0,1-1.673,8.7" transform="translate(-101.221 -472.635)" fill="#81007f"/>
        <path id="Path_1316" data-name="Path 1316" d="M259.836,863.506a3.528,3.528,0,0,0-1.5.378c-.492.38-1.046,1.04.057,1.59,1.655.824,4.963.458,4.834-.038-.407-1.564-1-2.039-3.4-1.929" transform="translate(-154.866 -518.805)" fill="#ee805f"/>
        <path id="Path_1317" data-name="Path 1317" d="M525.935,286.489a1.545,1.545,0,0,0-.275,1.652.012.012,0,0,0,0,.008c.4,1.1,1.715,2.331,3.244,3.559.195.158.369.3.52.434.04.035.08.069.117.1l.089.081c1.426,1.314.89,1.615,3.451,4.282,2.92,3.039,4.931,3.094,5.5,2.817.485-.236-.5-1.848-1.588-3.659l-.159-.264c-.145-.241-.289-.485-.434-.727-1.277-2.18-.949-3.2-.646-6.448.245-2.637,4.1-14.73,4.1-14.73l-5.6-.964s-1.685,9.63-3.543,11.113c-.993.791-2.1.8-3.059,1.387-.068.041-.133.082-.2.125a7.336,7.336,0,0,0-1.531,1.231" transform="translate(-315.754 -163.805)" fill="#ee805f"/>
        <path id="Path_1318" data-name="Path 1318" d="M525.935,305.3a1.545,1.545,0,0,0-.275,1.652.012.012,0,0,0,0,.008,11.9,11.9,0,0,0,3.249,3.547c.193.16.363.308.515.445.04.035.08.069.117.1l.089.081c1.426,1.314.89,1.615,3.451,4.282,2.92,3.039,4.931,3.094,5.5,2.817.485-.236-.5-1.848-1.588-3.659a12.447,12.447,0,0,1-5.207-3.836c-1.759-2.244-2.932-5.128-4.129-6.8-.068.041-.133.082-.2.125a7.338,7.338,0,0,0-1.531,1.231" transform="translate(-315.754 -182.619)" fill="#151f2c"/>
        <path id="Path_1319" data-name="Path 1319" d="M632.859,280.429c.346,1.728,2.808,1.439,5.56.767s2.1.127,6.013-.307,5.1-1.894,5.222-2.476c.107-.517-1.828-.7-3.9-.938-.261-.029-.523-.061-.786-.094-2.343-.294-4.059-1.806-6.187-3.048-2.016-1.176-5.025-5.969-5.025-5.969l-5.37.426s2.818,4.28,3.908,6.141a6.491,6.491,0,0,1,.527,3.66,6.893,6.893,0,0,0,.041,1.837" transform="translate(-377.545 -161.241)" fill="#ee805f"/>
        <path id="Path_1320" data-name="Path 1320" d="M645.033,294.908c2.752-.673,2.1.127,6.013-.307s5.1-1.894,5.222-2.476c.107-.517-1.828-.7-3.9-.938l-.02.04a11.041,11.041,0,0,1-5.608,1.743c-2.657.064-5.471-.7-7.305-.667a6.9,6.9,0,0,0,.042,1.837c.345,1.728,2.808,1.439,5.56.767" transform="translate(-384.159 -174.953)" fill="#151f2c"/>
        <path id="Path_1321" data-name="Path 1321" d="M560.309,199.6l-5.02,13.509-6.554,17.639a10.609,10.609,0,0,1-3.482-.318,15.094,15.094,0,0,1-3.367-1.639s1.82-18.939,5.215-29.811a19.363,19.363,0,0,1,2.921-6.319c5.263-6.22,10.288,6.939,10.288,6.939" transform="translate(-325.576 -114.755)" fill="#151f2c"/>
        <path id="Path_1322" data-name="Path 1322" d="M502.165,154.755c-3.289-1.061-12.67.3-22.093,2.146l-1.973-3.254-20.354-1.59s-6.716,14.895-3.039,24.385a3.442,3.442,0,0,0,3.445,2.319h.3s12.114-.007,16.048-.007c10.122,0,21.422-6.958,22.883-7.25,2.393-.479,3.35,4.307,5.743,9.331s22.491,22.251,22.491,22.251a17.7,17.7,0,0,0,4.365-.447,4.3,4.3,0,0,0,1.875-1.183s-22.27-44.307-29.687-46.7" transform="translate(-272.536 -91.36)" fill="#384152"/>
        <path id="Path_1323" data-name="Path 1323" d="M458.979.328c-2.852-.734-6.756,0-7.4.061-7.744.762-10.347,9.4-9.175,16.1,1.082,6.186-2.056,7.9-5.692,12.783-7.291,9.8-2.526,18.056,3.227,20.186,3.452,1.277,8.244-1.946,8.244-1.946.087.034,15.057-9.809,21.2-15.357,10.221-4-3.129-29.961-10.4-31.831" transform="translate(-260.159 -0.003)" fill="#151f2c"/>
        <path id="Path_1324" data-name="Path 1324" d="M485.22,57.482c.2.717-3.184,2.035-5.77,1.55-2.433-.453-5.159-3.3-4.6-3.569.931-.442,1.557-1.542,1.048-7.491l.463.052,7.784.889s.024,2.425.2,4.7a15.379,15.379,0,0,0,.868,3.874" transform="translate(-285.257 -28.824)" fill="#ee805f"/>
        <path id="Path_1325" data-name="Path 1325" d="M486.534,48.992s.024,2.425.2,4.7c-4.3.231-6.882-3.494-7.988-5.585Z" transform="translate(-287.644 -28.902)" fill="#de6b4d"/>
        <path id="Path_1326" data-name="Path 1326" d="M485.365,30.038s-10.127,1-10.652-5.317-2.185-10.441,4.258-11.345,7.9,1.4,8.59,3.466.425,12.774-2.2,13.2" transform="translate(-284.867 -7.916)" fill="#ee805f"/>
        <path id="Path_1327" data-name="Path 1327" d="M479.758,9.675s-1.275,7.716-7.043,9.547c-4.208,1.336-6.113.455-6.113.455a17.148,17.148,0,0,0,2.745-6.42,3.087,3.087,0,0,1,2.06-2.356c2.989-.984,6.612-3.673,8.351-1.226" transform="translate(-280.344 -5.213)" fill="#151f2c"/>
        <path id="Path_1328" data-name="Path 1328" d="M494.778,12.641a6.7,6.7,0,0,1,3.6,2.888,12.924,12.924,0,0,1,1.812,6.24s1.772-7.141-.812-9.8c-2.74-2.817-4.6.67-4.6.67" transform="translate(-297.273 -6.534)" fill="#151f2c"/>
        <path id="Path_1329" data-name="Path 1329" d="M453.854,88.662c.18.767.335,1.473.461,2.124.206,1.051.348,1.956.448,2.755.309,2.491.216,3.967.426,5.581a13.9,13.9,0,0,0,.757,3.039c.419,1.157,11.424,2.188,17.685,1.772,1.988-.129,3.5-.409,4.041-.873,2.233-1.94,2.011,2.327,2.317-18.087.148-9.957-8.449-18.825-8.449-18.825s-.687,4.254-9.213-.809c-.3-.177-3.661,4.795-6.893,10.918-3.561,6.764-2.584,8.194-1.579,12.406" transform="translate(-272.126 -39.255)" fill="#81007f"/>
        <path id="Path_1330" data-name="Path 1330" d="M555.289,225.137l-6.554,17.639a10.622,10.622,0,0,1-3.482-.318,15.108,15.108,0,0,1-3.367-1.639s1.82-18.939,5.215-29.811Z" transform="translate(-325.576 -126.779)" fill="#384152"/>
        <path id="Path_1331" data-name="Path 1331" d="M499.559,67.367s8.773,1.487,9.8,5.265,8.148,24.9,8.148,24.9-5.515,1.882-7.575-.178-7.169-19.115-7.169-19.115Z" transform="translate(-300.146 -40.477)" fill="#81007f"/>
        <path id="Path_1332" data-name="Path 1332" d="M496.422,45.778a1.741,1.741,0,0,0,1.546,1.039c1.121,0,1.424-.168,1.637-.405a3.518,3.518,0,0,0,.423-.695,9.525,9.525,0,0,0-3.605.061" transform="translate(-298.261 -27.381)" fill="#fff"/>
        <path id="Path_1333" data-name="Path 1333" d="M457.531,135.137c.309,2.491.216,3.967.426,5.581,7.966.026,18.616-6.152,18.616-6.152Z" transform="translate(-274.894 -80.852)" fill="#5e075e"/>
        <path id="Path_1334" data-name="Path 1334" d="M476.073,106.129s-12.409-.37-14.5-7.424c-2.3-7.749-4.872,3.187-4.872,3.187l1.37,6.979h13.614Z" transform="translate(-274.395 -57.638)" fill="#5e075e"/>
        <path id="Path_1335" data-name="Path 1335" d="M533.224,66.6l-.671-1.661a4.711,4.711,0,0,0-4.368-2.947H515.815v41.362h51.174V69.841H538.031a5.184,5.184,0,0,1-4.807-3.243" transform="translate(-309.913 -37.247)" fill="#d9d9d9"/>
        <path id="Path_1336" data-name="Path 1336" d="M535.152,113.619v-2.981l10.457-4.581V109.1l-7.3,3,7.3,3v3.09Z" transform="translate(-321.531 -63.722)" fill="#fff"/>
        <path id="Path_1337" data-name="Path 1337" d="M574.168,97.126h2.787l-9.571,20.007H564.6Z" transform="translate(-339.221 -58.356)" fill="#fff"/>
        <path id="Path_1338" data-name="Path 1338" d="M608.937,110.638v2.981L598.48,118.2v-3.047l7.3-3-7.3-3v-3.09Z" transform="translate(-359.579 -63.722)" fill="#fff"/>
        <path id="Path_1339" data-name="Path 1339" d="M505.228,119.107l.9-1.409a7.216,7.216,0,0,0,1.708-.931c1.185-.832,1.029-2.079,1.621-1.947l.008,2.74-.065.009c2.543.679,5.517-.059,5.577.574.164,1.742-1.184,2.526-2.312,3.072a4.092,4.092,0,0,1-3.406.558c-1.141-.355-2.936-.717-2.936-.717Z" transform="translate(-303.552 -68.981)" fill="#ee805f"/>
        <path id="Path_1340" data-name="Path 1340" d="M455.734,65.348s-8.055.527-10.069,3.669S441.154,88.11,442.2,93.588s26.844-1.047,26.844-1.047l-.823-4.753s-14.888.086-15.736-1.853c-1.128-2.578,3.249-20.587,3.249-20.587" transform="translate(-265.535 -39.264)" fill="#81007f"/>
        <path id="Path_1341" data-name="Path 1341" d="M573.884,79.29c-.069.209,1.211,2.319,3.041,1.952,1.141-.229,2.623-2.684,1.32-3.226a3.705,3.705,0,0,0-4.361,1.273" transform="translate(-344.8 -46.714)" fill="#ee805f"/>
        <rect id="Rectangle_520" data-name="Rectangle 520" width="63.532" height="0.307" transform="matrix(0.471, -0.882, 0.882, 0.471, 307.567, 143.223)" fill="#151f2c"/>
        <rect id="Rectangle_521" data-name="Rectangle 521" width="0.307" height="49.473" transform="translate(413.417 87.351) rotate(-42.827)" fill="#151f2c"/>
        <path id="Path_1342" data-name="Path 1342" d="M905.641,318.6a13.457,13.457,0,0,1-2.509,9.855,12.832,12.832,0,0,1-8.581,5.133l-150.362,20.66c-7.674,1.055-14.77-4.03-15.769-11.3a12.946,12.946,0,0,1,2.817-9.9,14.435,14.435,0,0,1,9.321-5.235l150.362-20.66a13.223,13.223,0,0,1,14.721,11.44" transform="translate(-437.579 -184.477)" fill="#e9e9e9"/>
        <path id="Path_1343" data-name="Path 1343" d="M1109.452,318.6a13.456,13.456,0,0,1-2.509,9.855,12.832,12.832,0,0,1-8.581,5.133l-27.209,3.739-3.631-26.428,27.209-3.739a13.223,13.223,0,0,1,14.721,11.44" transform="translate(-641.389 -184.477)" fill="#81007f"/>
        <path id="Path_1344" data-name="Path 1344" d="M1119.434,333.594a6.9,6.9,0,0,1-1.018.063,6.773,6.773,0,1,1,1.018-.063m-4.908-10.8a5.678,5.678,0,1,0,8.03.093,5.685,5.685,0,0,0-8.03-.093" transform="translate(-667.932 -192.303)" fill="#fff"/>
        <rect id="Rectangle_522" data-name="Rectangle 522" width="9.277" height="1.12" transform="matrix(0.715, -0.699, 0.699, 0.715, 439.073, 145)" fill="#fff"/>
        <path id="Path_1345" data-name="Path 1345" d="M1094.715,361.593h0a1,1,0,0,1,.016-1.414l3.908-3.818a1,1,0,1,1,1.4,1.43l-3.908,3.819a1,1,0,0,1-1.413-.016" transform="translate(-657.557 -213.939)" fill="#fff"/>
        <path id="Path_1346" data-name="Path 1346" d="M490.945,691.425H459.531a1.184,1.184,0,0,1-1.184-1.184v-.5a1.184,1.184,0,0,1,1.184-1.184h31.414a1.184,1.184,0,0,1,1.184,1.184v.5a1.184,1.184,0,0,1-1.184,1.184" transform="translate(-275.384 -413.702)" fill="#81007f"/>
        <path id="Path_1347" data-name="Path 1347" d="M474.824,717.485h-15.5a.978.978,0,1,1,0-1.956h15.5a.978.978,0,0,1,0,1.956" transform="translate(-275.384 -429.906)" fill="#151f2c"/>
        <path id="Path_1348" data-name="Path 1348" d="M486.693,707.209H459.256a.91.91,0,0,1-.91-.91v-.136a.91.91,0,0,1,.91-.91h27.437a.91.91,0,0,1,.91.91v.136a.91.91,0,0,1-.91.91" transform="translate(-275.384 -423.732)" fill="#151f2c"/>
        <path id="Path_1349" data-name="Path 1349" d="M564.759,707.209H539.2a.88.88,0,0,1-.879-.879v-.2a.88.88,0,0,1,.879-.879h25.561a.879.879,0,0,1,.879.879v.2a.88.88,0,0,1-.879.879" transform="translate(-323.433 -423.732)" fill="#151f2c"/>
        <path id="Path_1350" data-name="Path 1350" d="M523.257,717.485h-15.5a.978.978,0,0,1,0-1.956h15.5a.978.978,0,1,1,0,1.956" transform="translate(-304.483 -429.906)" fill="#151f2c"/>
        <path id="Path_1351" data-name="Path 1351" d="M586.774,691.425H555.36a1.184,1.184,0,0,1-1.184-1.184v-.5a1.184,1.184,0,0,1,1.184-1.184h31.415a1.184,1.184,0,0,1,1.184,1.184v.5a1.184,1.184,0,0,1-1.184,1.184" transform="translate(-332.961 -413.702)" fill="#81007f"/>
        <path id="Path_1352" data-name="Path 1352" d="M490.945,745.487H459.531a1.184,1.184,0,0,1-1.184-1.184v-.5a1.184,1.184,0,0,1,1.184-1.184h31.414a1.184,1.184,0,0,1,1.184,1.184v.5a1.184,1.184,0,0,1-1.184,1.184" transform="translate(-275.384 -446.183)" fill="#81007f"/>
        <path id="Path_1353" data-name="Path 1353" d="M474.824,771.546h-15.5a.978.978,0,1,1,0-1.956h15.5a.978.978,0,1,1,0,1.956" transform="translate(-275.384 -462.387)" fill="#151f2c"/>
        <path id="Path_1354" data-name="Path 1354" d="M486.693,761.27H459.256a.91.91,0,0,1-.91-.91v-.136a.91.91,0,0,1,.91-.91h27.437a.91.91,0,0,1,.91.91v.136a.91.91,0,0,1-.91.91" transform="translate(-275.384 -456.213)" fill="#151f2c"/>
        <path id="Path_1355" data-name="Path 1355" d="M564.759,761.27H539.2a.88.88,0,0,1-.879-.88v-.2a.88.88,0,0,1,.879-.879h25.561a.879.879,0,0,1,.879.879v.2a.88.88,0,0,1-.879.88" transform="translate(-323.433 -456.213)" fill="#151f2c"/>
        <path id="Path_1356" data-name="Path 1356" d="M523.257,771.546h-15.5a.978.978,0,0,1,0-1.956h15.5a.978.978,0,1,1,0,1.956" transform="translate(-304.483 -462.387)" fill="#151f2c"/>
        <path id="Path_1357" data-name="Path 1357" d="M586.774,745.487H555.36a1.183,1.183,0,0,1-1.184-1.184v-.5a1.184,1.184,0,0,1,1.184-1.184h31.415a1.184,1.184,0,0,1,1.184,1.184v.5a1.184,1.184,0,0,1-1.184,1.184" transform="translate(-332.961 -446.183)" fill="#81007f"/>
        <path id="Path_1358" data-name="Path 1358" d="M898.508,396.432l-17.941,4.175L871.7,416.75l-6.774-36.79Z" transform="translate(-519.663 -228.289)" fill="#384152"/>
        <rect id="Rectangle_523" data-name="Rectangle 523" width="3.28" height="18.975" transform="translate(357.311 170.754) rotate(-37.15)" fill="#384152"/>
        <path id="Path_1359" data-name="Path 1359" d="M848.37,535.6H804.253a3.233,3.233,0,0,1-3.233-3.233V488.25a3.233,3.233,0,0,1,3.233-3.233H848.37a3.233,3.233,0,0,1,3.233,3.233v44.117a3.233,3.233,0,0,1-3.233,3.233" transform="translate(-481.27 -291.41)" fill="#e9e9e9"/>
        <path id="Path_1360" data-name="Path 1360" d="M816.591,556.052l9.829-17.72a3.232,3.232,0,0,1,5.434-.343l5.669,7.732a3.233,3.233,0,0,0,4.993.271,3.233,3.233,0,0,1,5.1.425l6.118,9.446a3.233,3.233,0,0,1-2.714,4.991h-31.6a3.233,3.233,0,0,1-2.827-4.8" transform="translate(-490.379 -322.442)" fill="#5e075e"/>
        <path id="Path_1361" data-name="Path 1361" d="M865.8,514.271a3.866,3.866,0,1,1,3.866,3.866,3.866,3.866,0,0,1-3.866-3.866" transform="translate(-520.192 -306.663)" fill="#5e075e"/>
        <path id="Path_1362" data-name="Path 1362" d="M1001.455,539.666l-43.712,5.963a3.233,3.233,0,0,1-3.641-2.766l-5.963-43.712a3.232,3.232,0,0,1,2.766-3.64l43.712-5.963a3.233,3.233,0,0,1,3.64,2.766l5.963,43.712a3.233,3.233,0,0,1-2.766,3.641" transform="translate(-569.645 -294.114)" fill="#e9e9e9"/>
        <path id="Path_1363" data-name="Path 1363" d="M976.339,571.2l7.344-18.886a3.233,3.233,0,0,1,5.338-1.075l6.662,6.9a3.233,3.233,0,0,0,4.984-.406,3.233,3.233,0,0,1,5.109-.268l7.338,8.532a3.233,3.233,0,0,1-2.014,5.311l-31.312,4.271a3.233,3.233,0,0,1-3.45-4.375" transform="translate(-586.47 -330.604)" fill="#5e075e"/>
        <path id="Path_1364" data-name="Path 1364" d="M1015.965,525.015a3.866,3.866,0,1,1,4.353,3.308,3.866,3.866,0,0,1-4.353-3.308" transform="translate(-610.391 -312.804)" fill="#5e075e"/>
        <rect id="Rectangle_524" data-name="Rectangle 524" width="25.492" height="21.857" transform="translate(277.791 401.818)" fill="#81007f"/>
        <rect id="Rectangle_525" data-name="Rectangle 525" width="27.384" height="1.689" transform="translate(276.762 400.882)" fill="#384152"/>
        <rect id="Rectangle_526" data-name="Rectangle 526" width="25.492" height="6.943" transform="translate(277.791 407.731)" fill="#384152"/>
        <path id="Path_1365" data-name="Path 1365" d="M798.832,1052.584h-24.07a1.6,1.6,0,0,1-1.6-1.6v-2.67a1.6,1.6,0,0,1,1.772-1.586l24.07,2.67a1.6,1.6,0,0,1-.176,3.182" transform="translate(-464.534 -628.894)" fill="#81007f"/>
        <path id="Path_1366" data-name="Path 1366" d="M670.969,1063.384.817,1063.153a.82.82,0,0,1-.817-.817v-.418a.819.819,0,0,1,.817-.816l670.152.231a.819.819,0,0,1,.817.817v.418a.82.82,0,0,1-.817.817" transform="translate(0 -637.533)" fill="#b8c0c7"/>
        <path id="Path_1367" data-name="Path 1367" d="M579.721,523.354h-2.774a.456.456,0,1,1,0-.912H579.7a.465.465,0,0,1,.466.456.448.448,0,0,1-.447.456m-5.529,0h-2.755a.456.456,0,1,1,0-.912h2.755a.456.456,0,0,1,0,.912m-5.51,0h-2.755a.456.456,0,1,1,0-.912h2.755a.456.456,0,0,1,0,.912m-5.51,0h-2.755a.456.456,0,0,1,0-.912h2.755a.456.456,0,0,1,0,.912m-5.51,0h-2.755a.456.456,0,0,1,0-.912h2.755a.456.456,0,0,1,0,.912m-5.51,0H549.4a.456.456,0,0,1,0-.912h2.755a.456.456,0,1,1,0,.912m-5.51,0h-2.755a.456.456,0,1,1,0-.912h2.755a.456.456,0,1,1,0,.912m-5.51,0h-2.755a.456.456,0,0,1,0-.912h2.755a.456.456,0,0,1,0,.912m-5.51,0h-2.755a.456.456,0,0,1,0-.912h2.755a.456.456,0,0,1,0,.912m-5.51,0h-2.755a.456.456,0,0,1,0-.912h2.755a.456.456,0,1,1,0,.912m-5.51,0h-2.755a.456.456,0,1,1,0-.912H524.6a.456.456,0,0,1,0,.912m-5.511,0h-2.755a.456.456,0,1,1,0-.912h2.755a.456.456,0,1,1,0,.912m-5.51,0h-2.755a.456.456,0,1,1,0-.912h2.755a.456.456,0,0,1,0,.912m-5.51,0h-2.755a.456.456,0,1,1,0-.912h2.755a.456.456,0,0,1,0,.912m-5.51,0H499.8a.456.456,0,1,1,0-.912h2.755a.456.456,0,1,1,0,.912m-5.51,0h-2.755a.456.456,0,0,1,0-.912h2.755a.456.456,0,1,1,0,.912m-5.51,0h-2.755a.456.456,0,0,1,0-.912h2.755a.456.456,0,0,1,0,.912m-5.51,0h-2.456q-.165,0-.328-.01a.456.456,0,0,1,.058-.91c.089.005.18.008.27.008h2.456a.456.456,0,0,1,0,.912m96.286-.8a.456.456,0,0,1-.257-.833,4.2,4.2,0,0,0,1.539-1.906.456.456,0,1,1,.846.341,5.1,5.1,0,0,1-1.872,2.319.452.452,0,0,1-.256.079m-101.581-.164a.453.453,0,0,1-.278-.1,5.093,5.093,0,0,1-1.729-2.427.456.456,0,1,1,.865-.289,4.188,4.188,0,0,0,1.421,1.994.456.456,0,0,1-.279.817m103.622-4.659a.456.456,0,0,1-.456-.456v-2.755a.456.456,0,1,1,.912,0v2.755a.456.456,0,0,1-.456.456m-105.436-.28a.456.456,0,0,1-.456-.456v-2.755a.456.456,0,1,1,.912,0v2.755a.456.456,0,0,1-.456.456m105.436-5.23a.456.456,0,0,1-.456-.456v-2.755a.456.456,0,1,1,.912,0v2.755a.456.456,0,0,1-.456.456m-105.436-.28a.456.456,0,0,1-.456-.456v-2.755a.456.456,0,1,1,.912,0v2.755a.456.456,0,0,1-.456.456m105.436-5.23a.456.456,0,0,1-.456-.456V503.5a.456.456,0,0,1,.912,0v2.755a.456.456,0,0,1-.456.456m-105.436-.28a.456.456,0,0,1-.456-.456v-2.755a.456.456,0,0,1,.912,0v2.755a.456.456,0,0,1-.456.456m105.436-5.23a.456.456,0,0,1-.456-.456v-2.755a.456.456,0,0,1,.912,0v2.755a.456.456,0,0,1-.456.456m-105.436-.28a.456.456,0,0,1-.456-.456v-2.755a.456.456,0,0,1,.912,0v2.755a.456.456,0,0,1-.456.456m105.436-5.23a.456.456,0,0,1-.456-.456v-2.755a.456.456,0,1,1,.912,0v2.755a.456.456,0,0,1-.456.456m-105.436-.28a.456.456,0,0,1-.456-.456V492.2a.456.456,0,0,1,.912,0v2.755a.456.456,0,0,1-.456.456m105.436-5.23a.456.456,0,0,1-.456-.456v-2.755a.456.456,0,1,1,.912,0v2.755a.456.456,0,0,1-.456.456m-105.436-.28a.456.456,0,0,1-.456-.456v-2.755a.456.456,0,1,1,.912,0v2.755a.456.456,0,0,1-.456.456m105.436-5.23a.456.456,0,0,1-.456-.456v-2.755a.456.456,0,0,1,.912,0v2.755a.456.456,0,0,1-.456.456m-105.436-.28a.456.456,0,0,1-.456-.456v-2.756a.456.456,0,0,1,.912,0v2.756a.456.456,0,0,1-.456.456m105.436-5.23a.456.456,0,0,1-.456-.456v-2.756a.456.456,0,0,1,.912,0V478.7a.456.456,0,0,1-.456.456m-105.436-.28a.456.456,0,0,1-.456-.456v-2.755a.456.456,0,0,1,.912,0v2.755a.456.456,0,0,1-.456.456m105.436-5.23a.456.456,0,0,1-.456-.456v-2.755a.456.456,0,1,1,.912,0v2.755a.456.456,0,0,1-.456.456m-105.436-.28a.456.456,0,0,1-.456-.456v-2.755a.456.456,0,1,1,.912,0v2.755a.456.456,0,0,1-.456.456m105.436-5.23a.456.456,0,0,1-.456-.456v-1.244a4.2,4.2,0,0,0-.218-1.339.456.456,0,1,1,.864-.291,5.1,5.1,0,0,1,.266,1.63v1.244a.456.456,0,0,1-.456.456m-105.436-.28a.456.456,0,0,1-.456-.456v-.964a5.083,5.083,0,0,1,.373-1.919.456.456,0,1,1,.845.343,4.172,4.172,0,0,0-.306,1.576v.964a.456.456,0,0,1-.456.456M582.533,463.2a.455.455,0,0,1-.277-.094,4.171,4.171,0,0,0-2.292-.858.456.456,0,1,1,.055-.91,5.078,5.078,0,0,1,2.792,1.045.456.456,0,0,1-.278.818m-101.564-.164a.456.456,0,0,1-.256-.834,5.085,5.085,0,0,1,2.849-.875h0a.456.456,0,0,1,0,.912,4.175,4.175,0,0,0-2.34.718.454.454,0,0,1-.255.079m96.268-.8h-2.755a.456.456,0,1,1,0-.912h2.755a.456.456,0,1,1,0,.912m-5.51,0h-2.755a.456.456,0,0,1,0-.912h2.755a.456.456,0,0,1,0,.912m-5.51,0h-2.755a.456.456,0,1,1,0-.912h2.755a.456.456,0,0,1,0,.912m-5.51,0h-2.755a.456.456,0,1,1,0-.912h2.755a.456.456,0,0,1,0,.912m-5.51,0h-2.755a.456.456,0,1,1,0-.912H555.2a.456.456,0,0,1,0,.912m-5.51,0H546.93a.456.456,0,0,1,0-.912h2.755a.456.456,0,0,1,0,.912m-5.51,0H541.42a.456.456,0,1,1,0-.912h2.755a.456.456,0,1,1,0,.912m-5.51,0H535.91a.456.456,0,1,1,0-.912h2.755a.456.456,0,1,1,0,.912m-5.51,0H530.4a.456.456,0,0,1,0-.912h2.755a.456.456,0,1,1,0,.912m-5.51,0H524.89a.456.456,0,1,1,0-.912h2.755a.456.456,0,1,1,0,.912m-5.51,0h-2.756a.456.456,0,0,1,0-.912h2.756a.456.456,0,0,1,0,.912m-5.511,0h-2.755a.456.456,0,0,1,0-.912h2.755a.456.456,0,1,1,0,.912m-5.51,0h-2.755a.456.456,0,1,1,0-.912h2.755a.456.456,0,0,1,0,.912m-5.51,0h-2.755a.456.456,0,1,1,0-.912H505.6a.456.456,0,0,1,0,.912m-5.51,0h-2.755a.456.456,0,1,1,0-.912h2.755a.456.456,0,1,1,0,.912m-5.51,0h-2.755a.456.456,0,1,1,0-.912h2.755a.456.456,0,0,1,0,.912m-5.51,0h-2.755a.456.456,0,1,1,0-.912h2.755a.456.456,0,0,1,0,.912" transform="translate(-287.471 -277.177)" fill="#151f2c"/>
        <path id="Path_1368" data-name="Path 1368" d="M1051.761,783.939H1049.3a.4.4,0,1,1,0-.808h2.441a.412.412,0,0,1,.413.4.4.4,0,0,1-.395.4m-4.9,0h-2.441a.4.4,0,0,1,0-.808h2.441a.4.4,0,1,1,0,.808m-4.881,0h-2.441a.4.4,0,0,1,0-.808h2.441a.4.4,0,0,1,0,.808m-4.881,0h-2.441a.4.4,0,1,1,0-.808h2.441a.4.4,0,1,1,0,.808m-4.881,0h-2.441a.4.4,0,1,1,0-.808h2.441a.4.4,0,1,1,0,.808m-4.881,0H1024.9a.4.4,0,1,1,0-.808h2.441a.4.4,0,0,1,0,.808m-4.881,0h-2.441a.4.4,0,0,1,0-.808h2.441a.4.4,0,1,1,0,.808m-4.882,0h-2.441a.4.4,0,1,1,0-.808h2.441a.4.4,0,0,1,0,.808m-4.881,0h-2.441a.4.4,0,1,1,0-.808h2.441a.4.4,0,0,1,0,.808m-4.881,0h-2.357l-.1,0a.4.4,0,1,1,.04-.807l.063,0h2.357a.4.4,0,1,1,0,.808m45.529-1.546h-.013a.4.4,0,0,1-.391-.417v-2.427a.4.4,0,0,1,.808,0V782a.4.4,0,0,1-.4.391m-49.483-.065a.4.4,0,0,1-.4-.4v-2.441a.4.4,0,0,1,.808,0v2.441a.4.4,0,0,1-.4.4m49.484-4.816a.4.4,0,0,1-.4-.4v-2.441a.4.4,0,0,1,.808,0v2.441a.4.4,0,0,1-.4.4m-49.484-.065a.4.4,0,0,1-.4-.4V774.6a.4.4,0,1,1,.808,0v2.441a.4.4,0,0,1-.4.4m49.484-4.817a.4.4,0,0,1-.4-.4v-2.441a.4.4,0,0,1,.808,0v2.441a.4.4,0,0,1-.4.4m-49.484-.065a.4.4,0,0,1-.4-.4v-2.38c0-.026,0-.052,0-.077a.4.4,0,0,1,.42-.387.4.4,0,0,1,.387.42v2.424a.4.4,0,0,1-.4.4m47.961-3.976h-2.441a.4.4,0,0,1,0-.808h2.366l.092,0a.4.4,0,0,1-.018.807m-4.881,0h-2.441a.4.4,0,0,1,0-.808h2.441a.4.4,0,0,1,0,.808m-4.881,0h-2.44a.4.4,0,1,1,0-.808h2.44a.4.4,0,1,1,0,.808m-4.881,0h-2.441a.4.4,0,1,1,0-.808h2.441a.4.4,0,0,1,0,.808m-4.882,0h-2.441a.4.4,0,1,1,0-.808h2.441a.4.4,0,1,1,0,.808m-4.881,0h-2.441a.4.4,0,0,1,0-.808h2.441a.4.4,0,0,1,0,.808m-4.881,0h-2.441a.4.4,0,1,1,0-.808h2.441a.4.4,0,0,1,0,.808m-4.881,0h-2.441a.4.4,0,1,1,0-.808h2.441a.4.4,0,0,1,0,.808m-4.881,0h-2.44a.4.4,0,0,1,0-.808h2.44a.4.4,0,1,1,0,.808m-4.882,0h-2.431a.408.408,0,0,1-.408-.4.4.4,0,0,1,.4-.4h2.44a.4.4,0,1,1,0,.808" transform="translate(-602.895 -461.299)" fill="#151f2c"/>
        <path id="Path_1369" data-name="Path 1369" d="M628.489,387.2h-2.718a.456.456,0,0,1,0-.912h2.7a.463.463,0,0,1,.465.456.449.449,0,0,1-.448.456m-5.418,0h-2.7a.456.456,0,1,1,0-.912h2.7a.456.456,0,0,1,0,.912m-5.4,0h-2.7a.456.456,0,1,1,0-.912h2.7a.456.456,0,0,1,0,.912m-5.4,0h-2.7a.456.456,0,1,1,0-.912h2.7a.456.456,0,1,1,0,.912m-5.4,0h-2.7a.456.456,0,1,1,0-.912h2.7a.456.456,0,0,1,0,.912m-5.4,0h-2.7a.456.456,0,0,1,0-.912h2.7a.456.456,0,1,1,0,.912m-5.4,0h-2.7a.456.456,0,1,1,0-.912h2.7a.456.456,0,1,1,0,.912m-5.351-.291a.454.454,0,0,1-.225-.059,2.707,2.707,0,0,1-1.37-2.35v-.331a.456.456,0,0,1,.913,0v.331a1.791,1.791,0,0,0,.907,1.556.456.456,0,0,1-.225.853m39.86-1.163a.456.456,0,0,1-.427-.616,1.78,1.78,0,0,0,.114-.63V382.61a.456.456,0,0,1,.912,0V384.5a2.7,2.7,0,0,1-.172.951.456.456,0,0,1-.427.3m-41-3.822a.456.456,0,0,1-.456-.456v-2.7a.456.456,0,1,1,.913,0v2.7a.456.456,0,0,1-.456.456m41.142-1.562a.456.456,0,0,1-.456-.456v-2.7a.456.456,0,1,1,.912,0v2.7a.456.456,0,0,1-.456.456m-41.142-3.839a.456.456,0,0,1-.456-.456v-2.7a.456.456,0,1,1,.913,0v2.7a.456.456,0,0,1-.456.456m41.142-1.562a.456.456,0,0,1-.456-.456v-2.7a.456.456,0,0,1,.912,0v2.7a.456.456,0,0,1-.456.456m-41.142-3.84a.456.456,0,0,1-.456-.456v-2.7a.456.456,0,0,1,.913,0v2.7a.456.456,0,0,1-.456.456m41.142-1.562a.456.456,0,0,1-.456-.456v-2.7a.456.456,0,0,1,.912,0v2.7a.456.456,0,0,1-.456.456m-41.142-3.84a.456.456,0,0,1-.456-.456v-2.7a.456.456,0,1,1,.913,0v2.7a.456.456,0,0,1-.456.456m41.142-1.562a.456.456,0,0,1-.456-.456V361a.456.456,0,1,1,.912,0v2.7a.456.456,0,0,1-.456.456m-41.142-3.839a.456.456,0,0,1-.456-.456v-2.7a.456.456,0,0,1,.913,0v2.7a.456.456,0,0,1-.456.456m41.142-1.562a.456.456,0,0,1-.456-.456v-2.7a.456.456,0,0,1,.912,0v2.7a.456.456,0,0,1-.456.456m-41.142-3.84a.456.456,0,0,1-.456-.456v-1.885a2.7,2.7,0,0,1,.176-.96.456.456,0,0,1,.853.325,1.774,1.774,0,0,0-.116.636v1.885a.456.456,0,0,1-.456.456m41.142-1.562a.456.456,0,0,1-.456-.456v-.322a1.792,1.792,0,0,0-.913-1.56.456.456,0,1,1,.447-.8,2.705,2.705,0,0,1,1.378,2.355v.322a.456.456,0,0,1-.456.456m-3.8-2.566h-2.7a.456.456,0,1,1,0-.912h2.7a.456.456,0,0,1,0,.912m-5.4,0h-2.7a.456.456,0,0,1,0-.912h2.7a.456.456,0,0,1,0,.912m-5.4,0h-2.7a.456.456,0,1,1,0-.912h2.7a.456.456,0,1,1,0,.912m-5.4,0h-2.7a.456.456,0,1,1,0-.912h2.7a.456.456,0,1,1,0,.912m-5.4,0h-2.7a.456.456,0,0,1,0-.912h2.7a.456.456,0,1,1,0,.912m-5.4,0h-2.7a.456.456,0,1,1,0-.912h2.7a.456.456,0,1,1,0,.912m-5.4,0h-2.692a.46.46,0,0,1-.46-.456.453.453,0,0,1,.452-.456h2.7a.456.456,0,1,1,0,.912" transform="translate(-353.954 -210.216)" fill="#151f2c"/>
        <path id="Path_1370" data-name="Path 1370" d="M1051.761,840.368H1049.3a.4.4,0,1,1,0-.808h2.441a.412.412,0,0,1,.413.4.4.4,0,0,1-.395.4m-4.9,0h-2.441a.4.4,0,0,1,0-.808h2.441a.4.4,0,1,1,0,.808m-4.881,0h-2.441a.4.4,0,0,1,0-.808h2.441a.4.4,0,0,1,0,.808m-4.881,0h-2.441a.4.4,0,1,1,0-.808h2.441a.4.4,0,1,1,0,.808m-4.881,0h-2.441a.4.4,0,1,1,0-.808h2.441a.4.4,0,1,1,0,.808m-4.881,0H1024.9a.4.4,0,1,1,0-.808h2.441a.4.4,0,0,1,0,.808m-4.881,0h-2.441a.4.4,0,0,1,0-.808h2.441a.4.4,0,1,1,0,.808m-4.882,0h-2.441a.4.4,0,0,1,0-.808h2.441a.4.4,0,0,1,0,.808m-4.881,0h-2.441a.4.4,0,0,1,0-.808h2.441a.4.4,0,0,1,0,.808m-4.881,0h-2.357l-.1,0a.4.4,0,0,1-.384-.424.4.4,0,0,1,.424-.384l.063,0h2.357a.4.4,0,1,1,0,.808m45.529-1.546h-.013a.4.4,0,0,1-.391-.417v-2.427a.4.4,0,0,1,.808,0v2.454a.4.4,0,0,1-.4.391m-49.483-.065a.4.4,0,0,1-.4-.4v-2.441a.4.4,0,1,1,.808,0v2.441a.4.4,0,0,1-.4.4m49.484-4.816a.4.4,0,0,1-.4-.4V831.1a.4.4,0,0,1,.808,0v2.441a.4.4,0,0,1-.4.4m-49.484-.066a.4.4,0,0,1-.4-.4V831.03a.4.4,0,1,1,.808,0v2.441a.4.4,0,0,1-.4.4m49.484-4.816a.4.4,0,0,1-.4-.4v-2.441a.4.4,0,0,1,.808,0v2.441a.4.4,0,0,1-.4.4m-49.484-.065a.4.4,0,0,1-.4-.4v-2.38c0-.026,0-.051,0-.077a.4.4,0,0,1,.42-.388.4.4,0,0,1,.387.42v2.424a.4.4,0,0,1-.4.4m47.961-3.976h-2.441a.4.4,0,0,1,0-.808h2.366l.092,0a.4.4,0,0,1-.018.807m-4.881,0h-2.441a.4.4,0,0,1,0-.808h2.441a.4.4,0,0,1,0,.808m-4.881,0h-2.44a.4.4,0,1,1,0-.808h2.44a.4.4,0,1,1,0,.808m-4.881,0h-2.441a.4.4,0,1,1,0-.808h2.441a.4.4,0,0,1,0,.808m-4.882,0h-2.441a.4.4,0,1,1,0-.808h2.441a.4.4,0,1,1,0,.808m-4.881,0h-2.441a.4.4,0,0,1,0-.808h2.441a.4.4,0,0,1,0,.808m-4.881,0h-2.441a.4.4,0,0,1,0-.808h2.441a.4.4,0,0,1,0,.808m-4.881,0h-2.441a.4.4,0,1,1,0-.808h2.441a.4.4,0,0,1,0,.808m-4.881,0h-2.44a.4.4,0,0,1,0-.808h2.44a.4.4,0,1,1,0,.808m-4.882,0h-2.431a.408.408,0,0,1-.408-.4.4.4,0,0,1,.4-.4h2.44a.4.4,0,1,1,0,.808" transform="translate(-602.895 -495.203)" fill="#151f2c"/>
        <path id="Path_1371" data-name="Path 1371" d="M522.958,728.978h-2.436a.4.4,0,1,1,0-.808h2.42a.411.411,0,0,1,.412.4.4.4,0,0,1-.4.4m-4.856,0h-2.419a.4.4,0,1,1,0-.808H518.1a.4.4,0,1,1,0,.808m-4.839,0h-2.419a.4.4,0,1,1,0-.808h2.419a.4.4,0,1,1,0,.808m-4.839,0H506a.4.4,0,1,1,0-.808h2.419a.4.4,0,1,1,0,.808m-4.839,0h-2.419a.4.4,0,1,1,0-.808h2.419a.4.4,0,1,1,0,.808m-4.839,0h-2.42a.4.4,0,1,1,0-.808h2.42a.4.4,0,1,1,0,.808m-4.839,0h-2.419a.4.4,0,1,1,0-.808h2.419a.4.4,0,1,1,0,.808m-4.839,0h-2.419a.4.4,0,1,1,0-.808h2.419a.4.4,0,1,1,0,.808m-4.839,0h-2.42a.4.4,0,1,1,0-.808h2.42a.4.4,0,1,1,0,.808m-4.839,0h-2.42a.4.4,0,1,1,0-.808h2.42a.4.4,0,1,1,0,.808m-4.839,0h-2.42a.4.4,0,1,1,0-.808h2.42a.4.4,0,1,1,0,.808m-4.839,0h-2.419a.4.4,0,1,1,0-.808h2.419a.4.4,0,1,1,0,.808m-4.839,0h-2.419a.4.4,0,1,1,0-.808h2.419a.4.4,0,1,1,0,.808m-4.839,0h-2.42a.4.4,0,1,1,0-.808h2.42a.4.4,0,1,1,0,.808m-4.839,0h-2.42a.4.4,0,1,1,0-.808h2.42a.4.4,0,1,1,0,.808m-4.839,0h-1.932a4.577,4.577,0,0,1-.534-.031.4.4,0,0,1,.1-.8,3.791,3.791,0,0,0,.439.026h1.932a.4.4,0,1,1,0,.808m74.884-.7a.4.4,0,0,1-.226-.74,3.711,3.711,0,0,0,1.365-1.664.4.4,0,0,1,.746.311,4.52,4.52,0,0,1-1.661,2.024.4.4,0,0,1-.225.069M445.751,728a.4.4,0,0,1-.262-.1,4.513,4.513,0,0,1-1.419-2.2.4.4,0,1,1,.777-.222,3.709,3.709,0,0,0,1.166,1.808.4.4,0,0,1-.262.711m81.313-3.937a.4.4,0,0,1-.4-.4v-2.419a.4.4,0,0,1,.808,0v2.419a.4.4,0,0,1-.4.4m-82.764-.471a.4.4,0,0,1-.4-.4v-2.42a.4.4,0,0,1,.808,0v2.42a.4.4,0,0,1-.4.4m82.764-4.367a.4.4,0,0,1-.4-.4V716.4a.4.4,0,0,1,.808,0v2.42a.4.4,0,0,1-.4.4m-82.764-.472a.4.4,0,0,1-.4-.4v-2.419a.4.4,0,1,1,.808,0v2.419a.4.4,0,0,1-.4.4m82.764-4.367a.4.4,0,0,1-.4-.4v-2.419a.4.4,0,0,1,.808,0v2.419a.4.4,0,0,1-.4.4m-82.764-.472a.4.4,0,0,1-.4-.4v-2.419a.4.4,0,1,1,.808,0V713.5a.4.4,0,0,1-.4.4m82.764-4.367a.4.4,0,0,1-.4-.4v-2.42a.4.4,0,0,1,.808,0v2.42a.4.4,0,0,1-.4.4m-82.764-.471a.4.4,0,0,1-.4-.4v-2.42a.4.4,0,1,1,.808,0v2.42a.4.4,0,0,1-.4.4m82.764-4.368a.4.4,0,0,1-.4-.4v-2.42a.4.4,0,0,1,.808,0v2.42a.4.4,0,0,1-.4.4M444.3,704.23a.4.4,0,0,1-.4-.4v-2.419a.4.4,0,1,1,.808,0v2.419a.4.4,0,0,1-.4.4m82.764-4.368a.4.4,0,0,1-.4-.4v-2.42a.4.4,0,0,1,.808,0v2.42a.4.4,0,0,1-.4.4m-82.764-.471a.4.4,0,0,1-.4-.4v-2.419a.4.4,0,1,1,.808,0v2.419a.4.4,0,0,1-.4.4m82.764-4.368a.4.4,0,0,1-.4-.4V692.2a.4.4,0,0,1,.808,0v2.419a.4.4,0,0,1-.4.4m-82.764-.471a.4.4,0,0,1-.4-.4v-2.419a.4.4,0,0,1,.808,0v2.419a.4.4,0,0,1-.4.4m82.764-4.367a.4.4,0,0,1-.4-.4v-2.42a.4.4,0,0,1,.808,0v2.42a.4.4,0,0,1-.4.4m-82.764-.471a.4.4,0,0,1-.4-.4v-2.42a.4.4,0,1,1,.808,0v2.42a.4.4,0,0,1-.4.4m82.764-4.368a.4.4,0,0,1-.4-.4v-2.419a.4.4,0,0,1,.808,0v2.419a.4.4,0,0,1-.4.4m-82.764-.471a.4.4,0,0,1-.4-.4V682.05a.4.4,0,0,1,.808,0v2.419a.4.4,0,0,1-.4.4m82.764-4.368a.4.4,0,0,1-.4-.4v-2.419a.4.4,0,0,1,.808,0V680.1a.4.4,0,0,1-.4.4m-82.764-.472a.4.4,0,0,1-.4-.4V677.21a.4.4,0,0,1,.808,0v2.419a.4.4,0,0,1-.4.4m82.764-4.367a.4.4,0,0,1-.4-.4v-2.419a.4.4,0,0,1,.808,0v2.419a.4.4,0,0,1-.4.4m-82.764-.471a.4.4,0,0,1-.4-.4v-2.42a.4.4,0,0,1,.808,0v2.42a.4.4,0,0,1-.4.4m82.6-4.352a.4.4,0,0,1-.388-.292,3.714,3.714,0,0,0-1.17-1.805.4.4,0,1,1,.522-.616,4.513,4.513,0,0,1,1.424,2.2.4.4,0,0,1-.388.516m-82.286-.444a.4.4,0,0,1-.373-.56,4.522,4.522,0,0,1,1.665-2.021.4.4,0,1,1,.449.672,3.716,3.716,0,0,0-1.368,1.66.4.4,0,0,1-.373.249m78.8-2.507-.047,0a3.81,3.81,0,0,0-.432-.025H521a.4.4,0,0,1,0-.808h1.94a4.615,4.615,0,0,1,.525.03.4.4,0,0,1-.046.806m-4.838-.027h-2.419a.4.4,0,1,1,0-.808h2.419a.4.4,0,0,1,0,.808m-4.839,0h-2.419a.4.4,0,1,1,0-.808h2.419a.4.4,0,1,1,0,.808m-4.839,0h-2.419a.4.4,0,0,1,0-.808H508.9a.4.4,0,1,1,0,.808m-4.839,0h-2.42a.4.4,0,1,1,0-.808h2.42a.4.4,0,0,1,0,.808m-4.839,0h-2.419a.4.4,0,1,1,0-.808h2.419a.4.4,0,0,1,0,.808m-4.839,0h-2.42a.4.4,0,0,1,0-.808h2.42a.4.4,0,0,1,0,.808m-4.839,0h-2.419a.4.4,0,1,1,0-.808h2.419a.4.4,0,0,1,0,.808m-4.839,0h-2.419a.4.4,0,0,1,0-.808h2.419a.4.4,0,1,1,0,.808m-4.839,0h-2.42a.4.4,0,0,1,0-.808h2.42a.4.4,0,0,1,0,.808m-4.839,0H472.61a.4.4,0,1,1,0-.808h2.419a.4.4,0,0,1,0,.808m-4.839,0h-2.42a.4.4,0,0,1,0-.808h2.42a.4.4,0,0,1,0,.808m-4.839,0h-2.419a.4.4,0,1,1,0-.808h2.419a.4.4,0,0,1,0,.808m-4.839,0h-2.419a.4.4,0,0,1,0-.808h2.419a.4.4,0,1,1,0,.808m-4.839,0h-2.42a.4.4,0,0,1,0-.808h2.42a.4.4,0,0,1,0,.808m-4.839,0h-2.411a.408.408,0,0,1-.408-.4.4.4,0,0,1,.4-.4h2.42a.4.4,0,0,1,0,.808" transform="translate(-266.702 -400.782)" fill="#151f2c"/>
        <path id="Path_1372" data-name="Path 1372" d="M547.931,544.4H450.138a3.821,3.821,0,0,1-3.821-3.821V487.109a3.821,3.821,0,0,1,3.821-3.821h97.793a3.821,3.821,0,0,1,3.821,3.821v53.472a3.821,3.821,0,0,1-3.821,3.821" transform="translate(-268.157 -290.371)" fill="#e9e9e9"/>
        <path id="Path_1373" data-name="Path 1373" d="M548.576,526.6v24.245a1.905,1.905,0,0,0,2.952,1.591l18.425-12.122a1.9,1.9,0,0,0,0-3.183l-18.425-12.123a1.9,1.9,0,0,0-2.952,1.591" transform="translate(-329.596 -315.246)" fill="#81007f"/>
        <path id="Path_1374" data-name="Path 1374" d="M460.046,619.729a1.892,1.892,0,1,1,1.893,1.892,1.893,1.893,0,0,1-1.893-1.892" transform="translate(-276.405 -371.211)" fill="#b8c0c7"/>
        <path id="Path_1375" data-name="Path 1375" d="M550.882,622.32H465.3a.51.51,0,0,1,0-1.019h85.586a.51.51,0,0,1,0,1.019" transform="translate(-279.254 -373.292)" fill="#b8c0c7"/>
        <rect id="Rectangle_527" data-name="Rectangle 527" width="54.547" height="81.427" transform="translate(276.762 266.677)" fill="#e9e9e9"/>
        <path id="Path_1376" data-name="Path 1376" d="M773.647,711.47H772.9v-3.356a2.184,2.184,0,0,1,2.182-2.182h9.229a1.438,1.438,0,0,0,1.389-1.071l1.46-5.549a1.436,1.436,0,0,0-1.389-1.8H773.73v-.746h12.042a2.183,2.183,0,0,1,2.111,2.738l-1.459,5.549a2.184,2.184,0,0,1-2.11,1.627h-9.229a1.438,1.438,0,0,0-1.436,1.436Z" transform="translate(-464.375 -418.632)" fill="#384152"/>
        <path id="Path_1377" data-name="Path 1377" d="M768.985,696.11H753.126a2.423,2.423,0,0,1-2.423-2.423v-1.449a2.423,2.423,0,0,1,2.423-2.423h15.859a2.423,2.423,0,0,1,2.423,2.423v1.449a2.423,2.423,0,0,1-2.423,2.423" transform="translate(-451.038 -414.456)" fill="#81007f"/>
        <path id="Path_1378" data-name="Path 1378" d="M770.747,743.6h0a2.052,2.052,0,0,1-2.052-2.052V729.114a2.052,2.052,0,1,1,4.1,0V741.55a2.052,2.052,0,0,1-2.052,2.052" transform="translate(-461.848 -436.835)" fill="#384152"/>
        <path id="Path_1379" data-name="Path 1379" d="M964.957,835.783s1.412,4.348,1.29,5.342a19.354,19.354,0,0,1-1.641,5.262c-.633.87-.946-3.542-1.447-4.206s-.1,1.661-.456,1.876-1.09-1.711-1.406-2.39.774-3.184.777-4.93,2.882-.955,2.882-.955" transform="translate(-577.533 -502.05)" fill="#ee805f"/>
        <path id="Path_1380" data-name="Path 1380" d="M887.347,739.448a6.173,6.173,0,0,1,9.3-5.811c.088.053.175.107.261.162,6.4,4.121,20.215,23.349,21.166,25.275s3.757,17.25,3.757,17.25-3.468,1.269-5.089-.048c0,0-5.624-14.533-6.456-15.26s-22.494-12.881-22.678-17.438c-.049-1.2-.146-2.653-.262-4.132" transform="translate(-533.125 -440.251)" fill="#151f2c"/>
        <path id="Path_1381" data-name="Path 1381" d="M970.141,1029.8s2.581,2.355,2.077,4.029-2.833,2.789-3.148,4.835-1.574,3.162-2.707,3.162h-5.4s-.835-1.439,1.18-1.873,2.774-2.838,2.648-5.07a39.3,39.3,0,0,1,.189-5.207l4.281-.992Z" transform="translate(-577.263 -618.053)" fill="#2a4a7c"/>
        <path id="Path_1382" data-name="Path 1382" d="M882.048,1043.615s.463,5.361-.67,5.918l-14.5-.029s0-1.674,2.33-2.046,6.422-1.736,7.114-4.773,5.729.93,5.729.93" transform="translate(-520.837 -625.781)" fill="#2a4a7c"/>
        <path id="Path_1383" data-name="Path 1383" d="M874.211,855.069s.765,9.4,1.664,20.693c1.222,15.344,2.691,34.193,2.837,37.763.251,6.2,1.259,16.118,1.259,16.118s2.392,2.356,7.177,1.363a160.023,160.023,0,0,0,5.483-29.139c.019-.245.038-.493.057-.74,1.133-15.249,2.9-47.361,2.9-47.361Z" transform="translate(-525.244 -512.962)" fill="#81007f"/>
        <path id="Path_1384" data-name="Path 1384" d="M874.211,855.069s.765,9.4,1.664,20.693l16.756,26.107c.019-.245.038-.493.057-.74,1.133-15.249,2.9-47.361,2.9-47.361Z" transform="translate(-525.244 -512.962)" fill="#5e075e"/>
        <path id="Path_1385" data-name="Path 1385" d="M882.962,850.587s13.788,34.033,22.853,50.027,11.9,20.456,11.9,20.456,5.194-2.045,5.666-3.44c0,0-3.467-30.876-9.539-38.4-3.43-4.253-7.46-17.016-7.649-21.479s-1.227-13.3-1.227-13.3Z" transform="translate(-530.502 -507.364)" fill="#81007f"/>
        <path id="Path_1386" data-name="Path 1386" d="M890.7,715.062s-9.238,4.685-14.648,3.122a12.692,12.692,0,0,1,3.582-2.984c-.207-1.076-.37-2.009-.469-2.8a25.985,25.985,0,0,1-.285-2.867l3.542-2.9,3.359-2.776a13.754,13.754,0,0,0,4.919,11.209" transform="translate(-526.349 -422.891)" fill="#ee805f"/>
        <path id="Path_1387" data-name="Path 1387" d="M892.861,775.187a38.046,38.046,0,0,1-11.393,4.908c-4.874,1.156-10.865.815-12.869,1.12a.831.831,0,0,1-.584-.148c-.158-.081-1.042-6.026-1.928-13.531-.039-.3-.08-.607-.1-.912l-.013-.1c-.345-2.934-.646-6.015-.909-9.1-.214-2.4-.39-4.781-.511-7.014-.154-2.793-.218-5.359-.154-7.47.028-.965.084-1.832.17-2.586a18.394,18.394,0,0,1,4.587-9.847l1.633-1.858a8.954,8.954,0,0,0,5.652-1.442c2-1.313,4.147-2.726,4.554-2.49,3.057,1.673,5.547,6.007,7.325,11.732a65.338,65.338,0,0,1,2.3,10.994c.161,1.229.3,2.489.4,3.744.021.232.038.465.056.693.24,3.432.632,6.648,1.066,9.52.584,3.874,1.249,7.118,1.72,9.4.236,1.163.416,2.063.522,2.707.1.562-1.03,1.367-1.532,1.68" transform="translate(-519.337 -435.408)" fill="#384152"/>
        <path id="Path_1388" data-name="Path 1388" d="M890.156,710.944s-2.273,4.343-6.736,5.634a25.981,25.981,0,0,1-.285-2.867l3.542-2.9Z" transform="translate(-530.606 -427.07)" fill="#de6b4d"/>
        <path id="Path_1389" data-name="Path 1389" d="M876.2,695.922s8.927,1.279,9.653-4.207,2.368-9.017-3.3-10.065-7.055.9-7.75,2.677-.907,11.121,1.4,11.6" transform="translate(-525.319 -409.374)" fill="#ee805f"/>
        <path id="Path_1390" data-name="Path 1390" d="M884.343,675.807c.079-.094.264-.172.678-.2a1.681,1.681,0,0,0-.779-.2,2.086,2.086,0,0,0-1.422-1.818,1.244,1.244,0,0,1,.621.885c-1.173-1.158-3.652-1.967-10.461-1.294-8.973.888-5.9,6.583-4.719,7.245s4.068-1.276,6.239-1.147,2.646,3.253,3.389,3.668.439-.339,1.425-.808,1.114,1.177.847,2.255,1.129,2.465,1.129,2.465l1.352-1.515c1.352-1.515,2.529-7.843,1.875-9.174-.058-.118-.115-.237-.174-.356" transform="translate(-520.785 -404.312)" fill="#151f2c"/>
        <path id="Path_1391" data-name="Path 1391" d="M880.061,770.891s-7.527,5.727-15.5,6.982c-.154-2.793-.217-5.359-.154-7.471Z" transform="translate(-519.336 -462.875)" fill="#151f2c"/>
        <path id="Path_1392" data-name="Path 1392" d="M775.471,745.735c-.119-.127-1.653-5.258-4.307-4.884-1.732.244-4.562,1.246-3.811,3.528.3.9,5.572,3.987,5.572,3.987Z" transform="translate(-460.968 -445.109)" fill="#ee805f"/>
        <path id="Path_1393" data-name="Path 1393" d="M830.691,740.061a6.173,6.173,0,0,1-.646,10.948q-.141.061-.284.118c-7.066,2.835-30.742,2.967-32.862,2.626s-16.241-6.923-16.241-6.923.973-3.562,2.985-4.122c0,0,15.106,3.827,16.179,3.57s23.525-10.884,27.348-8.4c1.011.657,2.248,1.417,3.521,2.179" transform="translate(-469.036 -443.11)" fill="#384152"/>
        <path id="Path_1394" data-name="Path 1394" d="M1274.455,317.613h-18.847a1.44,1.44,0,0,1,0-2.88h18.847a1.44,1.44,0,1,1,0,2.88" transform="translate(-753.53 -189.099)" fill="#ebf3fa"/>
        <path id="Path_1395" data-name="Path 1395" d="M1274.455,331.71h-18.847a1.44,1.44,0,0,1,0-2.88h18.847a1.44,1.44,0,1,1,0,2.88" transform="translate(-753.53 -197.569)" fill="#ebf3fa"/>
        <path id="Path_1396" data-name="Path 1396" d="M1274.455,346.171h-18.847a1.44,1.44,0,0,1,0-2.88h18.847a1.44,1.44,0,1,1,0,2.88" transform="translate(-753.53 -206.258)" fill="#ebf3fa"/>
        <path id="Path_1397" data-name="Path 1397" d="M1049.7,685.175h-44.866a1.91,1.91,0,1,1,0-3.82H1049.7a1.91,1.91,0,1,1,0,3.82" transform="translate(-602.577 -409.374)" fill="#ebf3fa"/>
        <path id="Path_1398" data-name="Path 1398" d="M500.278,356.787H455.411a1.91,1.91,0,1,1,0-3.82h44.866a1.91,1.91,0,0,1,0,3.82" transform="translate(-272.473 -212.071)" fill="#ebf3fa"/>
        <path id="Path_1399" data-name="Path 1399" d="M1049.7,732.639h-44.866a1.91,1.91,0,1,1,0-3.82H1049.7a1.91,1.91,0,1,1,0,3.82" transform="translate(-602.577 -437.891)" fill="#ebf3fa"/>
        <path id="Path_1400" data-name="Path 1400" d="M1036.462,708.908H982.8a1.91,1.91,0,1,1,0-3.82h53.661a1.91,1.91,0,1,1,0,3.82" transform="translate(-589.34 -423.633)" fill="#ebf3fa"/>
        <path id="Path_1401" data-name="Path 1401" d="M497.028,386.871H471.712a1.458,1.458,0,0,1-1.454-1.454v-.911a1.458,1.458,0,0,1,1.454-1.454h25.316a1.459,1.459,0,0,1,1.454,1.454v.911a1.459,1.459,0,0,1-1.454,1.454" transform="translate(-282.541 -230.146)" fill="#ebf3fa"/>
        <path id="Path_1402" data-name="Path 1402" d="M449.255,384.962a1.91,1.91,0,1,1,1.91,1.91,1.91,1.91,0,0,1-1.91-1.91" transform="translate(-269.922 -230.147)" fill="#ebf3fa"/>
        <path id="Path_1403" data-name="Path 1403" d="M501.832,405.912h-30a1.581,1.581,0,0,1-1.576-1.576v-.668a1.581,1.581,0,0,1,1.576-1.576h30a1.581,1.581,0,0,1,1.576,1.576v.668a1.581,1.581,0,0,1-1.576,1.576" transform="translate(-282.54 -241.587)" fill="#ebf3fa"/>
        <path id="Path_1404" data-name="Path 1404" d="M449.255,404a1.91,1.91,0,1,1,1.91,1.91,1.91,1.91,0,0,1-1.91-1.91" transform="translate(-269.922 -241.587)" fill="#ebf3fa"/>
        <path id="Path_1405" data-name="Path 1405" d="M497.028,426.581H471.712a1.458,1.458,0,0,1-1.454-1.454v-.911a1.458,1.458,0,0,1,1.454-1.454h25.316a1.459,1.459,0,0,1,1.454,1.454v.911a1.459,1.459,0,0,1-1.454,1.454" transform="translate(-282.541 -254.005)" fill="#ebf3fa"/>
        <path id="Path_1406" data-name="Path 1406" d="M449.255,424.671a1.91,1.91,0,1,1,1.91,1.91,1.91,1.91,0,0,1-1.91-1.91" transform="translate(-269.922 -254.005)" fill="#ebf3fa"/>
        <path id="Path_1407" data-name="Path 1407" d="M641.147,383.153a6.834,6.834,0,0,1-1.01.063,6.738,6.738,0,0,1-4.631-11.557h0a6.738,6.738,0,1,1,5.64,11.494m-4.865-10.7a5.628,5.628,0,1,0,7.959.092,5.635,5.635,0,0,0-7.959-.092" transform="translate(-380.609 -222.151)" fill="#151f2c"/>
        <rect id="Rectangle_528" data-name="Rectangle 528" width="9.195" height="1.11" transform="translate(248.22 164.677) rotate(-44.329)" fill="#151f2c"/>
        <path id="Path_1408" data-name="Path 1408" d="M616.646,410.9h0a.991.991,0,0,1,.016-1.4l3.873-3.785a.991.991,0,1,1,1.385,1.417l-3.874,3.785a.991.991,0,0,1-1.4-.016" transform="translate(-370.325 -243.595)" fill="#151f2c"/>
        <path id="Path_1409" data-name="Path 1409" d="M1358.559,820.462h0a2.212,2.212,0,0,1-2.014-1.387l-51.77-157.627a1.038,1.038,0,0,1,1.1-1.406,2.213,2.213,0,0,1,2.015,1.388l51.77,157.627a1.038,1.038,0,0,1-1.1,1.405" transform="translate(-783.896 -396.568)" fill="#151f2c"/>
        <path id="Path_1410" data-name="Path 1410" d="M1463.082,819.857h0a2.213,2.213,0,0,1-2.014-1.388L1409.3,660.842a1.039,1.039,0,0,1,1.1-1.405,2.212,2.212,0,0,1,2.014,1.387l51.771,157.627a1.038,1.038,0,0,1-1.1,1.405" transform="translate(-846.695 -396.205)" fill="#151f2c"/>
        <path id="Path_1411" data-name="Path 1411" d="M1365.575,714.013l-41.9.243a2.1,2.1,0,0,1-1.9-1.31.982.982,0,0,1,1.036-1.327l41.9-.242a2.1,2.1,0,0,1,1.9,1.31.982.982,0,0,1-1.035,1.327" transform="translate(-794.113 -427.411)" fill="#151f2c"/>
        <path id="Path_1412" data-name="Path 1412" d="M1388.219,782.957l-41.9.242a2.1,2.1,0,0,1-1.9-1.31.982.982,0,0,1,1.036-1.327l41.9-.243a2.1,2.1,0,0,1,1.9,1.31.983.983,0,0,1-1.036,1.327" transform="translate(-807.718 -468.834)" fill="#151f2c"/>
        <path id="Path_1413" data-name="Path 1413" d="M1410.028,849.36l-41.9.243a2.1,2.1,0,0,1-1.9-1.31.982.982,0,0,1,1.036-1.327l41.9-.242a2.1,2.1,0,0,1,1.9,1.31.982.982,0,0,1-1.036,1.327" transform="translate(-820.821 -508.73)" fill="#151f2c"/>
        <path id="Path_1414" data-name="Path 1414" d="M1434.579,924.114l-41.9.243a2.1,2.1,0,0,1-1.9-1.31.982.982,0,0,1,1.035-1.327l41.9-.242a2.1,2.1,0,0,1,1.9,1.31.982.982,0,0,1-1.036,1.327" transform="translate(-835.572 -553.644)" fill="#151f2c"/>
        <path id="Path_1415" data-name="Path 1415" d="M1460.276,1002.356l-41.9.243a2.1,2.1,0,0,1-1.9-1.31.983.983,0,0,1,1.036-1.327l41.9-.242a2.1,2.1,0,0,1,1.9,1.31.983.983,0,0,1-1.036,1.327" transform="translate(-851.011 -600.653)" fill="#151f2c"/>
        <path id="Path_1416" data-name="Path 1416" d="M1298.249,475.68h0a.61.61,0,0,1-.713-.481l-.671-3.464a.608.608,0,0,1,1.194-.231l.67,3.464a.609.609,0,0,1-.481.713" transform="translate(-779.177 -282.995)" fill="#151f2c"/>
        <rect id="Rectangle_529" data-name="Rectangle 529" width="0.418" height="5.099" transform="translate(516.834 182.226) rotate(-10.955)" fill="#151f2c"/>
        <path id="Path_1417" data-name="Path 1417" d="M1287.458,375.539s-.4-3.448-1.232-4.766-3.994-2.164-4.194-1.971c-.618.6,1.827,2.716,1.922,3.5s-1.241.241-.6,1.762a11.888,11.888,0,0,0,2.329,2.952Z" transform="translate(-770.212 -221.569)" fill="#ee805f"/>
        <path id="Path_1418" data-name="Path 1418" d="M1290.093,383.424c1.152-.9,1.4-.887,1.4-.887s10.654,9.229,11.691,10.051,17.038,5.462,17.038,5.462l2.542,13.008s-21.651-10.458-24.238-12.592c-4.276-3.527-9.67-13.4-9.67-13.4a4.081,4.081,0,0,1,1.24-1.647" transform="translate(-774.37 -229.837)" fill="#5e075e"/>
        <path id="Path_1419" data-name="Path 1419" d="M1348.854,695.109s-.184,4.446-1.037,5.527l-11.876.068a1.857,1.857,0,0,1,1.775-1.805,7.967,7.967,0,0,0,5.768-4.552c1.323-2.885,5.37.762,5.37.762" transform="translate(-802.661 -416.512)" fill="#151f2c"/>
        <path id="Path_1420" data-name="Path 1420" d="M1405.637,693.6s.828,5.906-.3,6.009c-.15.014-4.786.089-6.793.122-2.361.039-6.24-.044-6.24-.044a.617.617,0,0,1-.559-.929,2.489,2.489,0,0,1,1.784-1.145c2.068-.4,5.515-1.917,6.723-4.681,1.271-2.908,5.382.667,5.382.667" transform="translate(-836.139 -415.648)" fill="#151f2c"/>
        <path id="Path_1421" data-name="Path 1421" d="M1352.82,527.666s3.3,11.555,12.766,31.62,9.873,29.735,9.873,29.735a8.317,8.317,0,0,0,3.333.3,8.965,8.965,0,0,0,3.507-1.137s-.613-23.883-5.083-34.008-5.381-37.835-5.381-37.835Z" transform="translate(-812.803 -310.232)" fill="#151f2c"/>
        <path id="Path_1422" data-name="Path 1422" d="M1339.531,519.8a288.135,288.135,0,0,0,2.832,39.86c3.1,21.968,1.648,32.185,1.648,32.185s.82.6,3.344.588a7.5,7.5,0,0,0,4.468-1.233s4.43-21.976,3.16-32.971,6.068-37.73,6.068-37.73Z" transform="translate(-804.815 -312.308)" fill="#384152"/>
        <path id="Path_1423" data-name="Path 1423" d="M1363.318,401.6l-3.5,2.59-5.054-1.064c.07-.461.4-2.371.707-4.1.019-.1.037-.2.054-.3.26-1.472.485-2.737.485-2.737l4.72-2.353,1.76-.877c0,.031-.137,1.634-.155,1.868a15.111,15.111,0,0,0,.979,6.978" transform="translate(-813.973 -235.975)" fill="#ee805f"/>
        <path id="Path_1424" data-name="Path 1424" d="M1363.2,456.731c-1.143,5.229-25.614,2.934-25.3-.258.012-.107.076-1.584.164-3.575.185-4.308.468-11.039.5-11.565,0-.009,0-.018,0-.027.441-4.445.863-8.793.891-11.632a40.327,40.327,0,0,1,.815-7.266c.416-2.11.927-4.025,1.371-5.518a6.1,6.1,0,0,1,3.576-3.919,5.265,5.265,0,0,1,.593-.207c2.879-.836,6.865-1.87,7.945-1.554,2.924.86,5.1,6.011,6.637,12.575,2.879,12.286,3.545,29.54,2.8,32.948" transform="translate(-803.841 -247.029)" fill="#81007f"/>
        <path id="Path_1425" data-name="Path 1425" d="M1363.049,396.013c-1.037,1.983-4.9,3.7-6.51,4.329.019-.1.037-.2.054-.3.26-1.473.485-2.737.485-2.737l4.72-2.353c1.043-.016,1.679.247,1.251,1.064" transform="translate(-815.037 -237.294)" fill="#de6b4d"/>
        <path id="Path_1426" data-name="Path 1426" d="M1350.541,379.056s8.516,2.656,10.089-2.672,3.731-8.575-1.64-10.5-7.032-.2-7.99,1.449-2.634,10.89-.459,11.719" transform="translate(-810.794 -219.325)" fill="#ee805f"/>
        <path id="Path_1427" data-name="Path 1427" d="M1352.927,362.445s.543,6.2,1.825,5.931,2.446-.469,2.258,1.4-1.966,4.028,1.986,4.358,9.633-9.861,8.548-11.791c-3.133-5.568-19.145-6.691-14.617.1" transform="translate(-812.386 -214.946)" fill="#151f2c"/>
        <path id="Path_1428" data-name="Path 1428" d="M1338.323,485.273c.186-4.308.468-11.039.5-11.565,0-.009,0-.018,0-.027l14.457-8.644s.559,20.179-14.964,20.236" transform="translate(-804.093 -279.405)" fill="#5e075e"/>
        <path id="Path_1429" data-name="Path 1429" d="M1298.709,466.763a38.222,38.222,0,0,0-3.5-2.161,7.346,7.346,0,0,0-2.469-.217c-.085.144-.335.584-.015.734s.716.1.6.2-1.32-.467-1.6.145-.521,2.71.888,3.347,4.888.061,5.138.135c2.127.618.953-2.184.953-2.184" transform="translate(-775.97 -278.983)" fill="#ee805f"/>
        <path id="Path_1430" data-name="Path 1430" d="M1308.075,442.119s14.34,2.438,15.61,1.819c2.028-.988-.787-15.536-.787-15.536a4.184,4.184,0,0,1,3.73-4.075c3.347-.676,6.576,1.831,6.576,1.831s2.937,2.628,2.562,5.543c-.832,6.461-2.126,19.6-6.447,21.616-5.574,2.6-21.7-7.2-21.7-7.2a2.821,2.821,0,0,1-.461-1.879,4.382,4.382,0,0,1,.918-2.114" transform="translate(-785.363 -254.876)" fill="#81007f"/>
        <path id="Path_1431" data-name="Path 1431" d="M1283.677,377.964s-.918-1.824-1.064-2.167.21-.269.564-.077.835,1.25,1.379,1.122c.433-.1-.879,1.122-.879,1.122" transform="translate(-770.6 -225.645)" fill="#ee805f"/>
      </g>
    </g>
  </g>
</svg>
