<svg id="planning" xmlns="http://www.w3.org/2000/svg" width="85.339" height="85.262" viewBox="0 0 85.339 85.262">
  <path id="Path_370" data-name="Path 370" d="M21.73,78.658V22.871a10.074,10.074,0,0,1,9-8.291c1.553-.133,2.2.363,2.2,1.907v10.4c0,1.262,0,1.265,1.233,1.265q18.186,0,36.37.017a2.461,2.461,0,0,0,1.9-.792c4.867-4.9,9.768-9.771,14.634-14.672a5.6,5.6,0,0,1,3.265-1.828h.334a5.421,5.421,0,0,1,3.265,1.828c.949,1.01,1.965,1.959,2.934,2.951,1.933,1.979,1.924,4.176-.032,6.155C95,23.669,93.144,25.5,91.318,27.357c-.2.2-.514.342-.508.705a1.793,1.793,0,0,0,.911.09h7.255c1.86,0,2.252.395,2.252,2.24V53.538a1.873,1.873,0,0,0,.09.975c.325-.029.456-.29.644-.488.932-.914,1.843-1.846,2.78-2.754a1.282,1.282,0,0,1,1.521-.334,1.335,1.335,0,0,1,.8,1.341V93.414c0,2.53-.2,2.728-2.745,2.728H63.6c-.717-.035-1.41-.142-1.7-.934s.157-1.262.647-1.741c1.907-1.9,3.813-3.8,5.7-5.717.252-.255.8-.464.621-.871-.136-.308-.662-.128-1.01-.128q-18.482-.017-36.968,0a8.656,8.656,0,0,1-4.44-1.257A9.865,9.865,0,0,1,21.73,78.658ZM68.576,31.031c-.25-.206-.54-.122-.8-.122H34.136c-1.19,0-1.2,0-1.2,1.222v21.9a5.183,5.183,0,0,1-.1,1.239,1.2,1.2,0,0,1-1.262,1,1.233,1.233,0,0,1-1.268-.99,5.139,5.139,0,0,1-.113-1.489V18.062c0-.438-.194-.6-.633-.488a6,6,0,0,0-1.817.8A7.61,7.61,0,0,0,24.3,25.268V69.728c0,.267-.139.65.116.778.319.157.517-.235.731-.418a9.681,9.681,0,0,1,3.793-2.005c1.245-.334,1.245-.331,1.248-1.593V60.912A6.864,6.864,0,0,1,30.233,60a1.415,1.415,0,0,1,1.338-1.347,1.358,1.358,0,0,1,1.341,1.422q.046,4.454,0,8.906c0,.871-.557,1.32-1.451,1.41a13.269,13.269,0,0,0-1.4.186A6.808,6.808,0,0,0,31.62,84.084q19.771.023,39.548.015a1.616,1.616,0,0,0,1.251-.519c1.323-1.346,2.664-2.673,4-4a6.965,6.965,0,0,1,.54-.517,1.284,1.284,0,0,1,1.872,0,1.329,1.329,0,0,1,0,1.883,7.968,7.968,0,0,1-.63.662q-5.514,5.514-11.007,11.013c-.206.209-.493.363-.551.705.29.2.6.1.888.1h36.135c.528.029.755-.218.752-.746V88.434c0-.528-.235-.752-.755-.757a7.131,7.131,0,0,1-1.741-.1,1.312,1.312,0,0,1,.061-2.583,3.927,3.927,0,0,1,.827-.049c1.721,0,1.611.116,1.6-1.642,0-2.165.186-1.907-1.828-1.921h-.331a1.389,1.389,0,0,1-1.4-1.288,1.339,1.339,0,0,1,1.283-1.381,7.377,7.377,0,0,1,1.41-.055c.656.029.9-.264.871-.9s-.026-1.222,0-1.831-.2-.871-.821-.847c-.415.023-.833,0-1.248,0-.926-.035-1.5-.554-1.489-1.332s.557-1.251,1.451-1.288c.441-.02.888-.023,1.332,0,.58.02.8-.244.781-.8a16,16,0,0,1,0-1.741c.055-.746-.223-1.085-1-1.033a4.785,4.785,0,0,1-1.492-.093,1.315,1.315,0,0,1,.107-2.594,5.633,5.633,0,0,1,1.326-.032c.8.078,1.071-.238,1.059-1.045-.038-2.9,0-5.827-.02-8.741,0-.232.1-.5-.136-.7a2.191,2.191,0,0,0-.755.644L83.152,76.681a5.056,5.056,0,0,1-.871.76,1.213,1.213,0,0,1-1.6-.171,1.245,1.245,0,0,1-.157-1.674,5.9,5.9,0,0,1,.778-.871q8.242-8.244,16.489-16.48a2,2,0,0,0,.694-1.518Q98.457,44.365,98.469,32c0-1-.064-1.059-1.114-1.062-2.829,0-5.662.023-8.491,0a2.414,2.414,0,0,0-1.9.789q-12.1,12.1-24.237,24.225a5.224,5.224,0,0,1-2.084,1.3c-1.962.659-3.906,1.37-5.856,2.057l.023.133H77.842a7.62,7.62,0,0,1,1,.023,1.238,1.238,0,0,1,1.21,1.251,1.2,1.2,0,0,1-1.106,1.332,10.919,10.919,0,0,1-1.66.1H45.479a11.317,11.317,0,0,1-1.329-.058c-.905-.107-1.37-.6-1.341-1.381s.551-1.239,1.451-1.259c.972-.023,1.947-.052,2.9,0a1.152,1.152,0,0,0,1.323-.934c1.181-3.436,2.417-6.854,3.616-10.284a3.749,3.749,0,0,1,.905-1.468c1.7-1.677,3.378-3.372,5.07-5.055a3.371,3.371,0,0,1,.636-.534,1.236,1.236,0,0,1,1.692.209,1.213,1.213,0,0,1,.136,1.6,4.834,4.834,0,0,1-.647.754c-1.233,1.242-2.455,2.493-3.717,3.7-.5.482-.58.815-.032,1.344,1.451,1.4,2.9,2.835,4.3,4.295.5.522.824.531,1.346,0Q74,40.834,86.263,28.617c.5-.5.453-.818-.023-1.28-1.4-1.352-2.754-2.739-4.129-4.112-.844-.844-.847-.844-1.677-.017l-15.6,15.6a9.165,9.165,0,0,1-.871.786,1.239,1.239,0,0,1-1.741-.064,1.268,1.268,0,0,1-.09-1.8,6.737,6.737,0,0,1,.673-.737c1.741-1.741,3.482-3.482,5.223-5.244C68.254,31.536,68.55,31.382,68.576,31.031ZM90.413,13.64a2.212,2.212,0,0,0-.548.232,18.8,18.8,0,0,0-2.261,2.2c-.319.34-.052.609.189.853,1.526,1.529,3.059,3.05,4.579,4.588.334.337.6.418.961.026.543-.58,1.14-1.132,1.689-1.718.763-.81.775-1.37,0-2.156-1.138-1.161-2.307-2.322-3.462-3.482a1.721,1.721,0,0,0-1.146-.54Zm-5.052,4.869a.711.711,0,0,0-.493.29c-.34.328-.647.691-1.01.99-.557.456-.58.824-.023,1.338C85,22.209,86.08,23.353,87.2,24.473c1.657,1.657,1.648,1.648,3.273-.052.334-.351.4-.58.029-.958-1.564-1.535-3.105-3.1-4.658-4.643A.792.792,0,0,0,85.361,18.509ZM53.1,53.623c-.073.636,1.921,2.612,2.487,2.53a.787.787,0,0,0,.16-.035l2.345-.824c.322-.116.493-.261.174-.58q-1.88-1.872-3.752-3.746c-.194-.194-.38-.252-.5.061-.331.873-.638,1.761-.929,2.583Z" transform="translate(-21.73 -10.88)" fill="#fff"/>
  <path id="Path_371" data-name="Path 371" d="M236.487,234.013h-6.41a1.5,1.5,0,0,1-1.587-.818,1.451,1.451,0,0,1,.5-1.709q6.6-6.6,13.183-13.192a1.489,1.489,0,0,1,1.721-.482,1.417,1.417,0,0,1,.833,1.5V232.3c0,1.225-.5,1.7-1.741,1.706C240.817,234.019,238.652,234.013,236.487,234.013ZM242,222.623l-.223-.093q-4.15,4.135-8.291,8.273c-.1.093-.229.2-.16.345s.29.148.444.148h7.4c.682,0,.821-.389.818-.969v-5.8Z" transform="translate(-168.404 -157.68)" fill="#fff"/>
</svg>
