<svg xmlns="http://www.w3.org/2000/svg" width="56.926" height="56.948" viewBox="0 0 56.926 56.948">
  <g id="seo-01" transform="translate(0)">
    <path id="Path_139" data-name="Path 139" d="M163.68,48.94a31.359,31.359,0,0,1-.92,4.673,24.37,24.37,0,0,1-12.239,14.894,23.448,23.448,0,0,1-11.482,2.759,23.777,23.777,0,0,1-13.47-4.183c-.445-.3-.7-.312-1.053.1-.49.564-1.038,1.053-1.558,1.572a.483.483,0,0,0-.163.623.91.91,0,0,1-.282,1.009c-.935.949-1.869,1.9-2.833,2.819a.922.922,0,0,1-1.38.059c-.371-.4-.326-.875.163-1.365.638-.653,1.276-1.291,1.929-1.929.252-.237.237-.4,0-.623-1.261-1.246-2.522-2.507-3.768-3.768-.223-.223-.371-.223-.593,0-2.21,2.225-4.465,4.436-6.661,6.691a3.019,3.019,0,0,0,.074,4.213,3.062,3.062,0,0,0,4.258.148c.727-.682,1.424-1.409,2.136-2.107a.9.9,0,0,1,1.2-.237.834.834,0,0,1,.252,1.291c-1.38,1.424-2.581,3.086-4.673,3.59h-1.884A4.9,4.9,0,0,1,107.085,76a4.561,4.561,0,0,1,.9-4.821c1.454-1.587,3-3.071,4.51-4.584l2.982-2.982a1.024,1.024,0,0,1,1.231-.356c.193.089.312,0,.43-.134.608-.623,1.216-1.246,1.854-1.84.3-.267.148-.475-.015-.712a23.834,23.834,0,0,1-3.887-9.6,24.247,24.247,0,0,1,3.575-17.52c.386-.623.875-.771,1.335-.49.49.3.564.831.163,1.454a21.563,21.563,0,0,0-3.382,8.96,22.268,22.268,0,0,0,6.3,19.315A21.91,21.91,0,0,0,135.805,69.2a22.718,22.718,0,0,0,7.922-44.727,22.317,22.317,0,0,0-20.858,6.5c-.178.178-.356.371-.534.564-.475.475-.949.519-1.365.134-.386-.371-.371-.875.089-1.38a25.911,25.911,0,0,1,2.863-2.7A23.613,23.613,0,0,1,136.295,22.4a24.571,24.571,0,0,1,27.178,20.561c.089.549.148,1.1.223,1.647C163.68,46.062,163.68,47.5,163.68,48.94Zm-43.392,13.6a1.143,1.143,0,0,0-.193.134c-.579.579-1.142,1.157-1.736,1.721-.223.223-.074.356.074.5l2.626,2.626c.208.223.371.237.593.015q.8-.846,1.647-1.647c.223-.208.193-.356-.03-.534a24.38,24.38,0,0,1-2.626-2.626A.394.394,0,0,0,120.288,62.544Z" transform="translate(-106.769 -22.226)" fill="purple"/>
    <path id="Path_140" data-name="Path 140" d="M194.113,73.953a17.943,17.943,0,0,0,15.325,17.906,17.693,17.693,0,0,0,7-.326c.148-.03.282-.074.43-.1a.89.89,0,0,1,1.113.653.906.906,0,0,1-.668,1.068,14.167,14.167,0,0,1-2.819.564,19.38,19.38,0,0,1-13.233-3.1,18.977,18.977,0,0,1-8.738-13.693,19.206,19.206,0,0,1,6.142-17.387,18.578,18.578,0,0,1,10.874-5.074,19.27,19.27,0,0,1,16.942,6.068,18.824,18.824,0,0,1,5.192,11.052,19.734,19.734,0,0,1-10.7,20.131,2.6,2.6,0,0,1-.356.163.883.883,0,0,1-1.187-.415.894.894,0,0,1,.415-1.187c.49-.282,1.024-.519,1.513-.831a17.557,17.557,0,0,0,8.56-13.693,17.337,17.337,0,0,0-5.133-14.4,17.135,17.135,0,0,0-11.067-5.192,17.533,17.533,0,0,0-14.746,5.533,17.321,17.321,0,0,0-4.792,10.221C194.128,72.647,194.143,73.359,194.113,73.953Z" transform="translate(-179.615 -49.538)" fill="purple"/>
    <path id="Path_141" data-name="Path 141" d="M354.14,155.422a5.509,5.509,0,0,1-5.593,5.533,5.578,5.578,0,1,1,5.593-5.533Zm-5.548,3.724a3.761,3.761,0,1,0-3.8-3.753A3.786,3.786,0,0,0,348.591,159.146Z" transform="translate(-307.954 -130.874)" fill="purple"/>
    <path id="Path_142" data-name="Path 142" d="M241.783,160.787a5.254,5.254,0,0,1-3.59-1.513.929.929,0,0,1-.148-1.365c.386-.4.86-.386,1.365.074a3.574,3.574,0,0,0,2.908.964,1.8,1.8,0,0,0,1.2-.623,1.071,1.071,0,0,0-.015-1.543,2.826,2.826,0,0,0-1.083-.668c-.8-.326-1.6-.653-2.418-.979a2.583,2.583,0,0,1-1.691-2.285,2.677,2.677,0,0,1,1.157-2.507,4.173,4.173,0,0,1,4.272-.3,5,5,0,0,1,1.157.668.886.886,0,1,1-1.009,1.454,3.586,3.586,0,0,0-2.329-.742,1.692,1.692,0,0,0-1.157.475.908.908,0,0,0,.267,1.543c.816.356,1.632.682,2.463,1.009a4.35,4.35,0,0,1,1.854,1.276,2.779,2.779,0,0,1-.059,3.664A3.779,3.779,0,0,1,241.783,160.787Z" transform="translate(-218.369 -130.706)" fill="purple"/>
    <path id="Path_143" data-name="Path 143" d="M300,155.919v-4.391c0-.846.282-1.127,1.127-1.127h3.5c.653,0,1.068.356,1.053.875s-.415.86-1.068.875q-1.135.022-2.27,0c-.386-.015-.534.134-.534.519q.022.912,0,1.825c-.015.4.193.5.549.5.682-.015,1.365-.03,2.047.015a.9.9,0,0,1,.846,1.35.941.941,0,0,1-.89.46c-.668,0-1.335.015-2,0-.4-.015-.579.119-.564.534q.022.89,0,1.78c-.015.371.134.534.519.534q1.113-.022,2.225,0c.7.015,1.127.356,1.142.89s-.445.92-1.157.935c-1.142.015-2.3.015-3.442,0-.757-.015-1.083-.341-1.083-1.1Z" transform="translate(-271.334 -131.385)" fill="purple"/>
  </g>
</svg>
