<svg xmlns="http://www.w3.org/2000/svg" width="92.491" height="14.66" viewBox="0 0 92.491 14.66">
  <g id="Group_210" data-name="Group 210" transform="translate(0)">
    <path id="star-01" d="M12.43,26.72l3.23-.209c.689-.044,1.378-.09,2.068-.127a.319.319,0,0,0,.329-.229c.629-1.6,1.269-3.2,1.905-4.8.014-.037.028-.075.045-.11s.017-.089.067-.087.052.056.067.09q.347.866.691,1.732c.425,1.067.853,2.133,1.272,3.2a.273.273,0,0,0,.275.2q1.257.075,2.514.155,1.346.087,2.692.178c.038,0,.091-.01.106.035s-.041.073-.072.1l-2.7,2.288c-.443.376-.885.755-1.332,1.127a.207.207,0,0,0-.077.244q.656,2.557,1.3,5.114c.015.062.03.124.046.194-.081.014-.123-.034-.17-.067q-2.234-1.409-4.464-2.826a.254.254,0,0,0-.32.007q-2.221,1.413-4.452,2.816c-.044.028-.095.088-.143.052s0-.1.009-.153q.643-2.545,1.3-5.094a.269.269,0,0,0-.1-.316q-2-1.682-3.983-3.378c-.034-.028-.073-.052-.109-.077Z" transform="translate(-12.43 -21.16)" fill="#ffc504"/>
    <path id="star-01-2" data-name="star-01" d="M12.43,26.72l3.23-.209c.689-.044,1.378-.09,2.068-.127a.319.319,0,0,0,.329-.229c.629-1.6,1.269-3.2,1.905-4.8.014-.037.028-.075.045-.11s.017-.089.067-.087.052.056.067.09q.347.866.691,1.732c.425,1.067.853,2.133,1.272,3.2a.273.273,0,0,0,.275.2q1.257.075,2.514.155,1.346.087,2.692.178c.038,0,.091-.01.106.035s-.041.073-.072.1l-2.7,2.288c-.443.376-.885.755-1.332,1.127a.207.207,0,0,0-.077.244q.656,2.557,1.3,5.114c.015.062.03.124.046.194-.081.014-.123-.034-.17-.067q-2.234-1.409-4.464-2.826a.254.254,0,0,0-.32.007q-2.221,1.413-4.452,2.816c-.044.028-.095.088-.143.052s0-.1.009-.153q.643-2.545,1.3-5.094a.269.269,0,0,0-.1-.316q-2-1.682-3.983-3.378c-.034-.028-.073-.052-.109-.077Z" transform="translate(6.877 -21.16)" fill="#ffc504"/>
    <path id="star-01-3" data-name="star-01" d="M12.43,26.72l3.23-.209c.689-.044,1.378-.09,2.068-.127a.319.319,0,0,0,.329-.229c.629-1.6,1.269-3.2,1.905-4.8.014-.037.028-.075.045-.11s.017-.089.067-.087.052.056.067.09q.347.866.691,1.732c.425,1.067.853,2.133,1.272,3.2a.273.273,0,0,0,.275.2q1.257.075,2.514.155,1.346.087,2.692.178c.038,0,.091-.01.106.035s-.041.073-.072.1l-2.7,2.288c-.443.376-.885.755-1.332,1.127a.207.207,0,0,0-.077.244q.656,2.557,1.3,5.114c.015.062.03.124.046.194-.081.014-.123-.034-.17-.067q-2.234-1.409-4.464-2.826a.254.254,0,0,0-.32.007q-2.221,1.413-4.452,2.816c-.044.028-.095.088-.143.052s0-.1.009-.153q.643-2.545,1.3-5.094a.269.269,0,0,0-.1-.316q-2-1.682-3.983-3.378c-.034-.028-.073-.052-.109-.077Z" transform="translate(26.184 -21.16)" fill="#ffc504"/>
    <path id="star-01-4" data-name="star-01" d="M12.43,26.72l3.23-.209c.689-.044,1.378-.09,2.068-.127a.319.319,0,0,0,.329-.229c.629-1.6,1.269-3.2,1.905-4.8.014-.037.028-.075.045-.11s.017-.089.067-.087.052.056.067.09q.347.866.691,1.732c.425,1.067.853,2.133,1.272,3.2a.273.273,0,0,0,.275.2q1.257.075,2.514.155,1.346.087,2.692.178c.038,0,.091-.01.106.035s-.041.073-.072.1l-2.7,2.288c-.443.376-.885.755-1.332,1.127a.207.207,0,0,0-.077.244q.656,2.557,1.3,5.114c.015.062.03.124.046.194-.081.014-.123-.034-.17-.067q-2.234-1.409-4.464-2.826a.254.254,0,0,0-.32.007q-2.221,1.413-4.452,2.816c-.044.028-.095.088-.143.052s0-.1.009-.153q.643-2.545,1.3-5.094a.269.269,0,0,0-.1-.316q-2-1.682-3.983-3.378c-.034-.028-.073-.052-.109-.077Z" transform="translate(45.49 -21.16)" fill="#ffc504"/>
    <path id="star-01-5" data-name="star-01" d="M12.43,26.72l3.23-.209c.689-.044,1.378-.09,2.068-.127a.319.319,0,0,0,.329-.229c.629-1.6,1.269-3.2,1.905-4.8.014-.037.028-.075.045-.11s.017-.089.067-.087.052.056.067.09q.347.866.691,1.732c.425,1.067.853,2.133,1.272,3.2a.273.273,0,0,0,.275.2q1.257.075,2.514.155,1.346.087,2.692.178c.038,0,.091-.01.106.035s-.041.073-.072.1l-2.7,2.288c-.443.376-.885.755-1.332,1.127a.207.207,0,0,0-.077.244q.656,2.557,1.3,5.114c.015.062.03.124.046.194-.081.014-.123-.034-.17-.067q-2.234-1.409-4.464-2.826a.254.254,0,0,0-.32.007q-2.221,1.413-4.452,2.816c-.044.028-.095.088-.143.052s0-.1.009-.153q.643-2.545,1.3-5.094a.269.269,0,0,0-.1-.316q-2-1.682-3.983-3.378c-.034-.028-.073-.052-.109-.077Z" transform="translate(64.797 -21.16)" fill="#ffc504"/>
  </g>
</svg>
