<svg xmlns="http://www.w3.org/2000/svg" width="57.297" height="57.322" viewBox="0 0 57.297 57.322">
  <g id="user_experience-01" data-name="user experience-01" transform="translate(0)">
    <path id="Path_136" data-name="Path 136" d="M106.615,26.188a3.865,3.865,0,0,1,1.374-1.912,3.2,3.2,0,0,1,1.837-.582c.747.015,1.493,0,2.24,0,.612.015.941.314.956.851s-.329.881-.971.9-1.269,0-1.9,0a1.657,1.657,0,0,0-1.807,1.807c-.015.553.015,1.12,0,1.673-.015.343.119.478.463.463a2.412,2.412,0,0,1,.329,0h27.942c.836,0,.836,0,.836-.821V27.114a1.522,1.522,0,0,0-1.464-1.658,5.876,5.876,0,0,0-.732-.03H117.338a4.142,4.142,0,0,1-.612-.015.786.786,0,0,1-.717-.851.8.8,0,0,1,.7-.866,2.843,2.843,0,0,1,.508-.015h19a3.312,3.312,0,0,1,3.525,3.539V48.231c.239.045.269-.134.358-.224a3.741,3.741,0,0,1,3.45-1.165c.433.075.642.015.836-.433a3.759,3.759,0,0,1,4.032-2.151c.448.075.672.015.881-.448a3.541,3.541,0,0,1,3.181-2.106A3.444,3.444,0,0,1,156,43.511c2.315,4.316,4.749,8.572,6.033,13.351a41.518,41.518,0,0,0,1.479,4.555,5.422,5.422,0,0,1-2.434,6.735.9.9,0,0,1-1,.03.936.936,0,0,1-.4-.926.908.908,0,0,1,.538-.672,3.686,3.686,0,0,0,1.867-2.957,2.84,2.84,0,0,0-.224-1.583,24.809,24.809,0,0,1-1.553-4.7,49.586,49.586,0,0,0-4.5-10.379c-.448-.836-.881-1.688-1.344-2.509a1.783,1.783,0,0,0-1.912-.971,2.006,2.006,0,0,0-1.777,1.478,1.228,1.228,0,0,0,.09.971c.478.911.971,1.807,1.419,2.733a.85.85,0,0,1-.582,1.3.8.8,0,0,1-1-.493c-.448-.836-.881-1.688-1.329-2.524a1.627,1.627,0,0,0-2.076-.821,1.976,1.976,0,0,0-1.478,1.941,2.044,2.044,0,0,0,.224.568c.433.821.866,1.643,1.3,2.479.314.612.194,1.105-.329,1.374s-.941.075-1.269-.538c-.418-.777-.821-1.553-1.225-2.33a1.638,1.638,0,0,0-1.867-.986,2.051,2.051,0,0,0-1.7,1.628,2.114,2.114,0,0,0,.239,1.344c.4.717.777,1.449,1.135,2.18.3.582.179,1.03-.3,1.284-.508.284-.971.119-1.284-.478-1.523-2.9-3.047-5.809-4.57-8.707-.806-1.538-1.613-3.062-2.419-4.6-.627-1.195-1.523-1.568-2.539-1.075a2.155,2.155,0,0,0-1.016,2.942c1.06,2.091,2.165,4.167,3.256,6.243,1.568,2.987,3.121,5.974,4.689,8.961a.932.932,0,0,1-1.3,1.314c-1.374-.732-2.778-1.449-4.152-2.2a1.888,1.888,0,0,0-2.151,0,2.173,2.173,0,0,0-.881,2.165,1.86,1.86,0,0,0,1.195,1.434q5.488,2.711,10.962,5.421c.523.254,1.03.508,1.553.777a5.626,5.626,0,0,1,2.494,2.4,3.8,3.8,0,0,0,5.466,1.6c1.478-.792,2.972-1.568,4.45-2.33.627-.329,1.105-.209,1.389.314.254.508.09.941-.538,1.269-1.613.851-3.211,1.732-4.854,2.539a5.528,5.528,0,0,1-7.392-2.36,4.376,4.376,0,0,0-2.016-1.941c-.7-.329-1.419-.672-2.106-1.03-.418-.224-.538-.149-.538.329.015,3.062.015,6.108,0,9.17a3.449,3.449,0,0,1-2.6,3.763H109.064a3.763,3.763,0,0,1-2.464-2.464Q106.622,52.323,106.615,26.188ZM137.783,45.02a.53.53,0,0,0,.134-.06v-12.9c0-.836,0-.836-.821-.836H109.154c-.792,0-.806,0-.806.806V68.959c0,.821,0,.821.836.821h27.882a2.413,2.413,0,0,1,.329,0c.388.03.523-.164.523-.538-.015-.657-.03-1.3,0-1.956a.976.976,0,0,0-.657-1.075c-2.345-1.12-4.749-2.151-7.019-3.45a.732.732,0,0,0-1.016.134,8.675,8.675,0,0,1-7.273,2.285,9.1,9.1,0,1,1,9.931-11.41c.269,1.075.582,1.852,1.732,2.151.523.134.956.538,1.508.7.045-.269-.1-.418-.194-.6-1.9-3.614-3.793-7.213-5.675-10.842a1.026,1.026,0,0,0-1.06-.657q-7.818.022-15.651.015a2.066,2.066,0,0,1-2.27-2.24V36.821a2.045,2.045,0,0,1,2.315-2.3h21.072a2.082,2.082,0,0,1,2.36,2.375v4.241a1.387,1.387,0,0,0,.06.612C136.648,42.854,137.215,43.93,137.783,45.02ZM123.1,71.6H108.975c-.358,0-.642,0-.642.508.03,1.792,0,3.569.015,5.361a1.652,1.652,0,0,0,1.792,1.777h26.03a1.578,1.578,0,0,0,1.732-1.792c0-1.717-.015-3.42.015-5.137.015-.568-.179-.717-.732-.717C132.5,71.618,127.807,71.6,123.1,71.6Zm.03-22.73a11.29,11.29,0,0,0-1.225.1,7.022,7.022,0,0,0-5.795,5.317,6.948,6.948,0,0,0,2.479,7.557,7.3,7.3,0,0,0,9.438-.254c.224-.209.343-.373.179-.7a3.745,3.745,0,0,1,1.807-5.212.51.51,0,0,0,.343-.642A7.3,7.3,0,0,0,123.132,48.873Zm.09-12.515H112.828c-.4,0-.732,0-.732.567.015,1.747.015,3.495,0,5.257,0,.4.149.553.567.553q7.482-.022,14.979,0c.4,0,.448-.164.433-.508a3.653,3.653,0,0,1,.971-2.658,3.751,3.751,0,0,1,4.719-.866c.344.164.463.164.448-.254-.015-.448,0-.9,0-1.344,0-.732-.015-.747-.747-.747Z" transform="translate(-106.6 -23.675)" fill="purple"/>
    <path id="Path_137" data-name="Path 137" d="M190.718,354.615c.806,0,1.6-.015,2.4,0a2.3,2.3,0,0,1,.119,4.6c-1.688.045-3.39.045-5.078,0a2.188,2.188,0,0,1-2.165-2.36,2.211,2.211,0,0,1,2.27-2.255C189.075,354.6,189.9,354.615,190.718,354.615Zm0,1.822h-2.345c-.329,0-.627.06-.627.463s.3.508.657.508h4.525c.373,0,.687-.075.672-.538s-.388-.433-.7-.433Z" transform="translate(-174.141 -305.179)" fill="purple"/>
    <path id="Path_138" data-name="Path 138" d="M193.293,216.039a1.069,1.069,0,0,1-.329.687c-1.956,1.956-3.913,3.928-5.9,5.884a.909.909,0,0,1-1.464-.015c-.777-.747-1.538-1.523-2.285-2.3a.872.872,0,0,1-.045-1.329.856.856,0,0,1,1.329.09c.448.433.9.851,1.3,1.314.314.373.523.373.881.015,1.523-1.568,3.076-3.091,4.615-4.63a3.436,3.436,0,0,1,.553-.478A.9.9,0,0,1,193.293,216.039Z" transform="translate(-171.578 -186.555)" fill="purple"/>
  </g>
</svg>
